M48
; DRILL file {KiCad (5.1.6)-1} date 10/03/20 18:10:30
; FORMAT={-:-/ absolute / inch / decimal}
; #@! TF.CreationDate,2020-10-03T18:10:30-07:00
; #@! TF.GenerationSoftware,Kicad,Pcbnew,(5.1.6)-1
; #@! TF.FileFunction,Plated,1,2,PTH
FMAT,2
INCH
T1C0.0118
T2C0.0315
T3C0.0320
T4C0.0394
T5C0.0433
T6C0.0591
T7C0.0866
%
G90
G05
T1
X2.195Y-3.114
X2.3545Y-1.8895
X2.359Y-1.988
X2.3635Y-2.0885
X2.3655Y-2.1895
X2.3685Y-2.2885
X2.3715Y-2.3885
X2.3735Y-2.4875
X2.3745Y-2.6875
X2.3755Y-2.589
X2.377Y-2.788
X2.378Y-2.9885
X2.3785Y-2.889
X2.401Y-1.8015
X2.72Y-3.071
X2.764Y-3.071
X2.9655Y-2.3655
X3.0975Y-2.565
X3.3075Y-2.7495
X5.109Y-5.3025
X6.4435Y-4.08
X6.9615Y-4.188
X7.5095Y-3.321
X8.408Y-3.336
X8.6675Y-5.26
X9.022Y-2.904
T2
X5.4705Y-5.3455
X5.5121Y-5.5411
X8.915Y-4.4175
X8.915Y-4.6175
X6.9025Y-4.415
X6.9025Y-4.615
X7.1175Y-3.67
X7.1175Y-3.87
X6.3675Y-3.67
X6.3675Y-3.87
X6.78Y-2.915
X6.78Y-3.115
X3.737Y-3.3699
X3.7854Y-3.564
X7.98Y-3.6725
X7.98Y-3.8725
X5.338Y-4.563
X5.3796Y-4.7586
X8.4075Y-2.92
X8.4075Y-3.12
X6.03Y-2.8725
X6.03Y-3.0725
X6.9875Y-2.165
X6.9875Y-2.365
X6.155Y-4.42
X6.155Y-4.62
X4.083Y-4.068
X4.1246Y-4.2636
X7.72Y-2.155
X7.72Y-2.355
X5.208Y-3.053
X5.2496Y-3.2486
X6.24Y-2.0825
X6.24Y-2.2825
X3.093Y-4.8405
X3.1346Y-5.0361
X4.6055Y-4.723
X4.6471Y-4.9186
X9.225Y-2.175
X9.225Y-2.375
X3.218Y-2.7155
X3.2596Y-2.9111
X3.027Y-5.824
X3.027Y-6.024
X7.5125Y-2.9125
X7.5125Y-3.1125
X3.358Y-4.258
X3.3996Y-4.4536
X7.8375Y-4.405
X7.8375Y-4.605
X4.473Y-3.2055
X4.5146Y-3.4011
X5.418Y-2.2455
X5.4596Y-2.4411
X3.953Y-2.5555
X3.9946Y-2.7511
X3.483Y-5.7205
X3.5246Y-5.9161
X5.5505Y-3.758
X5.5921Y-3.9536
X8.5475Y-5.1625
X8.5475Y-5.3625
X3.288Y-3.9305
X3.3296Y-4.1261
X4.6855Y-2.398
X4.7271Y-2.5936
X3.8705Y-4.8755
X3.9121Y-5.0711
X4.813Y-3.8955
X4.8546Y-4.0911
T3
X2.8644Y-3.2808
X2.8644Y-3.4808
X3.095Y-2.3375
X2.3681Y-3.1781
X2.4681Y-3.1781
X2.5681Y-3.1781
X2.6681Y-3.1781
X2.2236Y-1.9356
X2.2236Y-2.0356
X2.2236Y-2.1356
X2.2236Y-2.2356
X2.2236Y-2.3356
X2.2236Y-2.4356
X2.2236Y-2.5356
X2.2236Y-2.6356
X2.2236Y-2.7356
X2.2236Y-2.8356
X2.2236Y-2.9356
X2.2236Y-3.0356
X2.2747Y-1.8885
X2.2747Y-1.9885
X2.2747Y-2.0885
X2.2747Y-2.1885
X2.2747Y-2.2885
X2.2747Y-2.3885
X2.2747Y-2.4885
X2.2747Y-2.5885
X2.2747Y-2.6885
X2.2747Y-2.7885
X2.2747Y-2.8885
X2.2747Y-2.9885
X2.8236Y-1.9356
X2.8236Y-2.0356
X2.8236Y-2.1356
X2.8236Y-2.2356
X2.8236Y-2.3356
X2.8236Y-2.4356
X2.8236Y-2.5356
X2.8236Y-2.6356
X2.8236Y-2.7356
X2.8236Y-2.8356
X2.8236Y-2.9356
X2.8236Y-3.0356
X2.8747Y-1.8885
X2.8747Y-1.9885
X2.8747Y-2.0885
X2.8747Y-2.1885
X2.8747Y-2.2885
X2.8747Y-2.3885
X2.8747Y-2.4885
X2.8747Y-2.5885
X2.8747Y-2.6885
X2.8747Y-2.7885
X2.8747Y-2.8885
X2.8747Y-2.9885
X3.21Y-2.3375
X2.766Y-3.2808
X2.766Y-3.4808
T4
X2.9725Y-3.2641
X2.9725Y-3.3625
X2.9725Y-3.4649
X2.3047Y-5.8491
X2.3047Y-5.9475
X2.3047Y-6.0459
X2.8756Y-5.8491
X2.8756Y-6.0459
T5
X2.4031Y-3.3106
X2.4031Y-3.4878
X2.659Y-3.3106
X2.659Y-3.4878
T6
X3.5688Y-4.1698
X3.7925Y-4.02
X7.9475Y-2.1675
X8.1975Y-2.0675
X5.7688Y-3.7023
X5.9925Y-3.5525
X5.7463Y-5.2998
X5.97Y-5.15
X4.09Y-4.8259
X4.3137Y-4.6761
X4.1725Y-2.5073
X4.3962Y-2.3575
X5.6388Y-2.1948
X5.8625Y-2.045
X4.6938Y-3.1623
X4.9175Y-3.0125
X8.5625Y-3.67
X8.8125Y-3.57
X5.5575Y-4.5134
X5.7812Y-4.3636
X3.3563Y-4.9823
X3.58Y-4.8325
X3.96Y-3.3198
X4.1837Y-3.17
X6.465Y-2.085
X6.715Y-1.985
X4.3013Y-4.0148
X4.525Y-3.865
X9.1925Y-4.42
X9.4425Y-4.32
X7.3425Y-3.67
X7.5925Y-3.57
X7.7375Y-2.92
X7.9875Y-2.82
X7.1975Y-2.17
X7.4475Y-2.07
X3.2288Y-3.4748
X3.4525Y-3.325
X8.3225Y-2.1675
X8.5725Y-2.0675
X8.16Y-4.42
X8.41Y-4.32
X5.0338Y-3.8573
X5.2575Y-3.7075
X6.9875Y-2.92
X7.2375Y-2.82
X6.255Y-2.875
X6.505Y-2.775
X7.13Y-4.42
X7.38Y-4.32
X8.675Y-2.92
X8.925Y-2.82
X5.4288Y-3.0073
X5.6525Y-2.8575
X4.905Y-2.3509
X5.1287Y-2.2011
X8.6975Y-2.1675
X8.9475Y-2.0675
X8.8625Y-5.1725
X9.1125Y-5.0725
X6.38Y-4.42
X6.63Y-4.32
X3.4375Y-2.6634
X3.6612Y-2.5136
X6.5925Y-3.67
X6.8425Y-3.57
X4.155Y-5.5834
X4.3787Y-5.4336
X4.825Y-4.6709
X5.0487Y-4.5211
T7
X3.955Y-3.0125
X3.6575Y-2.045
X5.1Y-5.96
X9.475Y-4.075
X7.8875Y-5.085
X3.18Y-5.2525
X7.5125Y-2.6825
T4
G00X3.0323Y-1.8798
M15
G01X3.0323Y-1.8601
M16
G05
G00X3.0323Y-1.9979
M15
G01X3.0323Y-1.9782
M16
G05
G00X3.0323Y-2.1554
M15
G01X3.0323Y-2.1357
M16
G05
G00X3.1012Y-2.2144
M15
G01X3.1012Y-2.1947
M16
G05
G00X3.1977Y-2.2144
M15
G01X3.1977Y-2.1947
M16
G05
G00X3.2666Y-1.8798
M15
G01X3.2666Y-1.8601
M16
G05
G00X3.2666Y-1.9979
M15
G01X3.2666Y-1.9782
M16
G05
G00X3.2666Y-2.1554
M15
G01X3.2666Y-2.1357
M16
G05
T6
G00X2.5744Y-5.727
M15
G01X2.6256Y-5.727
M16
G05
G00X2.5744Y-6.168
M15
G01X2.6256Y-6.168
M16
G05
T0
M30
