G04 #@! TF.GenerationSoftware,KiCad,Pcbnew,(5.1.6)-1*
G04 #@! TF.CreationDate,2020-10-03T18:10:29-07:00*
G04 #@! TF.ProjectId,Alipt-Keyboard-Right,416c6970-742d-44b6-9579-626f6172642d,rev?*
G04 #@! TF.SameCoordinates,Original*
G04 #@! TF.FileFunction,Legend,Bot*
G04 #@! TF.FilePolarity,Positive*
%FSLAX46Y46*%
G04 Gerber Fmt 4.6, Leading zero omitted, Abs format (unit mm)*
G04 Created by KiCad (PCBNEW (5.1.6)-1) date 2020-10-03 18:10:29*
%MOMM*%
%LPD*%
G01*
G04 APERTURE LIST*
%ADD10C,0.150000*%
%ADD11C,0.120000*%
%ADD12C,0.152400*%
G04 APERTURE END LIST*
D10*
X55209689Y-78373742D02*
X55209689Y-47893742D01*
X70449689Y-78373742D02*
X70449689Y-47893742D01*
X57749689Y-47893742D02*
X57749689Y-78373742D01*
X55209689Y-78373742D02*
X55209689Y-45353742D01*
X55209689Y-47893742D02*
X57749689Y-47893742D01*
X72989689Y-78373742D02*
X70449689Y-78373742D01*
X55209689Y-45353742D02*
X72989689Y-45353742D01*
X72989689Y-45353742D02*
X72989689Y-78373742D01*
X72989689Y-47893742D02*
X72989689Y-78373742D01*
X70449689Y-47893742D02*
X72989689Y-47893742D01*
X57749689Y-78373742D02*
X55209689Y-78373742D01*
X77612994Y-58372507D02*
X79612994Y-58372507D01*
X79612994Y-58372507D02*
X79612994Y-60372507D01*
X79612994Y-60372507D02*
X77612994Y-60372507D01*
X77612994Y-60372507D02*
X77612994Y-58372507D01*
X58879875Y-81993518D02*
X58879875Y-79453518D01*
X69039875Y-81993518D02*
X58879875Y-81993518D01*
X69039875Y-79453518D02*
X69039875Y-81993518D01*
X58879875Y-79453518D02*
X69039875Y-79453518D01*
X76401498Y-87107501D02*
X76401498Y-88907501D01*
X74601498Y-88907501D02*
X76401498Y-88907501D01*
X74601498Y-87107501D02*
X74601498Y-88907501D01*
X76401498Y-84507501D02*
X76401498Y-86307501D01*
X74601498Y-84507501D02*
X74601498Y-86307501D01*
X74601498Y-86307501D02*
X76401498Y-86307501D01*
X76401498Y-84507501D02*
X74601498Y-84507501D01*
X76401498Y-83807501D02*
X76401498Y-82007501D01*
X74601498Y-83807501D02*
X76401498Y-83807501D01*
X74601498Y-82007501D02*
X74601498Y-83807501D01*
X76401498Y-82007501D02*
X74601498Y-82007501D01*
X76401498Y-87107501D02*
X74601498Y-87107501D01*
X82120998Y-44196002D02*
X76120998Y-44196002D01*
X76120998Y-44196002D02*
X76120998Y-56196002D01*
X76120998Y-56196002D02*
X82120998Y-56196002D01*
X82120998Y-56196002D02*
X82120998Y-44196002D01*
X73754772Y-87371225D02*
X71754772Y-87371225D01*
X73754772Y-84371225D02*
X73754772Y-87371225D01*
X71754772Y-84371225D02*
X73754772Y-84371225D01*
X71754772Y-87371225D02*
X71754772Y-84371225D01*
X69256032Y-87371217D02*
X69256032Y-84371217D01*
X69256032Y-84371217D02*
X71256032Y-84371217D01*
X71256032Y-84371217D02*
X71256032Y-87371217D01*
X71256032Y-87371217D02*
X69256032Y-87371217D01*
X80533997Y-60372501D02*
X80533997Y-58372501D01*
X82533997Y-60372501D02*
X80533997Y-60372501D01*
X82533997Y-58372501D02*
X82533997Y-60372501D01*
X80533997Y-58372501D02*
X82533997Y-58372501D01*
X73596506Y-46037506D02*
X75882506Y-46037506D01*
X75882506Y-46037506D02*
X75882506Y-44259506D01*
X75882506Y-44259506D02*
X73596506Y-44259506D01*
X73596506Y-44259506D02*
X73596506Y-46037506D01*
D11*
X65539998Y-151066502D02*
X66539998Y-151066502D01*
X66039998Y-151566502D02*
X66039998Y-150566502D01*
X72139998Y-147566502D02*
X72139998Y-145166502D01*
X72139998Y-152366502D02*
X72139998Y-149766502D01*
X72139998Y-156966502D02*
X72139998Y-154566502D01*
X59939998Y-156966502D02*
X59939998Y-145166502D01*
X64039998Y-156966502D02*
X59939998Y-156966502D01*
X64039998Y-145166502D02*
X59939998Y-145166502D01*
X72139998Y-145166502D02*
X68039998Y-145166502D01*
X68039998Y-156966502D02*
X72139998Y-156966502D01*
X69039998Y-151066502D02*
G75*
G03*
X69039998Y-151066502I-3000000J0D01*
G01*
D10*
X79080689Y-60672583D02*
X78267889Y-60672583D01*
X78267889Y-60982221D01*
X78306594Y-61059630D01*
X78345298Y-61098335D01*
X78422708Y-61137040D01*
X78538822Y-61137040D01*
X78616232Y-61098335D01*
X78654936Y-61059630D01*
X78693641Y-60982221D01*
X78693641Y-60672583D01*
X79080689Y-61911135D02*
X79080689Y-61446678D01*
X79080689Y-61678907D02*
X78267889Y-61678907D01*
X78384003Y-61601497D01*
X78461413Y-61524087D01*
X78500117Y-61446678D01*
X78215783Y-85769405D02*
X78596736Y-85769405D01*
X78596736Y-84969405D01*
X77949117Y-85350358D02*
X77682450Y-85350358D01*
X77568164Y-85769405D02*
X77949117Y-85769405D01*
X77949117Y-84969405D01*
X77568164Y-84969405D01*
X77225307Y-85769405D02*
X77225307Y-84969405D01*
X77034831Y-84969405D01*
X76920545Y-85007501D01*
X76844355Y-85083691D01*
X76806259Y-85159881D01*
X76768164Y-85312262D01*
X76768164Y-85426548D01*
X76806259Y-85578929D01*
X76844355Y-85655120D01*
X76920545Y-85731310D01*
X77034831Y-85769405D01*
X77225307Y-85769405D01*
X78211021Y-87607501D02*
X78287212Y-87569405D01*
X78401498Y-87569405D01*
X78515783Y-87607501D01*
X78591974Y-87683691D01*
X78630069Y-87759881D01*
X78668164Y-87912262D01*
X78668164Y-88026548D01*
X78630069Y-88178929D01*
X78591974Y-88255120D01*
X78515783Y-88331310D01*
X78401498Y-88369405D01*
X78325307Y-88369405D01*
X78211021Y-88331310D01*
X78172926Y-88293215D01*
X78172926Y-88026548D01*
X78325307Y-88026548D01*
X77830069Y-88369405D02*
X77830069Y-87569405D01*
X77372926Y-88369405D01*
X77372926Y-87569405D01*
X76991974Y-88369405D02*
X76991974Y-87569405D01*
X76801498Y-87569405D01*
X76687212Y-87607501D01*
X76611021Y-87683691D01*
X76572926Y-87759881D01*
X76534831Y-87912262D01*
X76534831Y-88026548D01*
X76572926Y-88178929D01*
X76611021Y-88255120D01*
X76687212Y-88331310D01*
X76801498Y-88369405D01*
X76991974Y-88369405D01*
X78768164Y-82569405D02*
X78501498Y-83369405D01*
X78234831Y-82569405D01*
X77511021Y-83293215D02*
X77549117Y-83331310D01*
X77663402Y-83369405D01*
X77739593Y-83369405D01*
X77853878Y-83331310D01*
X77930069Y-83255120D01*
X77968164Y-83178929D01*
X78006259Y-83026548D01*
X78006259Y-82912262D01*
X77968164Y-82759881D01*
X77930069Y-82683691D01*
X77853878Y-82607501D01*
X77739593Y-82569405D01*
X77663402Y-82569405D01*
X77549117Y-82607501D01*
X77511021Y-82645596D01*
X76711021Y-83293215D02*
X76749117Y-83331310D01*
X76863402Y-83369405D01*
X76939593Y-83369405D01*
X77053878Y-83331310D01*
X77130069Y-83255120D01*
X77168164Y-83178929D01*
X77206259Y-83026548D01*
X77206259Y-82912262D01*
X77168164Y-82759881D01*
X77130069Y-82683691D01*
X77053878Y-82607501D01*
X76939593Y-82569405D01*
X76863402Y-82569405D01*
X76749117Y-82607501D01*
X76711021Y-82645596D01*
X81632902Y-50098382D02*
X81061474Y-50098382D01*
X81347188Y-51098382D02*
X81347188Y-50098382D01*
X80156712Y-51098382D02*
X80490045Y-50622192D01*
X80728140Y-51098382D02*
X80728140Y-50098382D01*
X80347188Y-50098382D01*
X80251950Y-50146002D01*
X80204331Y-50193621D01*
X80156712Y-50288859D01*
X80156712Y-50431716D01*
X80204331Y-50526954D01*
X80251950Y-50574573D01*
X80347188Y-50622192D01*
X80728140Y-50622192D01*
X79156712Y-51098382D02*
X79490045Y-50622192D01*
X79728140Y-51098382D02*
X79728140Y-50098382D01*
X79347188Y-50098382D01*
X79251950Y-50146002D01*
X79204331Y-50193621D01*
X79156712Y-50288859D01*
X79156712Y-50431716D01*
X79204331Y-50526954D01*
X79251950Y-50574573D01*
X79347188Y-50622192D01*
X79728140Y-50622192D01*
X78775759Y-51050763D02*
X78632902Y-51098382D01*
X78394807Y-51098382D01*
X78299569Y-51050763D01*
X78251950Y-51003144D01*
X78204331Y-50907906D01*
X78204331Y-50812668D01*
X78251950Y-50717430D01*
X78299569Y-50669811D01*
X78394807Y-50622192D01*
X78585283Y-50574573D01*
X78680521Y-50526954D01*
X78728140Y-50479335D01*
X78775759Y-50384097D01*
X78775759Y-50288859D01*
X78728140Y-50193621D01*
X78680521Y-50146002D01*
X78585283Y-50098382D01*
X78347188Y-50098382D01*
X78204331Y-50146002D01*
X73116676Y-85737891D02*
X72735724Y-85471225D01*
X73116676Y-85280748D02*
X72316676Y-85280748D01*
X72316676Y-85585510D01*
X72354772Y-85661701D01*
X72392867Y-85699796D01*
X72469057Y-85737891D01*
X72583343Y-85737891D01*
X72659533Y-85699796D01*
X72697629Y-85661701D01*
X72735724Y-85585510D01*
X72735724Y-85280748D01*
X73116676Y-86499796D02*
X73116676Y-86042653D01*
X73116676Y-86271225D02*
X72316676Y-86271225D01*
X72430962Y-86195034D01*
X72507152Y-86118844D01*
X72545248Y-86042653D01*
X70617936Y-85737883D02*
X70236984Y-85471217D01*
X70617936Y-85280740D02*
X69817936Y-85280740D01*
X69817936Y-85585502D01*
X69856032Y-85661693D01*
X69894127Y-85699788D01*
X69970317Y-85737883D01*
X70084603Y-85737883D01*
X70160793Y-85699788D01*
X70198889Y-85661693D01*
X70236984Y-85585502D01*
X70236984Y-85280740D01*
X70617936Y-86499788D02*
X70617936Y-86042645D01*
X70617936Y-86271217D02*
X69817936Y-86271217D01*
X69932222Y-86195026D01*
X70008412Y-86118836D01*
X70046508Y-86042645D01*
X82001692Y-60672577D02*
X81188892Y-60672577D01*
X81188892Y-60982215D01*
X81227597Y-61059624D01*
X81266301Y-61098329D01*
X81343711Y-61137034D01*
X81459825Y-61137034D01*
X81537235Y-61098329D01*
X81575939Y-61059624D01*
X81614644Y-60982215D01*
X81614644Y-60672577D01*
X81266301Y-61446672D02*
X81227597Y-61485377D01*
X81188892Y-61562786D01*
X81188892Y-61756310D01*
X81227597Y-61833720D01*
X81266301Y-61872424D01*
X81343711Y-61911129D01*
X81421120Y-61911129D01*
X81537235Y-61872424D01*
X82001692Y-61407967D01*
X82001692Y-61911129D01*
D12*
X75298904Y-47801590D02*
X74486104Y-47608066D01*
X75066676Y-47453247D01*
X74486104Y-47298428D01*
X75298904Y-47104904D01*
X74486104Y-46369514D02*
X74486104Y-46833971D01*
X74486104Y-46601742D02*
X75298904Y-46601742D01*
X75182790Y-46679152D01*
X75105380Y-46756561D01*
X75066676Y-46833971D01*
M02*
