G04 #@! TF.GenerationSoftware,KiCad,Pcbnew,(5.1.6)-1*
G04 #@! TF.CreationDate,2020-10-03T18:10:29-07:00*
G04 #@! TF.ProjectId,Alipt-Keyboard-Right,416c6970-742d-44b6-9579-626f6172642d,rev?*
G04 #@! TF.SameCoordinates,Original*
G04 #@! TF.FileFunction,Soldermask,Bot*
G04 #@! TF.FilePolarity,Negative*
%FSLAX46Y46*%
G04 Gerber Fmt 4.6, Leading zero omitted, Abs format (unit mm)*
G04 Created by KiCad (PCBNEW (5.1.6)-1) date 2020-10-03 18:10:29*
%MOMM*%
%LPD*%
G01*
G04 APERTURE LIST*
%ADD10C,1.924000*%
%ADD11C,1.797000*%
%ADD12R,1.924000X1.924000*%
%ADD13C,1.600000*%
%ADD14O,2.100000X2.900000*%
%ADD15C,4.800000*%
%ADD16R,1.035000X1.543000*%
%ADD17C,2.400000*%
%ADD18R,3.600000X2.400000*%
%ADD19C,0.100000*%
%ADD20R,2.000000X2.000000*%
%ADD21O,2.000000X2.000000*%
%ADD22C,2.100000*%
%ADD23C,4.400000*%
%ADD24C,2.600000*%
%ADD25C,3.450000*%
G04 APERTURE END LIST*
D10*
X71719689Y-54243742D03*
X56479689Y-72023742D03*
X71719689Y-64403742D03*
X56479689Y-61863742D03*
X56479689Y-56783742D03*
X71719689Y-74563742D03*
X56479689Y-54243742D03*
X56479689Y-49163742D03*
X71719689Y-69483742D03*
X56479689Y-77103742D03*
X71719689Y-61863742D03*
X71719689Y-51703742D03*
X71719689Y-56783742D03*
X71719689Y-59323742D03*
X71719689Y-72023742D03*
X71719689Y-66943742D03*
X56479689Y-69483742D03*
X56479689Y-66943742D03*
X71719689Y-77103742D03*
X56479689Y-74563742D03*
X56479689Y-51703742D03*
X71719689Y-49163742D03*
X56479689Y-64403742D03*
X56479689Y-59323742D03*
X73018504Y-47967997D03*
X73018504Y-50507997D03*
X73018504Y-53047997D03*
X73018504Y-55587997D03*
X73018504Y-58127997D03*
X73018504Y-60667997D03*
X73018504Y-63207997D03*
X73018504Y-65747997D03*
X73018504Y-68287997D03*
X73018504Y-70827997D03*
X73018504Y-73367997D03*
X73018504Y-75907997D03*
X57778504Y-75907997D03*
X57778504Y-73367997D03*
X57778504Y-70827997D03*
X57778504Y-68287997D03*
X57778504Y-65747997D03*
X57778504Y-63207997D03*
X57778504Y-60667997D03*
X57778504Y-58127997D03*
X57778504Y-55587997D03*
X57778504Y-53047997D03*
X57778504Y-50507997D03*
X57778504Y-47967997D03*
D11*
X78612994Y-59372507D03*
X67769875Y-80723518D03*
X65229875Y-80723518D03*
X62689875Y-80723518D03*
X60149875Y-80723518D03*
D12*
X75501498Y-82907501D03*
X75501498Y-85407501D03*
X75501498Y-88007501D03*
D13*
X80870998Y-52696002D03*
X80870998Y-45696002D03*
D14*
X82970998Y-54496002D03*
X78770998Y-55996002D03*
X82970998Y-47496002D03*
X82970998Y-50496002D03*
D13*
X79120998Y-45696002D03*
X79120998Y-52696002D03*
D14*
X77020998Y-47496002D03*
X77020998Y-50496002D03*
X77020998Y-54496002D03*
X81220998Y-55996002D03*
D11*
X72754772Y-83331225D03*
X72754772Y-88411225D03*
X70256032Y-88411217D03*
X70256032Y-83331217D03*
X81533997Y-59372501D03*
D15*
X100456998Y-76517504D03*
X92900500Y-51943000D03*
X240664997Y-103505006D03*
D16*
X74239126Y-45148506D03*
X75239886Y-45148506D03*
D17*
X73039998Y-148566502D03*
X73039998Y-153566502D03*
D18*
X66039998Y-145466502D03*
X66039998Y-156666502D03*
D17*
X58539998Y-148566502D03*
X58539998Y-151066502D03*
X58539998Y-153566502D03*
X67538872Y-84089016D03*
X67538872Y-88589016D03*
X61038872Y-84089016D03*
X61038872Y-88589016D03*
D15*
X129539995Y-151384009D03*
X80772006Y-133413500D03*
X190817500Y-68135500D03*
X200342504Y-129158999D03*
G36*
G01*
X81945673Y-69950911D02*
X81945673Y-69950911D01*
G75*
G02*
X80759613Y-69180675I-207912J978148D01*
G01*
X80759613Y-69180675D01*
G75*
G02*
X81529849Y-67994615I978148J207912D01*
G01*
X81529849Y-67994615D01*
G75*
G02*
X82715909Y-68764851I207912J-978148D01*
G01*
X82715909Y-68764851D01*
G75*
G02*
X81945673Y-69950911I-978148J-207912D01*
G01*
G37*
D19*
G36*
X83980011Y-74711989D02*
G01*
X82023716Y-75127812D01*
X81607893Y-73171517D01*
X83564188Y-72755694D01*
X83980011Y-74711989D01*
G37*
G36*
X102649011Y-70647989D02*
G01*
X100692716Y-71063812D01*
X100276893Y-69107517D01*
X102233188Y-68691694D01*
X102649011Y-70647989D01*
G37*
G36*
G01*
X100614673Y-65886911D02*
X100614673Y-65886911D01*
G75*
G02*
X99428613Y-65116675I-207912J978148D01*
G01*
X99428613Y-65116675D01*
G75*
G02*
X100198849Y-63930615I978148J207912D01*
G01*
X100198849Y-63930615D01*
G75*
G02*
X101384909Y-64700851I207912J-978148D01*
G01*
X101384909Y-64700851D01*
G75*
G02*
X100614673Y-65886911I-978148J-207912D01*
G01*
G37*
G36*
X121254511Y-66647489D02*
G01*
X119298216Y-67063312D01*
X118882393Y-65107017D01*
X120838688Y-64691194D01*
X121254511Y-66647489D01*
G37*
G36*
G01*
X119220173Y-61886411D02*
X119220173Y-61886411D01*
G75*
G02*
X118034113Y-61116175I-207912J978148D01*
G01*
X118034113Y-61116175D01*
G75*
G02*
X118804349Y-59930115I978148J207912D01*
G01*
X118804349Y-59930115D01*
G75*
G02*
X119990409Y-60700351I207912J-978148D01*
G01*
X119990409Y-60700351D01*
G75*
G02*
X119220173Y-61886411I-978148J-207912D01*
G01*
G37*
G36*
G01*
X137825673Y-58012911D02*
X137825673Y-58012911D01*
G75*
G02*
X136639613Y-57242675I-207912J978148D01*
G01*
X136639613Y-57242675D01*
G75*
G02*
X137409849Y-56056615I978148J207912D01*
G01*
X137409849Y-56056615D01*
G75*
G02*
X138595909Y-56826851I207912J-978148D01*
G01*
X138595909Y-56826851D01*
G75*
G02*
X137825673Y-58012911I-978148J-207912D01*
G01*
G37*
G36*
X139860011Y-62773989D02*
G01*
X137903716Y-63189812D01*
X137487893Y-61233517D01*
X139444188Y-60817694D01*
X139860011Y-62773989D01*
G37*
D20*
X158496000Y-57975500D03*
D21*
X158496000Y-52895500D03*
X177482500Y-54991000D03*
D20*
X177482500Y-60071000D03*
X196088000Y-59817000D03*
D21*
X196088000Y-54737000D03*
D19*
G36*
X85758011Y-105572989D02*
G01*
X83801716Y-105988812D01*
X83385893Y-104032517D01*
X85342188Y-103616694D01*
X85758011Y-105572989D01*
G37*
G36*
G01*
X83723673Y-100811911D02*
X83723673Y-100811911D01*
G75*
G02*
X82537613Y-100041675I-207912J978148D01*
G01*
X82537613Y-100041675D01*
G75*
G02*
X83307849Y-98855615I978148J207912D01*
G01*
X83307849Y-98855615D01*
G75*
G02*
X84493909Y-99625851I207912J-978148D01*
G01*
X84493909Y-99625851D01*
G75*
G02*
X83723673Y-100811911I-978148J-207912D01*
G01*
G37*
G36*
G01*
X95162218Y-86566418D02*
X95162218Y-86566418D01*
G75*
G02*
X93950000Y-85838044I-241922J970296D01*
G01*
X93950000Y-85838044D01*
G75*
G02*
X94678374Y-84625826I970296J241922D01*
G01*
X94678374Y-84625826D01*
G75*
G02*
X95890592Y-85354200I241922J-970296D01*
G01*
X95890592Y-85354200D01*
G75*
G02*
X95162218Y-86566418I-970296J-241922D01*
G01*
G37*
G36*
X97361477Y-91253598D02*
G01*
X95420885Y-91737442D01*
X94937041Y-89796850D01*
X96877633Y-89313006D01*
X97361477Y-91253598D01*
G37*
G36*
G01*
X113822673Y-82396911D02*
X113822673Y-82396911D01*
G75*
G02*
X112636613Y-81626675I-207912J978148D01*
G01*
X112636613Y-81626675D01*
G75*
G02*
X113406849Y-80440615I978148J207912D01*
G01*
X113406849Y-80440615D01*
G75*
G02*
X114592909Y-81210851I207912J-978148D01*
G01*
X114592909Y-81210851D01*
G75*
G02*
X113822673Y-82396911I-978148J-207912D01*
G01*
G37*
G36*
X115857011Y-87157989D02*
G01*
X113900716Y-87573812D01*
X113484893Y-85617517D01*
X115441188Y-85201694D01*
X115857011Y-87157989D01*
G37*
G36*
X134526011Y-83284489D02*
G01*
X132569716Y-83700312D01*
X132153893Y-81744017D01*
X134110188Y-81328194D01*
X134526011Y-83284489D01*
G37*
G36*
G01*
X132491673Y-78523411D02*
X132491673Y-78523411D01*
G75*
G02*
X131305613Y-77753175I-207912J978148D01*
G01*
X131305613Y-77753175D01*
G75*
G02*
X132075849Y-76567115I978148J207912D01*
G01*
X132075849Y-76567115D01*
G75*
G02*
X133261909Y-77337351I207912J-978148D01*
G01*
X133261909Y-77337351D01*
G75*
G02*
X132491673Y-78523411I-978148J-207912D01*
G01*
G37*
D21*
X153162000Y-72961500D03*
D20*
X153162000Y-78041500D03*
X172212000Y-79121000D03*
D21*
X172212000Y-74041000D03*
X234315000Y-55245000D03*
D20*
X234315000Y-60325000D03*
G36*
G01*
X85501673Y-109130411D02*
X85501673Y-109130411D01*
G75*
G02*
X84315613Y-108360175I-207912J978148D01*
G01*
X84315613Y-108360175D01*
G75*
G02*
X85085849Y-107174115I978148J207912D01*
G01*
X85085849Y-107174115D01*
G75*
G02*
X86271909Y-107944351I207912J-978148D01*
G01*
X86271909Y-107944351D01*
G75*
G02*
X85501673Y-109130411I-978148J-207912D01*
G01*
G37*
D19*
G36*
X87536011Y-113891489D02*
G01*
X85579716Y-114307312D01*
X85163893Y-112351017D01*
X87120188Y-111935194D01*
X87536011Y-113891489D01*
G37*
G36*
X105951011Y-109065489D02*
G01*
X103994716Y-109481312D01*
X103578893Y-107525017D01*
X105535188Y-107109194D01*
X105951011Y-109065489D01*
G37*
G36*
G01*
X103916673Y-104304411D02*
X103916673Y-104304411D01*
G75*
G02*
X102730613Y-103534175I-207912J978148D01*
G01*
X102730613Y-103534175D01*
G75*
G02*
X103500849Y-102348115I978148J207912D01*
G01*
X103500849Y-102348115D01*
G75*
G02*
X104686909Y-103118351I207912J-978148D01*
G01*
X104686909Y-103118351D01*
G75*
G02*
X103916673Y-104304411I-978148J-207912D01*
G01*
G37*
G36*
G01*
X122458673Y-99922911D02*
X122458673Y-99922911D01*
G75*
G02*
X121272613Y-99152675I-207912J978148D01*
G01*
X121272613Y-99152675D01*
G75*
G02*
X122042849Y-97966615I978148J207912D01*
G01*
X122042849Y-97966615D01*
G75*
G02*
X123228909Y-98736851I207912J-978148D01*
G01*
X123228909Y-98736851D01*
G75*
G02*
X122458673Y-99922911I-978148J-207912D01*
G01*
G37*
G36*
X124493011Y-104683989D02*
G01*
X122536716Y-105099812D01*
X122120893Y-103143517D01*
X124077188Y-102727694D01*
X124493011Y-104683989D01*
G37*
G36*
X143225511Y-101191489D02*
G01*
X141269216Y-101607312D01*
X140853393Y-99651017D01*
X142809688Y-99235194D01*
X143225511Y-101191489D01*
G37*
G36*
G01*
X141191173Y-96430411D02*
X141191173Y-96430411D01*
G75*
G02*
X140005113Y-95660175I-207912J978148D01*
G01*
X140005113Y-95660175D01*
G75*
G02*
X140775349Y-94474115I978148J207912D01*
G01*
X140775349Y-94474115D01*
G75*
G02*
X141961409Y-95244351I207912J-978148D01*
G01*
X141961409Y-95244351D01*
G75*
G02*
X141191173Y-96430411I-978148J-207912D01*
G01*
G37*
D20*
X161734500Y-98298000D03*
D21*
X161734500Y-93218000D03*
X180784500Y-93218000D03*
D20*
X180784500Y-98298000D03*
X190817500Y-79057500D03*
D21*
X190817500Y-73977500D03*
G36*
G01*
X78770673Y-123925911D02*
X78770673Y-123925911D01*
G75*
G02*
X77584613Y-123155675I-207912J978148D01*
G01*
X77584613Y-123155675D01*
G75*
G02*
X78354849Y-121969615I978148J207912D01*
G01*
X78354849Y-121969615D01*
G75*
G02*
X79540909Y-122739851I207912J-978148D01*
G01*
X79540909Y-122739851D01*
G75*
G02*
X78770673Y-123925911I-978148J-207912D01*
G01*
G37*
D19*
G36*
X80805011Y-128686989D02*
G01*
X78848716Y-129102812D01*
X78432893Y-127146517D01*
X80389188Y-126730694D01*
X80805011Y-128686989D01*
G37*
G36*
G01*
X98519173Y-124814911D02*
X98519173Y-124814911D01*
G75*
G02*
X97333113Y-124044675I-207912J978148D01*
G01*
X97333113Y-124044675D01*
G75*
G02*
X98103349Y-122858615I978148J207912D01*
G01*
X98103349Y-122858615D01*
G75*
G02*
X99289409Y-123628851I207912J-978148D01*
G01*
X99289409Y-123628851D01*
G75*
G02*
X98519173Y-124814911I-978148J-207912D01*
G01*
G37*
G36*
X100553511Y-129575989D02*
G01*
X98597216Y-129991812D01*
X98181393Y-128035517D01*
X100137688Y-127619694D01*
X100553511Y-129575989D01*
G37*
G36*
X119222511Y-125702489D02*
G01*
X117266216Y-126118312D01*
X116850393Y-124162017D01*
X118806688Y-123746194D01*
X119222511Y-125702489D01*
G37*
G36*
G01*
X117188173Y-120941411D02*
X117188173Y-120941411D01*
G75*
G02*
X116002113Y-120171175I-207912J978148D01*
G01*
X116002113Y-120171175D01*
G75*
G02*
X116772349Y-118985115I978148J207912D01*
G01*
X116772349Y-118985115D01*
G75*
G02*
X117958409Y-119755351I207912J-978148D01*
G01*
X117958409Y-119755351D01*
G75*
G02*
X117188173Y-120941411I-978148J-207912D01*
G01*
G37*
G36*
G01*
X135793673Y-116877411D02*
X135793673Y-116877411D01*
G75*
G02*
X134607613Y-116107175I-207912J978148D01*
G01*
X134607613Y-116107175D01*
G75*
G02*
X135377849Y-114921115I978148J207912D01*
G01*
X135377849Y-114921115D01*
G75*
G02*
X136563909Y-115691351I207912J-978148D01*
G01*
X136563909Y-115691351D01*
G75*
G02*
X135793673Y-116877411I-978148J-207912D01*
G01*
G37*
G36*
X137828011Y-121638489D02*
G01*
X135871716Y-122054312D01*
X135455893Y-120098017D01*
X137412188Y-119682194D01*
X137828011Y-121638489D01*
G37*
D21*
X156337000Y-112268000D03*
D20*
X156337000Y-117348000D03*
X175323500Y-117221000D03*
D21*
X175323500Y-112141000D03*
X213550500Y-74168000D03*
D20*
X213550500Y-79248000D03*
D19*
G36*
X90711011Y-151038989D02*
G01*
X88754716Y-151454812D01*
X88338893Y-149498517D01*
X90295188Y-149082694D01*
X90711011Y-151038989D01*
G37*
G36*
G01*
X88676673Y-146277911D02*
X88676673Y-146277911D01*
G75*
G02*
X87490613Y-145507675I-207912J978148D01*
G01*
X87490613Y-145507675D01*
G75*
G02*
X88260849Y-144321615I978148J207912D01*
G01*
X88260849Y-144321615D01*
G75*
G02*
X89446909Y-145091851I207912J-978148D01*
G01*
X89446909Y-145091851D01*
G75*
G02*
X88676673Y-146277911I-978148J-207912D01*
G01*
G37*
G36*
X141193511Y-141513989D02*
G01*
X139237216Y-141929812D01*
X138821393Y-139973517D01*
X140777688Y-139557694D01*
X141193511Y-141513989D01*
G37*
G36*
G01*
X139159173Y-136752911D02*
X139159173Y-136752911D01*
G75*
G02*
X137973113Y-135982675I-207912J978148D01*
G01*
X137973113Y-135982675D01*
G75*
G02*
X138743349Y-134796615I978148J207912D01*
G01*
X138743349Y-134796615D01*
G75*
G02*
X139929409Y-135566851I207912J-978148D01*
G01*
X139929409Y-135566851D01*
G75*
G02*
X139159173Y-136752911I-978148J-207912D01*
G01*
G37*
D21*
X217106500Y-131127500D03*
D20*
X217106500Y-136207500D03*
X199072500Y-116967000D03*
D21*
X199072500Y-111887000D03*
X226441000Y-112204500D03*
D20*
X226441000Y-117284500D03*
X202692000Y-98361500D03*
D21*
X202692000Y-93281500D03*
D20*
X76885800Y-147929600D03*
D21*
X76885800Y-153009600D03*
D22*
X96535990Y-68285808D03*
X86598011Y-70398191D03*
D23*
X91567000Y-69342000D03*
D24*
X87312162Y-67649648D03*
X92995304Y-63844914D03*
X111664304Y-59880500D03*
X105981162Y-63685234D03*
D23*
X110236000Y-65377586D03*
D22*
X105267011Y-66433777D03*
X115204990Y-64321394D03*
D24*
X130269804Y-55907414D03*
X124586662Y-59712148D03*
D23*
X128841500Y-61404500D03*
D22*
X123872511Y-62460691D03*
X133810490Y-60348308D03*
X152448186Y-56383894D03*
X142510207Y-58496277D03*
D23*
X147479196Y-57440086D03*
D24*
X143224358Y-55747734D03*
X148907500Y-51943000D03*
X170561000Y-50419000D03*
X164211000Y-52959000D03*
D23*
X168021000Y-55499000D03*
D22*
X162941000Y-55499000D03*
X173101000Y-55499000D03*
X191706500Y-57658000D03*
X181546500Y-57658000D03*
D23*
X186626500Y-57658000D03*
D24*
X182816500Y-55118000D03*
X189166500Y-52578000D03*
D22*
X210756500Y-57594500D03*
X200596500Y-57594500D03*
D23*
X205676500Y-57594500D03*
D24*
X201866500Y-55054500D03*
X208216500Y-52514500D03*
D22*
X91234186Y-88895894D03*
X81296207Y-91008277D03*
D23*
X86265196Y-89952086D03*
D24*
X82010358Y-88259734D03*
X87693500Y-84455000D03*
X106266804Y-80518000D03*
X100583662Y-84322734D03*
D23*
X104838500Y-86015086D03*
D22*
X99869511Y-87071277D03*
X109807490Y-84958894D03*
X128445186Y-80958394D03*
X118507207Y-83070777D03*
D23*
X123476196Y-82014586D03*
D24*
X119221358Y-80322234D03*
X124904500Y-76517500D03*
X143573500Y-72580500D03*
X137890358Y-76385234D03*
D23*
X142145196Y-78077586D03*
D22*
X137176207Y-79133777D03*
X147114186Y-77021394D03*
X167767000Y-75565000D03*
X157607000Y-75565000D03*
D23*
X162687000Y-75565000D03*
D24*
X158877000Y-73025000D03*
X165227000Y-70485000D03*
X183832500Y-71628000D03*
X177482500Y-74168000D03*
D23*
X181292500Y-76708000D03*
D22*
X176212500Y-76708000D03*
X186372500Y-76708000D03*
D24*
X96329500Y-102108000D03*
X90646358Y-105912734D03*
D23*
X94901196Y-107605086D03*
D22*
X89932207Y-108661277D03*
X99870186Y-106548894D03*
X118475686Y-102611894D03*
X108537707Y-104724277D03*
D23*
X113506696Y-103668086D03*
D24*
X109251858Y-101975734D03*
X114935000Y-98171000D03*
X133540500Y-94170500D03*
X127857358Y-97975234D03*
D23*
X132112196Y-99667586D03*
D22*
X127143207Y-100723777D03*
X137081186Y-98611394D03*
X155750186Y-94674394D03*
X145812207Y-96786777D03*
D23*
X150781196Y-95730586D03*
D24*
X146526358Y-94038234D03*
X152209500Y-90233500D03*
X173799500Y-90678000D03*
X167449500Y-93218000D03*
D23*
X171259500Y-95758000D03*
D22*
X166179500Y-95758000D03*
X176339500Y-95758000D03*
X195389500Y-95758000D03*
X185229500Y-95758000D03*
D23*
X190309500Y-95758000D03*
D24*
X186499500Y-93218000D03*
X192849500Y-90678000D03*
D22*
X205422500Y-76708000D03*
X195262500Y-76708000D03*
D23*
X200342500Y-76708000D03*
D24*
X196532500Y-74168000D03*
X202882500Y-71628000D03*
X90932000Y-122745500D03*
X85248858Y-126550234D03*
D23*
X89503696Y-128242586D03*
D22*
X84534707Y-129298777D03*
X94472686Y-127186394D03*
D24*
X109568804Y-118772414D03*
X103885662Y-122577148D03*
D23*
X108140500Y-124269500D03*
D22*
X103171511Y-125325691D03*
X113109490Y-123213308D03*
D24*
X128237804Y-114835414D03*
X122554662Y-118640148D03*
D23*
X126809500Y-120332500D03*
D22*
X121840511Y-121388691D03*
X131778490Y-119276308D03*
D24*
X146843304Y-110834914D03*
X141160162Y-114639648D03*
D23*
X145415000Y-116332000D03*
D22*
X140446011Y-117388191D03*
X150383990Y-115275808D03*
X170942000Y-114808000D03*
X160782000Y-114808000D03*
D23*
X165862000Y-114808000D03*
D24*
X162052000Y-112268000D03*
X168402000Y-109728000D03*
X187452000Y-109728000D03*
X181102000Y-112268000D03*
D23*
X184912000Y-114808000D03*
D22*
X179832000Y-114808000D03*
X189992000Y-114808000D03*
D24*
X226695000Y-71628000D03*
X220345000Y-74168000D03*
D23*
X224155000Y-76708000D03*
D22*
X219075000Y-76708000D03*
X229235000Y-76708000D03*
D24*
X111219804Y-138012914D03*
X105536662Y-141817648D03*
D23*
X109791500Y-143510000D03*
D22*
X104822511Y-144566191D03*
X114760490Y-142453808D03*
D23*
X123144649Y-149095787D03*
X99864736Y-154044085D03*
D25*
X96696162Y-139137115D03*
X119976075Y-134188817D03*
D24*
X151638000Y-130810000D03*
X145954858Y-134614734D03*
D23*
X150209696Y-136307086D03*
D22*
X145240707Y-137363277D03*
X155178686Y-135250894D03*
D24*
X231457500Y-128841500D03*
X225107500Y-131381500D03*
D23*
X228917500Y-133921500D03*
D22*
X223837500Y-133921500D03*
X233997500Y-133921500D03*
D24*
X213614000Y-109728000D03*
X207264000Y-112268000D03*
D23*
X211074000Y-114808000D03*
D22*
X205994000Y-114808000D03*
X216154000Y-114808000D03*
D24*
X239839500Y-109728000D03*
X233489500Y-112268000D03*
D23*
X237299500Y-114808000D03*
D22*
X232219500Y-114808000D03*
X242379500Y-114808000D03*
D25*
X233197504Y-88758006D03*
X209397504Y-88758006D03*
D23*
X209397504Y-103998006D03*
X233197504Y-103998006D03*
D22*
X226377504Y-95758006D03*
X216217504Y-95758006D03*
D23*
X221297504Y-95758006D03*
D24*
X217487504Y-93218006D03*
X223837504Y-90678006D03*
D22*
X229806500Y-57594500D03*
X219646500Y-57594500D03*
D23*
X224726500Y-57594500D03*
D24*
X220916500Y-55054500D03*
X227266500Y-52514500D03*
D25*
X227101500Y-50594500D03*
X203301500Y-50594500D03*
D23*
X203301500Y-65834500D03*
X227101500Y-65834500D03*
D22*
X220281500Y-57594500D03*
X210121500Y-57594500D03*
D23*
X215201500Y-57594500D03*
D24*
X211391500Y-55054500D03*
X217741500Y-52514500D03*
M02*
