M48
; DRILL file {KiCad (5.1.6)-1} date 08/09/20 18:55:42
; FORMAT={-:-/ absolute / inch / decimal}
; #@! TF.CreationDate,2020-08-09T18:55:42-07:00
; #@! TF.GenerationSoftware,Kicad,Pcbnew,(5.1.6)-1
; #@! TF.FileFunction,NonPlated,1,2,NPTH
FMAT,2
INCH
T1C0.0472
T2C0.0669
T3C0.1201
T4C0.1575
%
G90
G05
T1
X2.0316Y-3.8136
X2.0316Y-3.8825
X2.3071Y-3.8136
X2.3071Y-3.8825
T2
X6.33Y-4.52
X6.73Y-4.52
X4.7969Y-4.7791
X5.1881Y-4.6959
X8.11Y-4.52
X8.51Y-4.52
X7.1475Y-2.27
X7.5475Y-2.27
X4.6656Y-3.2705
X5.0569Y-3.1873
X7.8975Y-2.2675
X8.2975Y-2.2675
X4.0619Y-4.9341
X4.4531Y-4.8509
X3.3281Y-5.0905
X3.7194Y-5.0073
X8.2725Y-2.2675
X8.6725Y-2.2675
X6.415Y-2.185
X6.815Y-2.185
X3.9319Y-3.428
X4.3231Y-3.3448
X7.6875Y-3.02
X8.0875Y-3.02
X7.2925Y-3.77
X7.6925Y-3.77
X8.8125Y-5.2725
X9.2125Y-5.2725
X3.2006Y-3.583
X3.5919Y-3.4998
X4.8769Y-2.4591
X5.2681Y-2.3759
X6.205Y-2.975
X6.605Y-2.975
X4.2731Y-4.123
X4.6644Y-4.0398
X5.0056Y-3.9655
X5.3969Y-3.8823
X8.6475Y-2.2675
X9.0475Y-2.2675
X5.4006Y-3.1155
X5.7919Y-3.0323
X6.5425Y-3.77
X6.9425Y-3.77
X5.7406Y-3.8105
X6.1319Y-3.7273
X8.5125Y-3.77
X8.9125Y-3.77
X5.6106Y-2.303
X6.0019Y-2.2198
X4.1269Y-5.6916
X4.5181Y-5.6084
X7.08Y-4.52
X7.48Y-4.52
X3.5406Y-4.278
X3.9319Y-4.1948
X5.7181Y-5.408
X6.1094Y-5.3248
X8.625Y-3.02
X9.025Y-3.02
X5.5294Y-4.6216
X5.9206Y-4.5384
X6.9375Y-3.02
X7.3375Y-3.02
X9.1425Y-4.52
X9.5425Y-4.52
X3.4094Y-2.7716
X3.8006Y-2.6884
X4.1444Y-2.6155
X4.5356Y-2.5323
T3
X3.8069Y-5.4778
X4.7235Y-5.283
X8.004Y-1.9919
X8.941Y-1.9919
X8.244Y-3.4944
X9.181Y-3.4944
T4
X3.9317Y-6.0647
X4.3225Y-5.65
X4.8482Y-5.8699
X7.28Y-4.52
X3.7363Y-4.2364
X5.9138Y-5.3664
X8.825Y-3.02
X5.725Y-4.58
X7.1375Y-3.02
X9.3425Y-4.52
X3.605Y-2.73
X4.34Y-2.5739
X6.53Y-4.52
X4.9925Y-4.7375
X8.31Y-4.52
X7.3475Y-2.27
X4.8613Y-3.2289
X8.0975Y-2.2675
X4.2575Y-4.8925
X3.5238Y-5.0489
X8.004Y-2.5919
X8.4725Y-2.2675
X8.941Y-2.5919
X6.615Y-2.185
X4.1275Y-3.3864
X7.8875Y-3.02
X7.4925Y-3.77
X9.0125Y-5.2725
X3.3963Y-3.5414
X5.0725Y-2.4175
X6.405Y-2.975
X4.4688Y-4.0814
X5.2013Y-3.9239
X8.8475Y-2.2675
X5.5963Y-3.0739
X6.7425Y-3.77
X5.9363Y-3.7689
X8.244Y-4.0944
X8.7125Y-3.77
X9.181Y-4.0944
X5.8063Y-2.2614
T0
M30
