G04 #@! TF.GenerationSoftware,KiCad,Pcbnew,(5.1.6)-1*
G04 #@! TF.CreationDate,2020-10-03T18:09:44-07:00*
G04 #@! TF.ProjectId,Alipt-Keyboard-Left,416c6970-742d-44b6-9579-626f6172642d,rev?*
G04 #@! TF.SameCoordinates,Original*
G04 #@! TF.FileFunction,Legend,Top*
G04 #@! TF.FilePolarity,Positive*
%FSLAX46Y46*%
G04 Gerber Fmt 4.6, Leading zero omitted, Abs format (unit mm)*
G04 Created by KiCad (PCBNEW (5.1.6)-1) date 2020-10-03 18:09:44*
%MOMM*%
%LPD*%
G01*
G04 APERTURE LIST*
%ADD10C,0.150000*%
%ADD11C,0.120000*%
G04 APERTURE END LIST*
D10*
X223428315Y-77357745D02*
X225968315Y-77357745D01*
X210728315Y-46877745D02*
X208188315Y-46877745D01*
X208188315Y-46877745D02*
X208188315Y-77357745D01*
X208188315Y-44337745D02*
X208188315Y-77357745D01*
X225968315Y-44337745D02*
X208188315Y-44337745D01*
X208188315Y-77357745D02*
X210728315Y-77357745D01*
X225968315Y-46877745D02*
X223428315Y-46877745D01*
X225968315Y-77357745D02*
X225968315Y-44337745D01*
X223428315Y-46877745D02*
X223428315Y-77357745D01*
X210728315Y-77357745D02*
X210728315Y-46877745D01*
X225968315Y-77357745D02*
X225968315Y-46877745D01*
D11*
X203876500Y-149537000D02*
X204956500Y-149537000D01*
X203876500Y-150587000D02*
X204956500Y-150587000D01*
X204406500Y-149647000D02*
X203876500Y-150557000D01*
X204416500Y-149637000D02*
X204956500Y-150587000D01*
X203406500Y-148507000D02*
X205406500Y-148507000D01*
X204416500Y-148247000D02*
X204416500Y-149527000D01*
X204416500Y-151707000D02*
X204416500Y-150587000D01*
X203406500Y-151497000D02*
X205396500Y-151497000D01*
X205406500Y-148507000D02*
X205396500Y-151497000D01*
X203406500Y-148517000D02*
X203406500Y-151487000D01*
X198956002Y-150430117D02*
X197899602Y-150205573D01*
X199174309Y-149403062D02*
X198117909Y-149178518D01*
X198460454Y-150212328D02*
X199168071Y-149432407D01*
X198448593Y-150220030D02*
X198117909Y-149178518D01*
X199201582Y-151535328D02*
X197245287Y-151119504D01*
X198159596Y-151579655D02*
X198425723Y-150327626D01*
X198878970Y-148195265D02*
X198646109Y-149290790D01*
X199823238Y-148610666D02*
X197876724Y-148196922D01*
X197245287Y-151119504D02*
X197876724Y-148196922D01*
X199203661Y-151525546D02*
X199821159Y-148620448D01*
X178636002Y-145985117D02*
X177579602Y-145760573D01*
X178854309Y-144958062D02*
X177797909Y-144733518D01*
X178140454Y-145767328D02*
X178848071Y-144987407D01*
X178128593Y-145775030D02*
X177797909Y-144733518D01*
X178881582Y-147090328D02*
X176925287Y-146674504D01*
X177839596Y-147134655D02*
X178105723Y-145882626D01*
X178558970Y-143750265D02*
X178326109Y-144845790D01*
X179503238Y-144165666D02*
X177556724Y-143751922D01*
X176925287Y-146674504D02*
X177556724Y-143751922D01*
X178883661Y-147080546D02*
X179501159Y-144175448D01*
X135202002Y-138111117D02*
X134145602Y-137886573D01*
X135420309Y-137084062D02*
X134363909Y-136859518D01*
X134706454Y-137893328D02*
X135414071Y-137113407D01*
X134694593Y-137901030D02*
X134363909Y-136859518D01*
X135447582Y-139216328D02*
X133491287Y-138800504D01*
X134405596Y-139260655D02*
X134671723Y-138008626D01*
X135124970Y-135876265D02*
X134892109Y-136971790D01*
X136069238Y-136291666D02*
X134122724Y-135877922D01*
X133491287Y-138800504D02*
X134122724Y-135877922D01*
X135449661Y-139206546D02*
X136067159Y-136301448D01*
X60156500Y-133038000D02*
X59076500Y-133038000D01*
X60156500Y-131988000D02*
X59076500Y-131988000D01*
X59626500Y-132928000D02*
X60156500Y-132018000D01*
X59616500Y-132938000D02*
X59076500Y-131988000D01*
X60626500Y-134068000D02*
X58626500Y-134068000D01*
X59616500Y-134328000D02*
X59616500Y-133048000D01*
X59616500Y-130868000D02*
X59616500Y-131988000D01*
X60626500Y-131078000D02*
X58636500Y-131078000D01*
X58626500Y-134068000D02*
X58636500Y-131078000D01*
X60626500Y-134058000D02*
X60626500Y-131088000D01*
X194130002Y-129983117D02*
X193073602Y-129758573D01*
X194348309Y-128956062D02*
X193291909Y-128731518D01*
X193634454Y-129765328D02*
X194342071Y-128985407D01*
X193622593Y-129773030D02*
X193291909Y-128731518D01*
X194375582Y-131088328D02*
X192419287Y-130672504D01*
X193333596Y-131132655D02*
X193599723Y-129880626D01*
X194052970Y-127748265D02*
X193820109Y-128843790D01*
X194997238Y-128163666D02*
X193050724Y-127749922D01*
X192419287Y-130672504D02*
X193050724Y-127749922D01*
X194377661Y-131078546D02*
X194995159Y-128173448D01*
X175397502Y-125919117D02*
X174341102Y-125694573D01*
X175615809Y-124892062D02*
X174559409Y-124667518D01*
X174901954Y-125701328D02*
X175609571Y-124921407D01*
X174890093Y-125709030D02*
X174559409Y-124667518D01*
X175643082Y-127024328D02*
X173686787Y-126608504D01*
X174601096Y-127068655D02*
X174867223Y-125816626D01*
X175320470Y-123684265D02*
X175087609Y-124779790D01*
X176264738Y-124099666D02*
X174318224Y-123685922D01*
X173686787Y-126608504D02*
X174318224Y-123685922D01*
X175645161Y-127014546D02*
X176262659Y-124109448D01*
X156792002Y-121664617D02*
X155735602Y-121440073D01*
X157010309Y-120637562D02*
X155953909Y-120413018D01*
X156296454Y-121446828D02*
X157004071Y-120666907D01*
X156284593Y-121454530D02*
X155953909Y-120413018D01*
X157037582Y-122769828D02*
X155081287Y-122354004D01*
X155995596Y-122814155D02*
X156261723Y-121562126D01*
X156714970Y-119429765D02*
X156482109Y-120525290D01*
X157659238Y-119845166D02*
X155712724Y-119431422D01*
X155081287Y-122354004D02*
X155712724Y-119431422D01*
X157039661Y-122760046D02*
X157657159Y-119854948D01*
X138059502Y-117600617D02*
X137003102Y-117376073D01*
X138277809Y-116573562D02*
X137221409Y-116349018D01*
X137563954Y-117382828D02*
X138271571Y-116602907D01*
X137552093Y-117390530D02*
X137221409Y-116349018D01*
X138305082Y-118705828D02*
X136348787Y-118290004D01*
X137263096Y-118750155D02*
X137529223Y-117498126D01*
X137982470Y-115365765D02*
X137749609Y-116461290D01*
X138926738Y-115781166D02*
X136980224Y-115367422D01*
X136348787Y-118290004D02*
X136980224Y-115367422D01*
X138307161Y-118696046D02*
X138924659Y-115790948D01*
X118005000Y-113988000D02*
X116925000Y-113988000D01*
X118005000Y-112938000D02*
X116925000Y-112938000D01*
X117475000Y-113878000D02*
X118005000Y-112968000D01*
X117465000Y-113888000D02*
X116925000Y-112938000D01*
X118475000Y-115018000D02*
X116475000Y-115018000D01*
X117465000Y-115278000D02*
X117465000Y-113998000D01*
X117465000Y-111818000D02*
X117465000Y-112938000D01*
X118475000Y-112028000D02*
X116485000Y-112028000D01*
X116475000Y-115018000D02*
X116485000Y-112028000D01*
X118475000Y-115008000D02*
X118475000Y-112038000D01*
X96415000Y-113988000D02*
X95335000Y-113988000D01*
X96415000Y-112938000D02*
X95335000Y-112938000D01*
X95885000Y-113878000D02*
X96415000Y-112968000D01*
X95875000Y-113888000D02*
X95335000Y-112938000D01*
X96885000Y-115018000D02*
X94885000Y-115018000D01*
X95875000Y-115278000D02*
X95875000Y-113998000D01*
X95875000Y-111818000D02*
X95875000Y-112938000D01*
X96885000Y-112028000D02*
X94895000Y-112028000D01*
X94885000Y-115018000D02*
X94895000Y-112028000D01*
X96885000Y-115008000D02*
X96885000Y-112038000D01*
X56219500Y-92842500D02*
X55139500Y-92842500D01*
X56219500Y-91792500D02*
X55139500Y-91792500D01*
X55689500Y-92732500D02*
X56219500Y-91822500D01*
X55679500Y-92742500D02*
X55139500Y-91792500D01*
X56689500Y-93872500D02*
X54689500Y-93872500D01*
X55679500Y-94132500D02*
X55679500Y-92852500D01*
X55679500Y-90672500D02*
X55679500Y-91792500D01*
X56689500Y-90882500D02*
X54699500Y-90882500D01*
X54689500Y-93872500D02*
X54699500Y-90882500D01*
X56689500Y-93862500D02*
X56689500Y-90892500D01*
X188796002Y-109282117D02*
X187739602Y-109057573D01*
X189014309Y-108255062D02*
X187957909Y-108030518D01*
X188300454Y-109064328D02*
X189008071Y-108284407D01*
X188288593Y-109072030D02*
X187957909Y-108030518D01*
X189041582Y-110387328D02*
X187085287Y-109971504D01*
X187999596Y-110431655D02*
X188265723Y-109179626D01*
X188718970Y-107047265D02*
X188486109Y-108142790D01*
X189663238Y-107462666D02*
X187716724Y-107048922D01*
X187085287Y-109971504D02*
X187716724Y-107048922D01*
X189043661Y-110377546D02*
X189661159Y-107472448D01*
X170190502Y-105218117D02*
X169134102Y-104993573D01*
X170408809Y-104191062D02*
X169352409Y-103966518D01*
X169694954Y-105000328D02*
X170402571Y-104220407D01*
X169683093Y-105008030D02*
X169352409Y-103966518D01*
X170436082Y-106323328D02*
X168479787Y-105907504D01*
X169394096Y-106367655D02*
X169660223Y-105115626D01*
X170113470Y-102983265D02*
X169880609Y-104078790D01*
X171057738Y-103398666D02*
X169111224Y-102984922D01*
X168479787Y-105907504D02*
X169111224Y-102984922D01*
X170438161Y-106313546D02*
X171055659Y-103408448D01*
X151394502Y-101281117D02*
X150338102Y-101056573D01*
X151612809Y-100254062D02*
X150556409Y-100029518D01*
X150898954Y-101063328D02*
X151606571Y-100283407D01*
X150887093Y-101071030D02*
X150556409Y-100029518D01*
X151640082Y-102386328D02*
X149683787Y-101970504D01*
X150598096Y-102430655D02*
X150864223Y-101178626D01*
X151317470Y-99046265D02*
X151084609Y-100141790D01*
X152261738Y-99461666D02*
X150315224Y-99047922D01*
X149683787Y-101970504D02*
X150315224Y-99047922D01*
X151642161Y-102376546D02*
X152259659Y-99471448D01*
X132789002Y-97217117D02*
X131732602Y-96992573D01*
X133007309Y-96190062D02*
X131950909Y-95965518D01*
X132293454Y-96999328D02*
X133001071Y-96219407D01*
X132281593Y-97007030D02*
X131950909Y-95965518D01*
X133034582Y-98322328D02*
X131078287Y-97906504D01*
X131992596Y-98366655D02*
X132258723Y-97114626D01*
X132711970Y-94982265D02*
X132479109Y-96077790D01*
X133656238Y-95397666D02*
X131709724Y-94983922D01*
X131078287Y-97906504D02*
X131709724Y-94983922D01*
X133036661Y-98312546D02*
X133654159Y-95407448D01*
X112734500Y-94938000D02*
X111654500Y-94938000D01*
X112734500Y-93888000D02*
X111654500Y-93888000D01*
X112204500Y-94828000D02*
X112734500Y-93918000D01*
X112194500Y-94838000D02*
X111654500Y-93888000D01*
X113204500Y-95968000D02*
X111204500Y-95968000D01*
X112194500Y-96228000D02*
X112194500Y-94948000D01*
X112194500Y-92768000D02*
X112194500Y-93888000D01*
X113204500Y-92978000D02*
X111214500Y-92978000D01*
X111204500Y-95968000D02*
X111214500Y-92978000D01*
X113204500Y-95958000D02*
X113204500Y-92988000D01*
X85810500Y-94938000D02*
X84730500Y-94938000D01*
X85810500Y-93888000D02*
X84730500Y-93888000D01*
X85280500Y-94828000D02*
X85810500Y-93918000D01*
X85270500Y-94838000D02*
X84730500Y-93888000D01*
X86280500Y-95968000D02*
X84280500Y-95968000D01*
X85270500Y-96228000D02*
X85270500Y-94948000D01*
X85270500Y-92768000D02*
X85270500Y-93888000D01*
X86280500Y-92978000D02*
X84290500Y-92978000D01*
X84280500Y-95968000D02*
X84290500Y-92978000D01*
X86280500Y-95958000D02*
X86280500Y-92988000D01*
X60537500Y-73665500D02*
X59457500Y-73665500D01*
X60537500Y-72615500D02*
X59457500Y-72615500D01*
X60007500Y-73555500D02*
X60537500Y-72645500D01*
X59997500Y-73565500D02*
X59457500Y-72615500D01*
X61007500Y-74695500D02*
X59007500Y-74695500D01*
X59997500Y-74955500D02*
X59997500Y-73675500D01*
X59997500Y-71495500D02*
X59997500Y-72615500D01*
X61007500Y-71705500D02*
X59017500Y-71705500D01*
X59007500Y-74695500D02*
X59017500Y-71705500D01*
X61007500Y-74685500D02*
X61007500Y-71715500D01*
X187970502Y-89851117D02*
X186914102Y-89626573D01*
X188188809Y-88824062D02*
X187132409Y-88599518D01*
X187474954Y-89633328D02*
X188182571Y-88853407D01*
X187463093Y-89641030D02*
X187132409Y-88599518D01*
X188216082Y-90956328D02*
X186259787Y-90540504D01*
X187174096Y-91000655D02*
X187440223Y-89748626D01*
X187893470Y-87616265D02*
X187660609Y-88711790D01*
X188837738Y-88031666D02*
X186891224Y-87617922D01*
X186259787Y-90540504D02*
X186891224Y-87617922D01*
X188218161Y-90946546D02*
X188835659Y-88041448D01*
X169301502Y-85723617D02*
X168245102Y-85499073D01*
X169519809Y-84696562D02*
X168463409Y-84472018D01*
X168805954Y-85505828D02*
X169513571Y-84725907D01*
X168794093Y-85513530D02*
X168463409Y-84472018D01*
X169547082Y-86828828D02*
X167590787Y-86413004D01*
X168505096Y-86873155D02*
X168771223Y-85621126D01*
X169224470Y-83488765D02*
X168991609Y-84584290D01*
X170168738Y-83904166D02*
X168222224Y-83490422D01*
X167590787Y-86413004D02*
X168222224Y-83490422D01*
X169549161Y-86819046D02*
X170166659Y-83913948D01*
X150622454Y-81758864D02*
X149566054Y-81534320D01*
X150840761Y-80731809D02*
X149784361Y-80507265D01*
X150126906Y-81541075D02*
X150834523Y-80761154D01*
X150115045Y-81548777D02*
X149784361Y-80507265D01*
X150868034Y-82864075D02*
X148911739Y-82448251D01*
X149826048Y-82908402D02*
X150092175Y-81656373D01*
X150545422Y-79524012D02*
X150312561Y-80619537D01*
X151489690Y-79939413D02*
X149543176Y-79525669D01*
X148911739Y-82448251D02*
X149543176Y-79525669D01*
X150870113Y-82854293D02*
X151487611Y-79949195D01*
X132090502Y-77722617D02*
X131034102Y-77498073D01*
X132308809Y-76695562D02*
X131252409Y-76471018D01*
X131594954Y-77504828D02*
X132302571Y-76724907D01*
X131583093Y-77512530D02*
X131252409Y-76471018D01*
X132336082Y-78827828D02*
X130379787Y-78412004D01*
X131294096Y-78872155D02*
X131560223Y-77620126D01*
X132013470Y-75487765D02*
X131780609Y-76583290D01*
X132957738Y-75903166D02*
X131011224Y-75489422D01*
X130379787Y-78412004D02*
X131011224Y-75489422D01*
X132338161Y-78818046D02*
X132955659Y-75912948D01*
X112442500Y-76844500D02*
X112442500Y-73874500D01*
X110442500Y-76854500D02*
X110452500Y-73864500D01*
X112442500Y-73864500D02*
X110452500Y-73864500D01*
X111432500Y-73654500D02*
X111432500Y-74774500D01*
X111432500Y-77114500D02*
X111432500Y-75834500D01*
X112442500Y-76854500D02*
X110442500Y-76854500D01*
X111432500Y-75724500D02*
X110892500Y-74774500D01*
X111442500Y-75714500D02*
X111972500Y-74804500D01*
X111972500Y-74774500D02*
X110892500Y-74774500D01*
X111972500Y-75824500D02*
X110892500Y-75824500D01*
X88541000Y-75824500D02*
X87461000Y-75824500D01*
X88541000Y-74774500D02*
X87461000Y-74774500D01*
X88011000Y-75714500D02*
X88541000Y-74804500D01*
X88001000Y-75724500D02*
X87461000Y-74774500D01*
X89011000Y-76854500D02*
X87011000Y-76854500D01*
X88001000Y-77114500D02*
X88001000Y-75834500D01*
X88001000Y-73654500D02*
X88001000Y-74774500D01*
X89011000Y-73864500D02*
X87021000Y-73864500D01*
X87011000Y-76854500D02*
X87021000Y-73864500D01*
X89011000Y-76844500D02*
X89011000Y-73874500D01*
X64474500Y-54679000D02*
X63394500Y-54679000D01*
X64474500Y-53629000D02*
X63394500Y-53629000D01*
X63944500Y-54569000D02*
X64474500Y-53659000D01*
X63934500Y-54579000D02*
X63394500Y-53629000D01*
X64944500Y-55709000D02*
X62944500Y-55709000D01*
X63934500Y-55969000D02*
X63934500Y-54689000D01*
X63934500Y-52509000D02*
X63934500Y-53629000D01*
X64944500Y-52719000D02*
X62954500Y-52719000D01*
X62944500Y-55709000D02*
X62954500Y-52719000D01*
X64944500Y-55699000D02*
X64944500Y-52729000D01*
X201178502Y-73023617D02*
X200122102Y-72799073D01*
X201396809Y-71996562D02*
X200340409Y-71772018D01*
X200682954Y-72805828D02*
X201390571Y-72025907D01*
X200671093Y-72813530D02*
X200340409Y-71772018D01*
X201424082Y-74128828D02*
X199467787Y-73713004D01*
X200382096Y-74173155D02*
X200648223Y-72921126D01*
X201101470Y-70788765D02*
X200868609Y-71884290D01*
X202045738Y-71204166D02*
X200099224Y-70790422D01*
X199467787Y-73713004D02*
X200099224Y-70790422D01*
X201426161Y-74119046D02*
X202043659Y-71213948D01*
X182573002Y-68832617D02*
X181516602Y-68608073D01*
X182791309Y-67805562D02*
X181734909Y-67581018D01*
X182077454Y-68614828D02*
X182785071Y-67834907D01*
X182065593Y-68622530D02*
X181734909Y-67581018D01*
X182818582Y-69937828D02*
X180862287Y-69522004D01*
X181776596Y-69982155D02*
X182042723Y-68730126D01*
X182495970Y-66597765D02*
X182263109Y-67693290D01*
X183440238Y-67013166D02*
X181493724Y-66599422D01*
X180862287Y-69522004D02*
X181493724Y-66599422D01*
X182820661Y-69928046D02*
X183438159Y-67022948D01*
X164031002Y-64705117D02*
X162974602Y-64480573D01*
X164249309Y-63678062D02*
X163192909Y-63453518D01*
X163535454Y-64487328D02*
X164243071Y-63707407D01*
X163523593Y-64495030D02*
X163192909Y-63453518D01*
X164276582Y-65810328D02*
X162320287Y-65394504D01*
X163234596Y-65854655D02*
X163500723Y-64602626D01*
X163953970Y-62470265D02*
X163721109Y-63565790D01*
X164898238Y-62885666D02*
X162951724Y-62471922D01*
X162320287Y-65394504D02*
X162951724Y-62471922D01*
X164278661Y-65800546D02*
X164896159Y-62895448D01*
X145425502Y-60577617D02*
X144369102Y-60353073D01*
X145643809Y-59550562D02*
X144587409Y-59326018D01*
X144929954Y-60359828D02*
X145637571Y-59579907D01*
X144918093Y-60367530D02*
X144587409Y-59326018D01*
X145671082Y-61682828D02*
X143714787Y-61267004D01*
X144629096Y-61727155D02*
X144895223Y-60475126D01*
X145348470Y-58342765D02*
X145115609Y-59438290D01*
X146292738Y-58758166D02*
X144346224Y-58344422D01*
X143714787Y-61267004D02*
X144346224Y-58344422D01*
X145673161Y-61673046D02*
X146290659Y-58767948D01*
X124926500Y-54679000D02*
X123846500Y-54679000D01*
X124926500Y-53629000D02*
X123846500Y-53629000D01*
X124396500Y-54569000D02*
X124926500Y-53659000D01*
X124386500Y-54579000D02*
X123846500Y-53629000D01*
X125396500Y-55709000D02*
X123396500Y-55709000D01*
X124386500Y-55969000D02*
X124386500Y-54689000D01*
X124386500Y-52509000D02*
X124386500Y-53629000D01*
X125396500Y-52719000D02*
X123406500Y-52719000D01*
X123396500Y-55709000D02*
X123406500Y-52719000D01*
X125396500Y-55699000D02*
X125396500Y-52729000D01*
X106257500Y-56901500D02*
X105177500Y-56901500D01*
X106257500Y-55851500D02*
X105177500Y-55851500D01*
X105727500Y-56791500D02*
X106257500Y-55881500D01*
X105717500Y-56801500D02*
X105177500Y-55851500D01*
X106727500Y-57931500D02*
X104727500Y-57931500D01*
X105717500Y-58191500D02*
X105717500Y-56911500D01*
X105717500Y-54731500D02*
X105717500Y-55851500D01*
X106727500Y-54941500D02*
X104737500Y-54941500D01*
X104727500Y-57931500D02*
X104737500Y-54941500D01*
X106727500Y-57921500D02*
X106727500Y-54951500D01*
X87271000Y-56901500D02*
X86191000Y-56901500D01*
X87271000Y-55851500D02*
X86191000Y-55851500D01*
X86741000Y-56791500D02*
X87271000Y-55881500D01*
X86731000Y-56801500D02*
X86191000Y-55851500D01*
X87741000Y-57931500D02*
X85741000Y-57931500D01*
X86731000Y-58191500D02*
X86731000Y-56911500D01*
X86731000Y-54731500D02*
X86731000Y-55851500D01*
X87741000Y-54941500D02*
X85751000Y-54941500D01*
X85741000Y-57931500D02*
X85751000Y-54941500D01*
X87741000Y-57921500D02*
X87741000Y-54951500D01*
D10*
X204776500Y-86091500D02*
X206576500Y-86091500D01*
X204776500Y-80991500D02*
X206576500Y-80991500D01*
X206576500Y-80991500D02*
X206576500Y-82791500D01*
X206576500Y-82791500D02*
X204776500Y-82791500D01*
X204776500Y-82791500D02*
X204776500Y-80991500D01*
X204776500Y-83491500D02*
X206576500Y-83491500D01*
X206576500Y-85291500D02*
X204776500Y-85291500D01*
X206576500Y-83491500D02*
X206576500Y-85291500D01*
X204776500Y-83491500D02*
X204776500Y-85291500D01*
X206576500Y-86091500D02*
X206576500Y-87891500D01*
X206576500Y-87891500D02*
X204776500Y-87891500D01*
X204776500Y-86091500D02*
X204776500Y-87891500D01*
X199057000Y-55180000D02*
X199057000Y-43180000D01*
X205057000Y-55180000D02*
X199057000Y-55180000D01*
X205057000Y-43180000D02*
X205057000Y-55180000D01*
X199057000Y-43180000D02*
X205057000Y-43180000D01*
X212090000Y-81343500D02*
X222250000Y-81343500D01*
X212090000Y-78803500D02*
X222250000Y-78803500D01*
X222250000Y-78803500D02*
X222250000Y-81343500D01*
X212090000Y-81343500D02*
X212090000Y-78803500D01*
X203565008Y-59356500D02*
X203565008Y-57356500D01*
X201565008Y-59356500D02*
X203565008Y-59356500D01*
X201565008Y-57356500D02*
X201565008Y-59356500D01*
X203565008Y-57356500D02*
X201565008Y-57356500D01*
X200644000Y-57356502D02*
X198644000Y-57356502D01*
X198644000Y-57356502D02*
X198644000Y-59356502D01*
X198644000Y-59356502D02*
X200644000Y-59356502D01*
X200644000Y-59356502D02*
X200644000Y-57356502D01*
X207327457Y-83271319D02*
X207327457Y-86273599D01*
X209328977Y-83271319D02*
X207327457Y-83271319D01*
X209328977Y-86273599D02*
X209328977Y-83271319D01*
X207327457Y-86273599D02*
X209328977Y-86273599D01*
X209826191Y-86273603D02*
X211827711Y-86273603D01*
X211827711Y-86273603D02*
X211827711Y-83271323D01*
X211827711Y-83271323D02*
X209826191Y-83271323D01*
X209826191Y-83271323D02*
X209826191Y-86273603D01*
D11*
X218138000Y-150050500D02*
G75*
G03*
X218138000Y-150050500I-3000000J0D01*
G01*
X213138000Y-155950500D02*
X209038000Y-155950500D01*
X209038000Y-144150500D02*
X213138000Y-144150500D01*
X217138000Y-144150500D02*
X221238000Y-144150500D01*
X217138000Y-155950500D02*
X221238000Y-155950500D01*
X221238000Y-155950500D02*
X221238000Y-144150500D01*
X209038000Y-155950500D02*
X209038000Y-153550500D01*
X209038000Y-151350500D02*
X209038000Y-148750500D01*
X209038000Y-146550500D02*
X209038000Y-144150500D01*
X215138000Y-150550500D02*
X215138000Y-149550500D01*
X215638000Y-150050500D02*
X214638000Y-150050500D01*
X220999000Y-86439000D02*
X220999000Y-84939000D01*
X219749000Y-82439000D02*
X215249000Y-82439000D01*
X213999000Y-84939000D02*
X213999000Y-86439000D01*
X215249000Y-88939000D02*
X219749000Y-88939000D01*
D10*
X204768404Y-155918428D02*
X203968404Y-155918428D01*
X203968404Y-155727952D01*
X204006500Y-155613666D01*
X204082690Y-155537476D01*
X204158880Y-155499380D01*
X204311261Y-155461285D01*
X204425547Y-155461285D01*
X204577928Y-155499380D01*
X204654119Y-155537476D01*
X204730309Y-155613666D01*
X204768404Y-155727952D01*
X204768404Y-155918428D01*
X203968404Y-155194619D02*
X203968404Y-154699380D01*
X204273166Y-154966047D01*
X204273166Y-154851761D01*
X204311261Y-154775571D01*
X204349357Y-154737476D01*
X204425547Y-154699380D01*
X204616023Y-154699380D01*
X204692214Y-154737476D01*
X204730309Y-154775571D01*
X204768404Y-154851761D01*
X204768404Y-155080333D01*
X204730309Y-155156523D01*
X204692214Y-155194619D01*
X204044595Y-154394619D02*
X204006500Y-154356523D01*
X203968404Y-154280333D01*
X203968404Y-154089857D01*
X204006500Y-154013666D01*
X204044595Y-153975571D01*
X204120785Y-153937476D01*
X204196976Y-153937476D01*
X204311261Y-153975571D01*
X204768404Y-154432714D01*
X204768404Y-153937476D01*
X199714410Y-146053590D02*
X198931892Y-145887261D01*
X198971495Y-145700947D01*
X199032519Y-145597079D01*
X199122885Y-145538395D01*
X199205331Y-145516973D01*
X199362303Y-145511392D01*
X199474091Y-145535153D01*
X199615221Y-145604098D01*
X199681827Y-145657201D01*
X199740511Y-145747568D01*
X199754013Y-145867276D01*
X199714410Y-146053590D01*
X199082381Y-145179268D02*
X199185347Y-144694852D01*
X199428006Y-145019055D01*
X199451767Y-144907267D01*
X199504871Y-144840662D01*
X199550054Y-144811320D01*
X199632500Y-144789898D01*
X199818814Y-144829500D01*
X199885419Y-144882604D01*
X199914761Y-144927787D01*
X199936183Y-145010233D01*
X199888660Y-145233809D01*
X199835557Y-145300414D01*
X199790373Y-145329757D01*
X200126274Y-144115926D02*
X200031228Y-144563080D01*
X200078751Y-144339503D02*
X199296233Y-144173174D01*
X199392180Y-144271461D01*
X199450865Y-144361827D01*
X199472287Y-144444273D01*
X179394410Y-141608590D02*
X178611892Y-141442261D01*
X178651495Y-141255947D01*
X178712519Y-141152079D01*
X178802885Y-141093395D01*
X178885331Y-141071973D01*
X179042303Y-141066392D01*
X179154091Y-141090153D01*
X179295221Y-141159098D01*
X179361827Y-141212201D01*
X179420511Y-141302568D01*
X179434013Y-141422276D01*
X179394410Y-141608590D01*
X178762381Y-140734268D02*
X178865347Y-140249852D01*
X179108006Y-140574055D01*
X179131767Y-140462267D01*
X179184871Y-140395662D01*
X179230054Y-140366320D01*
X179312500Y-140344898D01*
X179498814Y-140384500D01*
X179565419Y-140437604D01*
X179594761Y-140482787D01*
X179616183Y-140565233D01*
X179568660Y-140788809D01*
X179515557Y-140855414D01*
X179470373Y-140884757D01*
X178968312Y-139765436D02*
X178984153Y-139690911D01*
X179037257Y-139624306D01*
X179082440Y-139594964D01*
X179164886Y-139573542D01*
X179321858Y-139567961D01*
X179508171Y-139607563D01*
X179649302Y-139676507D01*
X179715907Y-139729611D01*
X179745249Y-139774794D01*
X179766671Y-139857240D01*
X179750830Y-139931766D01*
X179697727Y-139998371D01*
X179652544Y-140027713D01*
X179570098Y-140049135D01*
X179413126Y-140054716D01*
X179226812Y-140015114D01*
X179085682Y-139946169D01*
X179019077Y-139893066D01*
X178989734Y-139847882D01*
X178968312Y-139765436D01*
X135960410Y-133734590D02*
X135177892Y-133568261D01*
X135217495Y-133381947D01*
X135278519Y-133278079D01*
X135368885Y-133219395D01*
X135451331Y-133197973D01*
X135608303Y-133192392D01*
X135720091Y-133216153D01*
X135861221Y-133285098D01*
X135927827Y-133338201D01*
X135986511Y-133428568D01*
X136000013Y-133548276D01*
X135960410Y-133734590D01*
X135410827Y-132838846D02*
X135381484Y-132793663D01*
X135360063Y-132711217D01*
X135399665Y-132524903D01*
X135452768Y-132458298D01*
X135497952Y-132428956D01*
X135580398Y-132407534D01*
X135654923Y-132423375D01*
X135758791Y-132484399D01*
X136110899Y-133026598D01*
X136213865Y-132542182D01*
X136293069Y-132169554D02*
X136324751Y-132020503D01*
X136303329Y-131938057D01*
X136273987Y-131892874D01*
X136178039Y-131794587D01*
X136036909Y-131725642D01*
X135738807Y-131662279D01*
X135656361Y-131683701D01*
X135611177Y-131713043D01*
X135558074Y-131779648D01*
X135526392Y-131928699D01*
X135547814Y-132011145D01*
X135577156Y-132056328D01*
X135643761Y-132109432D01*
X135830075Y-132149034D01*
X135912521Y-132127612D01*
X135957704Y-132098270D01*
X136010808Y-132031665D01*
X136042490Y-131882614D01*
X136021068Y-131800168D01*
X135991725Y-131754985D01*
X135925120Y-131701881D01*
X59988404Y-128599428D02*
X59188404Y-128599428D01*
X59188404Y-128408952D01*
X59226500Y-128294666D01*
X59302690Y-128218476D01*
X59378880Y-128180380D01*
X59531261Y-128142285D01*
X59645547Y-128142285D01*
X59797928Y-128180380D01*
X59874119Y-128218476D01*
X59950309Y-128294666D01*
X59988404Y-128408952D01*
X59988404Y-128599428D01*
X59264595Y-127837523D02*
X59226500Y-127799428D01*
X59188404Y-127723238D01*
X59188404Y-127532761D01*
X59226500Y-127456571D01*
X59264595Y-127418476D01*
X59340785Y-127380380D01*
X59416976Y-127380380D01*
X59531261Y-127418476D01*
X59988404Y-127875619D01*
X59988404Y-127380380D01*
X59531261Y-126923238D02*
X59493166Y-126999428D01*
X59455071Y-127037523D01*
X59378880Y-127075619D01*
X59340785Y-127075619D01*
X59264595Y-127037523D01*
X59226500Y-126999428D01*
X59188404Y-126923238D01*
X59188404Y-126770857D01*
X59226500Y-126694666D01*
X59264595Y-126656571D01*
X59340785Y-126618476D01*
X59378880Y-126618476D01*
X59455071Y-126656571D01*
X59493166Y-126694666D01*
X59531261Y-126770857D01*
X59531261Y-126923238D01*
X59569357Y-126999428D01*
X59607452Y-127037523D01*
X59683642Y-127075619D01*
X59836023Y-127075619D01*
X59912214Y-127037523D01*
X59950309Y-126999428D01*
X59988404Y-126923238D01*
X59988404Y-126770857D01*
X59950309Y-126694666D01*
X59912214Y-126656571D01*
X59836023Y-126618476D01*
X59683642Y-126618476D01*
X59607452Y-126656571D01*
X59569357Y-126694666D01*
X59531261Y-126770857D01*
X194888410Y-125606590D02*
X194105892Y-125440261D01*
X194145495Y-125253947D01*
X194206519Y-125150079D01*
X194296885Y-125091395D01*
X194379331Y-125069973D01*
X194536303Y-125064392D01*
X194648091Y-125088153D01*
X194789221Y-125157098D01*
X194855827Y-125210201D01*
X194914511Y-125300568D01*
X194928013Y-125420276D01*
X194888410Y-125606590D01*
X194338827Y-124710846D02*
X194309484Y-124665663D01*
X194288063Y-124583217D01*
X194327665Y-124396903D01*
X194380768Y-124330298D01*
X194425952Y-124300956D01*
X194508398Y-124279534D01*
X194582923Y-124295375D01*
X194686791Y-124356399D01*
X195038899Y-124898598D01*
X195141865Y-124414182D01*
X194414790Y-123987013D02*
X194525676Y-123465334D01*
X195236910Y-123967029D01*
X176155910Y-121542590D02*
X175373392Y-121376261D01*
X175412995Y-121189947D01*
X175474019Y-121086079D01*
X175564385Y-121027395D01*
X175646831Y-121005973D01*
X175803803Y-121000392D01*
X175915591Y-121024153D01*
X176056721Y-121093098D01*
X176123327Y-121146201D01*
X176182011Y-121236568D01*
X176195513Y-121356276D01*
X176155910Y-121542590D01*
X175606327Y-120646846D02*
X175576984Y-120601663D01*
X175555563Y-120519217D01*
X175595165Y-120332903D01*
X175648268Y-120266298D01*
X175693452Y-120236956D01*
X175775898Y-120215534D01*
X175850423Y-120231375D01*
X175954291Y-120292399D01*
X176306399Y-120834598D01*
X176409365Y-120350182D01*
X175769415Y-119513123D02*
X175737733Y-119662174D01*
X175759155Y-119744620D01*
X175788497Y-119789803D01*
X175884444Y-119888090D01*
X176025575Y-119957034D01*
X176323677Y-120020398D01*
X176406123Y-119998976D01*
X176451306Y-119969634D01*
X176504410Y-119903029D01*
X176536092Y-119753978D01*
X176514670Y-119671532D01*
X176485328Y-119626348D01*
X176418723Y-119573245D01*
X176232409Y-119533642D01*
X176149963Y-119555064D01*
X176104779Y-119584407D01*
X176051676Y-119651012D01*
X176019994Y-119800063D01*
X176041416Y-119882509D01*
X176070758Y-119927692D01*
X176137363Y-119980796D01*
X157550410Y-117288090D02*
X156767892Y-117121761D01*
X156807495Y-116935447D01*
X156868519Y-116831579D01*
X156958885Y-116772895D01*
X157041331Y-116751473D01*
X157198303Y-116745892D01*
X157310091Y-116769653D01*
X157451221Y-116838598D01*
X157517827Y-116891701D01*
X157576511Y-116982068D01*
X157590013Y-117101776D01*
X157550410Y-117288090D01*
X157000827Y-116392346D02*
X156971484Y-116347163D01*
X156950063Y-116264717D01*
X156989665Y-116078403D01*
X157042768Y-116011798D01*
X157087952Y-115982456D01*
X157170398Y-115961034D01*
X157244923Y-115976875D01*
X157348791Y-116037899D01*
X157700899Y-116580098D01*
X157803865Y-116095682D01*
X157171835Y-115221360D02*
X157092631Y-115593988D01*
X157457338Y-115710455D01*
X157427995Y-115665272D01*
X157406574Y-115582826D01*
X157446176Y-115396512D01*
X157499279Y-115329907D01*
X157544463Y-115300564D01*
X157626909Y-115279142D01*
X157813223Y-115318745D01*
X157879828Y-115371848D01*
X157909170Y-115417032D01*
X157930592Y-115499478D01*
X157890990Y-115685791D01*
X157837886Y-115752396D01*
X157792703Y-115781739D01*
X138817910Y-113224090D02*
X138035392Y-113057761D01*
X138074995Y-112871447D01*
X138136019Y-112767579D01*
X138226385Y-112708895D01*
X138308831Y-112687473D01*
X138465803Y-112681892D01*
X138577591Y-112705653D01*
X138718721Y-112774598D01*
X138785327Y-112827701D01*
X138844011Y-112918068D01*
X138857513Y-113037776D01*
X138817910Y-113224090D01*
X138268327Y-112328346D02*
X138238984Y-112283163D01*
X138217563Y-112200717D01*
X138257165Y-112014403D01*
X138310268Y-111947798D01*
X138355452Y-111918456D01*
X138437898Y-111897034D01*
X138512423Y-111912875D01*
X138616291Y-111973899D01*
X138968399Y-112516098D01*
X139071365Y-112031682D01*
X138692254Y-111250066D02*
X139213933Y-111360952D01*
X138354550Y-111373016D02*
X138873889Y-111678137D01*
X138976855Y-111193721D01*
X117836904Y-109549428D02*
X117036904Y-109549428D01*
X117036904Y-109358952D01*
X117075000Y-109244666D01*
X117151190Y-109168476D01*
X117227380Y-109130380D01*
X117379761Y-109092285D01*
X117494047Y-109092285D01*
X117646428Y-109130380D01*
X117722619Y-109168476D01*
X117798809Y-109244666D01*
X117836904Y-109358952D01*
X117836904Y-109549428D01*
X117113095Y-108787523D02*
X117075000Y-108749428D01*
X117036904Y-108673238D01*
X117036904Y-108482761D01*
X117075000Y-108406571D01*
X117113095Y-108368476D01*
X117189285Y-108330380D01*
X117265476Y-108330380D01*
X117379761Y-108368476D01*
X117836904Y-108825619D01*
X117836904Y-108330380D01*
X117036904Y-108063714D02*
X117036904Y-107568476D01*
X117341666Y-107835142D01*
X117341666Y-107720857D01*
X117379761Y-107644666D01*
X117417857Y-107606571D01*
X117494047Y-107568476D01*
X117684523Y-107568476D01*
X117760714Y-107606571D01*
X117798809Y-107644666D01*
X117836904Y-107720857D01*
X117836904Y-107949428D01*
X117798809Y-108025619D01*
X117760714Y-108063714D01*
X96246904Y-109549428D02*
X95446904Y-109549428D01*
X95446904Y-109358952D01*
X95485000Y-109244666D01*
X95561190Y-109168476D01*
X95637380Y-109130380D01*
X95789761Y-109092285D01*
X95904047Y-109092285D01*
X96056428Y-109130380D01*
X96132619Y-109168476D01*
X96208809Y-109244666D01*
X96246904Y-109358952D01*
X96246904Y-109549428D01*
X95523095Y-108787523D02*
X95485000Y-108749428D01*
X95446904Y-108673238D01*
X95446904Y-108482761D01*
X95485000Y-108406571D01*
X95523095Y-108368476D01*
X95599285Y-108330380D01*
X95675476Y-108330380D01*
X95789761Y-108368476D01*
X96246904Y-108825619D01*
X96246904Y-108330380D01*
X95523095Y-108025619D02*
X95485000Y-107987523D01*
X95446904Y-107911333D01*
X95446904Y-107720857D01*
X95485000Y-107644666D01*
X95523095Y-107606571D01*
X95599285Y-107568476D01*
X95675476Y-107568476D01*
X95789761Y-107606571D01*
X96246904Y-108063714D01*
X96246904Y-107568476D01*
X56051404Y-88403928D02*
X55251404Y-88403928D01*
X55251404Y-88213452D01*
X55289500Y-88099166D01*
X55365690Y-88022976D01*
X55441880Y-87984880D01*
X55594261Y-87946785D01*
X55708547Y-87946785D01*
X55860928Y-87984880D01*
X55937119Y-88022976D01*
X56013309Y-88099166D01*
X56051404Y-88213452D01*
X56051404Y-88403928D01*
X55327595Y-87642023D02*
X55289500Y-87603928D01*
X55251404Y-87527738D01*
X55251404Y-87337261D01*
X55289500Y-87261071D01*
X55327595Y-87222976D01*
X55403785Y-87184880D01*
X55479976Y-87184880D01*
X55594261Y-87222976D01*
X56051404Y-87680119D01*
X56051404Y-87184880D01*
X56051404Y-86422976D02*
X56051404Y-86880119D01*
X56051404Y-86651547D02*
X55251404Y-86651547D01*
X55365690Y-86727738D01*
X55441880Y-86803928D01*
X55479976Y-86880119D01*
X189554410Y-104905590D02*
X188771892Y-104739261D01*
X188811495Y-104552947D01*
X188872519Y-104449079D01*
X188962885Y-104390395D01*
X189045331Y-104368973D01*
X189202303Y-104363392D01*
X189314091Y-104387153D01*
X189455221Y-104456098D01*
X189521827Y-104509201D01*
X189580511Y-104599568D01*
X189594013Y-104719276D01*
X189554410Y-104905590D01*
X189004827Y-104009846D02*
X188975484Y-103964663D01*
X188954063Y-103882217D01*
X188993665Y-103695903D01*
X189046768Y-103629298D01*
X189091952Y-103599956D01*
X189174398Y-103578534D01*
X189248923Y-103594375D01*
X189352791Y-103655399D01*
X189704899Y-104197598D01*
X189807865Y-103713182D01*
X189128312Y-103062436D02*
X189144153Y-102987911D01*
X189197257Y-102921306D01*
X189242440Y-102891964D01*
X189324886Y-102870542D01*
X189481858Y-102864961D01*
X189668171Y-102904563D01*
X189809302Y-102973507D01*
X189875907Y-103026611D01*
X189905249Y-103071794D01*
X189926671Y-103154240D01*
X189910830Y-103228766D01*
X189857727Y-103295371D01*
X189812544Y-103324713D01*
X189730098Y-103346135D01*
X189573126Y-103351716D01*
X189386812Y-103312114D01*
X189245682Y-103243169D01*
X189179077Y-103190066D01*
X189149734Y-103144882D01*
X189128312Y-103062436D01*
X170948910Y-100841590D02*
X170166392Y-100675261D01*
X170205995Y-100488947D01*
X170267019Y-100385079D01*
X170357385Y-100326395D01*
X170439831Y-100304973D01*
X170596803Y-100299392D01*
X170708591Y-100323153D01*
X170849721Y-100392098D01*
X170916327Y-100445201D01*
X170975011Y-100535568D01*
X170988513Y-100655276D01*
X170948910Y-100841590D01*
X171202365Y-99649182D02*
X171107319Y-100096335D01*
X171154842Y-99872758D02*
X170372324Y-99706429D01*
X170468271Y-99804716D01*
X170526956Y-99895082D01*
X170548378Y-99977528D01*
X171281569Y-99276554D02*
X171313251Y-99127503D01*
X171291829Y-99045057D01*
X171262487Y-98999874D01*
X171166539Y-98901587D01*
X171025409Y-98832642D01*
X170727307Y-98769279D01*
X170644861Y-98790701D01*
X170599677Y-98820043D01*
X170546574Y-98886648D01*
X170514892Y-99035699D01*
X170536314Y-99118145D01*
X170565656Y-99163328D01*
X170632261Y-99216432D01*
X170818575Y-99256034D01*
X170901021Y-99234612D01*
X170946204Y-99205270D01*
X170999308Y-99138665D01*
X171030990Y-98989614D01*
X171009568Y-98907168D01*
X170980225Y-98861985D01*
X170913620Y-98808881D01*
X152152910Y-96904590D02*
X151370392Y-96738261D01*
X151409995Y-96551947D01*
X151471019Y-96448079D01*
X151561385Y-96389395D01*
X151643831Y-96367973D01*
X151800803Y-96362392D01*
X151912591Y-96386153D01*
X152053721Y-96455098D01*
X152120327Y-96508201D01*
X152179011Y-96598568D01*
X152192513Y-96718276D01*
X152152910Y-96904590D01*
X152406365Y-95712182D02*
X152311319Y-96159335D01*
X152358842Y-95935758D02*
X151576324Y-95769429D01*
X151672271Y-95867716D01*
X151730956Y-95958082D01*
X151752378Y-96040528D01*
X152054257Y-95169983D02*
X152001153Y-95236588D01*
X151955970Y-95265931D01*
X151873524Y-95287353D01*
X151836261Y-95279432D01*
X151769656Y-95226328D01*
X151740314Y-95181145D01*
X151718892Y-95098699D01*
X151750574Y-94949648D01*
X151803677Y-94883043D01*
X151848861Y-94853701D01*
X151931307Y-94832279D01*
X151968569Y-94840199D01*
X152035174Y-94893303D01*
X152064517Y-94938486D01*
X152085939Y-95020932D01*
X152054257Y-95169983D01*
X152075679Y-95252429D01*
X152105021Y-95297612D01*
X152171626Y-95350716D01*
X152320677Y-95382398D01*
X152403123Y-95360976D01*
X152448306Y-95331634D01*
X152501410Y-95265029D01*
X152533092Y-95115978D01*
X152511670Y-95033532D01*
X152482328Y-94988348D01*
X152415723Y-94935245D01*
X152266671Y-94903563D01*
X152184225Y-94924985D01*
X152139042Y-94954327D01*
X152085939Y-95020932D01*
X133547410Y-92840590D02*
X132764892Y-92674261D01*
X132804495Y-92487947D01*
X132865519Y-92384079D01*
X132955885Y-92325395D01*
X133038331Y-92303973D01*
X133195303Y-92298392D01*
X133307091Y-92322153D01*
X133448221Y-92391098D01*
X133514827Y-92444201D01*
X133573511Y-92534568D01*
X133587013Y-92654276D01*
X133547410Y-92840590D01*
X133800865Y-91648182D02*
X133705819Y-92095335D01*
X133753342Y-91871758D02*
X132970824Y-91705429D01*
X133066771Y-91803716D01*
X133125456Y-91894082D01*
X133146878Y-91976528D01*
X133073790Y-91221013D02*
X133184676Y-90699334D01*
X133895910Y-91201029D01*
X112566404Y-90499428D02*
X111766404Y-90499428D01*
X111766404Y-90308952D01*
X111804500Y-90194666D01*
X111880690Y-90118476D01*
X111956880Y-90080380D01*
X112109261Y-90042285D01*
X112223547Y-90042285D01*
X112375928Y-90080380D01*
X112452119Y-90118476D01*
X112528309Y-90194666D01*
X112566404Y-90308952D01*
X112566404Y-90499428D01*
X112566404Y-89280380D02*
X112566404Y-89737523D01*
X112566404Y-89508952D02*
X111766404Y-89508952D01*
X111880690Y-89585142D01*
X111956880Y-89661333D01*
X111994976Y-89737523D01*
X111766404Y-88594666D02*
X111766404Y-88747047D01*
X111804500Y-88823238D01*
X111842595Y-88861333D01*
X111956880Y-88937523D01*
X112109261Y-88975619D01*
X112414023Y-88975619D01*
X112490214Y-88937523D01*
X112528309Y-88899428D01*
X112566404Y-88823238D01*
X112566404Y-88670857D01*
X112528309Y-88594666D01*
X112490214Y-88556571D01*
X112414023Y-88518476D01*
X112223547Y-88518476D01*
X112147357Y-88556571D01*
X112109261Y-88594666D01*
X112071166Y-88670857D01*
X112071166Y-88823238D01*
X112109261Y-88899428D01*
X112147357Y-88937523D01*
X112223547Y-88975619D01*
X85642404Y-90499428D02*
X84842404Y-90499428D01*
X84842404Y-90308952D01*
X84880500Y-90194666D01*
X84956690Y-90118476D01*
X85032880Y-90080380D01*
X85185261Y-90042285D01*
X85299547Y-90042285D01*
X85451928Y-90080380D01*
X85528119Y-90118476D01*
X85604309Y-90194666D01*
X85642404Y-90308952D01*
X85642404Y-90499428D01*
X85642404Y-89280380D02*
X85642404Y-89737523D01*
X85642404Y-89508952D02*
X84842404Y-89508952D01*
X84956690Y-89585142D01*
X85032880Y-89661333D01*
X85070976Y-89737523D01*
X84842404Y-88556571D02*
X84842404Y-88937523D01*
X85223357Y-88975619D01*
X85185261Y-88937523D01*
X85147166Y-88861333D01*
X85147166Y-88670857D01*
X85185261Y-88594666D01*
X85223357Y-88556571D01*
X85299547Y-88518476D01*
X85490023Y-88518476D01*
X85566214Y-88556571D01*
X85604309Y-88594666D01*
X85642404Y-88670857D01*
X85642404Y-88861333D01*
X85604309Y-88937523D01*
X85566214Y-88975619D01*
X60369404Y-69226928D02*
X59569404Y-69226928D01*
X59569404Y-69036452D01*
X59607500Y-68922166D01*
X59683690Y-68845976D01*
X59759880Y-68807880D01*
X59912261Y-68769785D01*
X60026547Y-68769785D01*
X60178928Y-68807880D01*
X60255119Y-68845976D01*
X60331309Y-68922166D01*
X60369404Y-69036452D01*
X60369404Y-69226928D01*
X60369404Y-68007880D02*
X60369404Y-68465023D01*
X60369404Y-68236452D02*
X59569404Y-68236452D01*
X59683690Y-68312642D01*
X59759880Y-68388833D01*
X59797976Y-68465023D01*
X59836071Y-67322166D02*
X60369404Y-67322166D01*
X59531309Y-67512642D02*
X60102738Y-67703119D01*
X60102738Y-67207880D01*
X188728910Y-85474590D02*
X187946392Y-85308261D01*
X187985995Y-85121947D01*
X188047019Y-85018079D01*
X188137385Y-84959395D01*
X188219831Y-84937973D01*
X188376803Y-84932392D01*
X188488591Y-84956153D01*
X188629721Y-85025098D01*
X188696327Y-85078201D01*
X188755011Y-85168568D01*
X188768513Y-85288276D01*
X188728910Y-85474590D01*
X188982365Y-84282182D02*
X188887319Y-84729335D01*
X188934842Y-84505758D02*
X188152324Y-84339429D01*
X188248271Y-84437716D01*
X188306956Y-84528082D01*
X188328378Y-84610528D01*
X188255290Y-83855013D02*
X188358255Y-83370597D01*
X188600915Y-83694800D01*
X188624676Y-83583012D01*
X188677779Y-83516407D01*
X188722963Y-83487064D01*
X188805409Y-83465642D01*
X188991723Y-83505245D01*
X189058328Y-83558348D01*
X189087670Y-83603532D01*
X189109092Y-83685978D01*
X189061569Y-83909554D01*
X189008465Y-83976159D01*
X188963282Y-84005502D01*
X170059910Y-81347090D02*
X169277392Y-81180761D01*
X169316995Y-80994447D01*
X169378019Y-80890579D01*
X169468385Y-80831895D01*
X169550831Y-80810473D01*
X169707803Y-80804892D01*
X169819591Y-80828653D01*
X169960721Y-80897598D01*
X170027327Y-80950701D01*
X170086011Y-81041068D01*
X170099513Y-81160776D01*
X170059910Y-81347090D01*
X170313365Y-80154682D02*
X170218319Y-80601835D01*
X170265842Y-80378258D02*
X169483324Y-80211929D01*
X169579271Y-80310216D01*
X169637956Y-80400582D01*
X169659378Y-80483028D01*
X169668736Y-79706091D02*
X169639393Y-79660908D01*
X169617971Y-79578462D01*
X169657574Y-79392148D01*
X169710677Y-79325543D01*
X169755861Y-79296201D01*
X169838307Y-79274779D01*
X169912832Y-79290620D01*
X170016700Y-79351644D01*
X170368808Y-79893842D01*
X170471774Y-79409426D01*
X151380862Y-77382337D02*
X150598344Y-77216008D01*
X150637947Y-77029694D01*
X150698971Y-76925826D01*
X150789337Y-76867142D01*
X150871783Y-76845720D01*
X151028755Y-76840139D01*
X151140543Y-76863900D01*
X151281673Y-76932845D01*
X151348279Y-76985948D01*
X151406963Y-77076315D01*
X151420465Y-77196023D01*
X151380862Y-77382337D01*
X151634317Y-76189929D02*
X151539271Y-76637082D01*
X151586794Y-76413505D02*
X150804276Y-76247176D01*
X150900223Y-76345463D01*
X150958908Y-76435829D01*
X150980330Y-76518275D01*
X151792726Y-75444673D02*
X151697680Y-75891827D01*
X151745203Y-75668250D02*
X150962685Y-75501921D01*
X151058632Y-75600208D01*
X151117317Y-75690574D01*
X151138739Y-75773020D01*
X132848910Y-73346090D02*
X132066392Y-73179761D01*
X132105995Y-72993447D01*
X132167019Y-72889579D01*
X132257385Y-72830895D01*
X132339831Y-72809473D01*
X132496803Y-72803892D01*
X132608591Y-72827653D01*
X132749721Y-72896598D01*
X132816327Y-72949701D01*
X132875011Y-73040068D01*
X132888513Y-73159776D01*
X132848910Y-73346090D01*
X133102365Y-72153682D02*
X133007319Y-72600835D01*
X133054842Y-72377258D02*
X132272324Y-72210929D01*
X132368271Y-72309216D01*
X132426956Y-72399582D01*
X132448378Y-72482028D01*
X132422812Y-71502936D02*
X132438653Y-71428411D01*
X132491757Y-71361806D01*
X132536940Y-71332464D01*
X132619386Y-71311042D01*
X132776358Y-71305461D01*
X132962671Y-71345063D01*
X133103802Y-71414007D01*
X133170407Y-71467111D01*
X133199749Y-71512294D01*
X133221171Y-71594740D01*
X133205330Y-71669266D01*
X133152227Y-71735871D01*
X133107044Y-71765213D01*
X133024598Y-71786635D01*
X132867626Y-71792216D01*
X132681312Y-71752614D01*
X132540182Y-71683669D01*
X132473577Y-71630566D01*
X132444234Y-71585382D01*
X132422812Y-71502936D01*
X111804404Y-71004976D02*
X111004404Y-71004976D01*
X111004404Y-70814500D01*
X111042500Y-70700214D01*
X111118690Y-70624023D01*
X111194880Y-70585928D01*
X111347261Y-70547833D01*
X111461547Y-70547833D01*
X111613928Y-70585928D01*
X111690119Y-70624023D01*
X111766309Y-70700214D01*
X111804404Y-70814500D01*
X111804404Y-71004976D01*
X111804404Y-70166880D02*
X111804404Y-70014500D01*
X111766309Y-69938309D01*
X111728214Y-69900214D01*
X111613928Y-69824023D01*
X111461547Y-69785928D01*
X111156785Y-69785928D01*
X111080595Y-69824023D01*
X111042500Y-69862119D01*
X111004404Y-69938309D01*
X111004404Y-70090690D01*
X111042500Y-70166880D01*
X111080595Y-70204976D01*
X111156785Y-70243071D01*
X111347261Y-70243071D01*
X111423452Y-70204976D01*
X111461547Y-70166880D01*
X111499642Y-70090690D01*
X111499642Y-69938309D01*
X111461547Y-69862119D01*
X111423452Y-69824023D01*
X111347261Y-69785928D01*
X88372904Y-71004976D02*
X87572904Y-71004976D01*
X87572904Y-70814500D01*
X87611000Y-70700214D01*
X87687190Y-70624023D01*
X87763380Y-70585928D01*
X87915761Y-70547833D01*
X88030047Y-70547833D01*
X88182428Y-70585928D01*
X88258619Y-70624023D01*
X88334809Y-70700214D01*
X88372904Y-70814500D01*
X88372904Y-71004976D01*
X87915761Y-70090690D02*
X87877666Y-70166880D01*
X87839571Y-70204976D01*
X87763380Y-70243071D01*
X87725285Y-70243071D01*
X87649095Y-70204976D01*
X87611000Y-70166880D01*
X87572904Y-70090690D01*
X87572904Y-69938309D01*
X87611000Y-69862119D01*
X87649095Y-69824023D01*
X87725285Y-69785928D01*
X87763380Y-69785928D01*
X87839571Y-69824023D01*
X87877666Y-69862119D01*
X87915761Y-69938309D01*
X87915761Y-70090690D01*
X87953857Y-70166880D01*
X87991952Y-70204976D01*
X88068142Y-70243071D01*
X88220523Y-70243071D01*
X88296714Y-70204976D01*
X88334809Y-70166880D01*
X88372904Y-70090690D01*
X88372904Y-69938309D01*
X88334809Y-69862119D01*
X88296714Y-69824023D01*
X88220523Y-69785928D01*
X88068142Y-69785928D01*
X87991952Y-69824023D01*
X87953857Y-69862119D01*
X87915761Y-69938309D01*
X64306404Y-49859476D02*
X63506404Y-49859476D01*
X63506404Y-49669000D01*
X63544500Y-49554714D01*
X63620690Y-49478523D01*
X63696880Y-49440428D01*
X63849261Y-49402333D01*
X63963547Y-49402333D01*
X64115928Y-49440428D01*
X64192119Y-49478523D01*
X64268309Y-49554714D01*
X64306404Y-49669000D01*
X64306404Y-49859476D01*
X63506404Y-49135666D02*
X63506404Y-48602333D01*
X64306404Y-48945190D01*
X202016115Y-68274463D02*
X201233597Y-68108133D01*
X201273199Y-67921819D01*
X201334223Y-67817952D01*
X201424590Y-67759267D01*
X201507036Y-67737845D01*
X201664007Y-67732264D01*
X201775795Y-67756025D01*
X201916926Y-67824970D01*
X201983531Y-67878074D01*
X202042216Y-67968440D01*
X202055717Y-68088149D01*
X202016115Y-68274463D01*
X201471210Y-66990250D02*
X201439528Y-67139301D01*
X201460950Y-67221747D01*
X201490293Y-67266931D01*
X201586240Y-67365217D01*
X201727371Y-67434162D01*
X202025473Y-67497526D01*
X202107919Y-67476104D01*
X202153102Y-67446761D01*
X202206206Y-67380156D01*
X202237887Y-67231105D01*
X202216465Y-67148659D01*
X202187123Y-67103476D01*
X202120518Y-67050372D01*
X201934204Y-67010770D01*
X201851758Y-67032192D01*
X201806575Y-67061534D01*
X201753471Y-67128139D01*
X201721790Y-67277190D01*
X201743211Y-67359636D01*
X201772554Y-67404820D01*
X201839159Y-67457923D01*
X183410615Y-64083463D02*
X182628097Y-63917133D01*
X182667699Y-63730819D01*
X182728723Y-63626952D01*
X182819090Y-63568267D01*
X182901536Y-63546845D01*
X183058507Y-63541264D01*
X183170295Y-63565025D01*
X183311426Y-63633970D01*
X183378031Y-63687074D01*
X183436716Y-63777440D01*
X183450217Y-63897149D01*
X183410615Y-64083463D01*
X182873631Y-62761988D02*
X182794426Y-63134615D01*
X183159133Y-63251082D01*
X183129791Y-63205899D01*
X183108369Y-63123453D01*
X183147971Y-62937139D01*
X183201075Y-62870534D01*
X183246258Y-62841192D01*
X183328704Y-62819770D01*
X183515018Y-62859372D01*
X183581623Y-62912476D01*
X183610965Y-62957659D01*
X183632387Y-63040105D01*
X183592785Y-63226419D01*
X183539681Y-63293024D01*
X183494498Y-63322366D01*
X164868615Y-59955963D02*
X164086097Y-59789633D01*
X164125699Y-59603319D01*
X164186723Y-59499452D01*
X164277090Y-59440767D01*
X164359536Y-59419345D01*
X164516507Y-59413764D01*
X164628295Y-59437525D01*
X164769426Y-59506470D01*
X164836031Y-59559574D01*
X164894716Y-59649940D01*
X164908217Y-59769649D01*
X164868615Y-59955963D01*
X164584550Y-58727193D02*
X165106228Y-58838080D01*
X164246845Y-58850144D02*
X164766184Y-59155264D01*
X164869150Y-58670848D01*
X146263115Y-55828463D02*
X145480597Y-55662133D01*
X145520199Y-55475819D01*
X145581223Y-55371952D01*
X145671590Y-55313267D01*
X145754036Y-55291845D01*
X145911007Y-55286264D01*
X146022795Y-55310025D01*
X146163926Y-55378970D01*
X146230531Y-55432074D01*
X146289216Y-55522440D01*
X146302717Y-55642149D01*
X146263115Y-55828463D01*
X145631085Y-54954141D02*
X145734051Y-54469725D01*
X145976710Y-54793928D01*
X146000471Y-54682139D01*
X146053575Y-54615534D01*
X146098758Y-54586192D01*
X146181204Y-54564770D01*
X146367518Y-54604372D01*
X146434123Y-54657476D01*
X146463465Y-54702659D01*
X146484887Y-54785105D01*
X146437365Y-55008682D01*
X146384261Y-55075287D01*
X146339078Y-55104629D01*
X124758404Y-49859476D02*
X123958404Y-49859476D01*
X123958404Y-49669000D01*
X123996500Y-49554714D01*
X124072690Y-49478523D01*
X124148880Y-49440428D01*
X124301261Y-49402333D01*
X124415547Y-49402333D01*
X124567928Y-49440428D01*
X124644119Y-49478523D01*
X124720309Y-49554714D01*
X124758404Y-49669000D01*
X124758404Y-49859476D01*
X124034595Y-49097571D02*
X123996500Y-49059476D01*
X123958404Y-48983285D01*
X123958404Y-48792809D01*
X123996500Y-48716619D01*
X124034595Y-48678523D01*
X124110785Y-48640428D01*
X124186976Y-48640428D01*
X124301261Y-48678523D01*
X124758404Y-49135666D01*
X124758404Y-48640428D01*
X106089404Y-52081976D02*
X105289404Y-52081976D01*
X105289404Y-51891500D01*
X105327500Y-51777214D01*
X105403690Y-51701023D01*
X105479880Y-51662928D01*
X105632261Y-51624833D01*
X105746547Y-51624833D01*
X105898928Y-51662928D01*
X105975119Y-51701023D01*
X106051309Y-51777214D01*
X106089404Y-51891500D01*
X106089404Y-52081976D01*
X106089404Y-50862928D02*
X106089404Y-51320071D01*
X106089404Y-51091500D02*
X105289404Y-51091500D01*
X105403690Y-51167690D01*
X105479880Y-51243880D01*
X105517976Y-51320071D01*
X87102904Y-52081976D02*
X86302904Y-52081976D01*
X86302904Y-51891500D01*
X86341000Y-51777214D01*
X86417190Y-51701023D01*
X86493380Y-51662928D01*
X86645761Y-51624833D01*
X86760047Y-51624833D01*
X86912428Y-51662928D01*
X86988619Y-51701023D01*
X87064809Y-51777214D01*
X87102904Y-51891500D01*
X87102904Y-52081976D01*
X86302904Y-51129595D02*
X86302904Y-51053404D01*
X86341000Y-50977214D01*
X86379095Y-50939119D01*
X86455285Y-50901023D01*
X86607666Y-50862928D01*
X86798142Y-50862928D01*
X86950523Y-50901023D01*
X87026714Y-50939119D01*
X87064809Y-50977214D01*
X87102904Y-51053404D01*
X87102904Y-51129595D01*
X87064809Y-51205785D01*
X87026714Y-51243880D01*
X86950523Y-51281976D01*
X86798142Y-51320071D01*
X86607666Y-51320071D01*
X86455285Y-51281976D01*
X86379095Y-51243880D01*
X86341000Y-51205785D01*
X86302904Y-51129595D01*
X202409833Y-81553404D02*
X202676500Y-82353404D01*
X202943166Y-81553404D01*
X203666976Y-82277214D02*
X203628880Y-82315309D01*
X203514595Y-82353404D01*
X203438404Y-82353404D01*
X203324119Y-82315309D01*
X203247928Y-82239119D01*
X203209833Y-82162928D01*
X203171738Y-82010547D01*
X203171738Y-81896261D01*
X203209833Y-81743880D01*
X203247928Y-81667690D01*
X203324119Y-81591500D01*
X203438404Y-81553404D01*
X203514595Y-81553404D01*
X203628880Y-81591500D01*
X203666976Y-81629595D01*
X204466976Y-82277214D02*
X204428880Y-82315309D01*
X204314595Y-82353404D01*
X204238404Y-82353404D01*
X204124119Y-82315309D01*
X204047928Y-82239119D01*
X204009833Y-82162928D01*
X203971738Y-82010547D01*
X203971738Y-81896261D01*
X204009833Y-81743880D01*
X204047928Y-81667690D01*
X204124119Y-81591500D01*
X204238404Y-81553404D01*
X204314595Y-81553404D01*
X204428880Y-81591500D01*
X204466976Y-81629595D01*
X202966976Y-86591500D02*
X202890785Y-86553404D01*
X202776500Y-86553404D01*
X202662214Y-86591500D01*
X202586023Y-86667690D01*
X202547928Y-86743880D01*
X202509833Y-86896261D01*
X202509833Y-87010547D01*
X202547928Y-87162928D01*
X202586023Y-87239119D01*
X202662214Y-87315309D01*
X202776500Y-87353404D01*
X202852690Y-87353404D01*
X202966976Y-87315309D01*
X203005071Y-87277214D01*
X203005071Y-87010547D01*
X202852690Y-87010547D01*
X203347928Y-87353404D02*
X203347928Y-86553404D01*
X203805071Y-87353404D01*
X203805071Y-86553404D01*
X204186023Y-87353404D02*
X204186023Y-86553404D01*
X204376500Y-86553404D01*
X204490785Y-86591500D01*
X204566976Y-86667690D01*
X204605071Y-86743880D01*
X204643166Y-86896261D01*
X204643166Y-87010547D01*
X204605071Y-87162928D01*
X204566976Y-87239119D01*
X204490785Y-87315309D01*
X204376500Y-87353404D01*
X204186023Y-87353404D01*
X202962214Y-84753404D02*
X202581261Y-84753404D01*
X202581261Y-83953404D01*
X203228880Y-84334357D02*
X203495547Y-84334357D01*
X203609833Y-84753404D02*
X203228880Y-84753404D01*
X203228880Y-83953404D01*
X203609833Y-83953404D01*
X203952690Y-84753404D02*
X203952690Y-83953404D01*
X204143166Y-83953404D01*
X204257452Y-83991500D01*
X204333642Y-84067690D01*
X204371738Y-84143880D01*
X204409833Y-84296261D01*
X204409833Y-84410547D01*
X204371738Y-84562928D01*
X204333642Y-84639119D01*
X204257452Y-84715309D01*
X204143166Y-84753404D01*
X203952690Y-84753404D01*
X199545095Y-49082380D02*
X200116523Y-49082380D01*
X199830809Y-50082380D02*
X199830809Y-49082380D01*
X201021285Y-50082380D02*
X200687952Y-49606190D01*
X200449857Y-50082380D02*
X200449857Y-49082380D01*
X200830809Y-49082380D01*
X200926047Y-49130000D01*
X200973666Y-49177619D01*
X201021285Y-49272857D01*
X201021285Y-49415714D01*
X200973666Y-49510952D01*
X200926047Y-49558571D01*
X200830809Y-49606190D01*
X200449857Y-49606190D01*
X202021285Y-50082380D02*
X201687952Y-49606190D01*
X201449857Y-50082380D02*
X201449857Y-49082380D01*
X201830809Y-49082380D01*
X201926047Y-49130000D01*
X201973666Y-49177619D01*
X202021285Y-49272857D01*
X202021285Y-49415714D01*
X201973666Y-49510952D01*
X201926047Y-49558571D01*
X201830809Y-49606190D01*
X201449857Y-49606190D01*
X202402238Y-50034761D02*
X202545095Y-50082380D01*
X202783190Y-50082380D01*
X202878428Y-50034761D01*
X202926047Y-49987142D01*
X202973666Y-49891904D01*
X202973666Y-49796666D01*
X202926047Y-49701428D01*
X202878428Y-49653809D01*
X202783190Y-49606190D01*
X202592714Y-49558571D01*
X202497476Y-49510952D01*
X202449857Y-49463333D01*
X202402238Y-49368095D01*
X202402238Y-49272857D01*
X202449857Y-49177619D01*
X202497476Y-49130000D01*
X202592714Y-49082380D01*
X202830809Y-49082380D01*
X202973666Y-49130000D01*
X210999895Y-82274433D02*
X211580466Y-82274433D01*
X211696580Y-82313138D01*
X211773990Y-82390547D01*
X211812695Y-82506661D01*
X211812695Y-82584071D01*
X210999895Y-81964795D02*
X210999895Y-81461633D01*
X211309533Y-81732566D01*
X211309533Y-81616452D01*
X211348238Y-81539042D01*
X211386942Y-81500338D01*
X211464352Y-81461633D01*
X211657876Y-81461633D01*
X211735285Y-81500338D01*
X211773990Y-81539042D01*
X211812695Y-81616452D01*
X211812695Y-81848680D01*
X211773990Y-81926090D01*
X211735285Y-81964795D01*
X202832703Y-60856423D02*
X202019903Y-60856423D01*
X202019903Y-60546785D01*
X202058608Y-60469376D01*
X202097312Y-60430671D01*
X202174722Y-60391966D01*
X202290836Y-60391966D01*
X202368246Y-60430671D01*
X202406950Y-60469376D01*
X202445655Y-60546785D01*
X202445655Y-60856423D01*
X202832703Y-59617871D02*
X202832703Y-60082328D01*
X202832703Y-59850100D02*
X202019903Y-59850100D01*
X202136017Y-59927509D01*
X202213427Y-60004919D01*
X202252131Y-60082328D01*
X199911695Y-60856425D02*
X199098895Y-60856425D01*
X199098895Y-60546787D01*
X199137600Y-60469378D01*
X199176304Y-60430673D01*
X199253714Y-60391968D01*
X199369828Y-60391968D01*
X199447238Y-60430673D01*
X199485942Y-60469378D01*
X199524647Y-60546787D01*
X199524647Y-60856425D01*
X199176304Y-60082330D02*
X199137600Y-60043625D01*
X199098895Y-59966216D01*
X199098895Y-59772692D01*
X199137600Y-59695282D01*
X199176304Y-59656578D01*
X199253714Y-59617873D01*
X199331123Y-59617873D01*
X199447238Y-59656578D01*
X199911695Y-60121035D01*
X199911695Y-59617873D01*
X208690121Y-84905792D02*
X208309169Y-85172459D01*
X208690121Y-85362935D02*
X207890121Y-85362935D01*
X207890121Y-85058173D01*
X207928217Y-84981982D01*
X207966312Y-84943887D01*
X208042502Y-84905792D01*
X208156788Y-84905792D01*
X208232978Y-84943887D01*
X208271074Y-84981982D01*
X208309169Y-85058173D01*
X208309169Y-85362935D01*
X208690121Y-84143887D02*
X208690121Y-84601030D01*
X208690121Y-84372459D02*
X207890121Y-84372459D01*
X208004407Y-84448649D01*
X208080597Y-84524839D01*
X208118693Y-84601030D01*
X211188855Y-84905796D02*
X210807903Y-85172463D01*
X211188855Y-85362939D02*
X210388855Y-85362939D01*
X210388855Y-85058177D01*
X210426951Y-84981986D01*
X210465046Y-84943891D01*
X210541236Y-84905796D01*
X210655522Y-84905796D01*
X210731712Y-84943891D01*
X210769808Y-84981986D01*
X210807903Y-85058177D01*
X210807903Y-85362939D01*
X210465046Y-84601034D02*
X210426951Y-84562939D01*
X210388855Y-84486748D01*
X210388855Y-84296272D01*
X210426951Y-84220082D01*
X210465046Y-84181986D01*
X210541236Y-84143891D01*
X210617427Y-84143891D01*
X210731712Y-84181986D01*
X211188855Y-84639129D01*
X211188855Y-84143891D01*
M02*
