M48
; DRILL file {KiCad (5.1.6)-1} date 10/03/20 18:09:46
; FORMAT={-:-/ absolute / inch / decimal}
; #@! TF.CreationDate,2020-10-03T18:09:46-07:00
; #@! TF.GenerationSoftware,Kicad,Pcbnew,(5.1.6)-1
; #@! TF.FileFunction,NonPlated,1,2,NPTH
FMAT,2
INCH
T1C0.0472
T2C0.0669
T3C0.1201
T4C0.1575
%
G90
G05
T1
X7.8861Y-1.7591
X7.8861Y-2.0346
X7.955Y-1.7591
X7.955Y-2.0346
T2
X4.67Y-5.2758
X5.0612Y-5.3589
X2.5475Y-5.22
X2.9475Y-5.22
X1.9425Y-2.135
X2.3425Y-2.135
X2.875Y-2.9675
X3.275Y-2.9675
X6.8225Y-3.3733
X7.2137Y-3.4564
X6.3294Y-4.8008
X6.7206Y-4.8839
X7.0625Y-4.9583
X7.4537Y-5.0414
X4.8594Y-4.4884
X5.2506Y-4.5716
X7.3475Y-2.7183
X7.7387Y-2.8014
X4.3325Y-2.135
X4.7325Y-2.135
X3.8125Y-2.9675
X4.2125Y-2.9675
X5.5925Y-4.6458
X5.9837Y-4.7289
X6.855Y-4.1483
X7.2462Y-4.2314
X6.1194Y-3.9909
X6.5106Y-4.0741
X6.0894Y-3.2159
X6.4806Y-3.2991
X5.3844Y-3.8334
X5.7756Y-3.9166
X5.8775Y-2.4058
X6.2687Y-2.4889
X7.2575Y-5.7658
X7.6487Y-5.8489
X4.05Y-4.47
X4.45Y-4.47
X5.3575Y-3.0608
X5.7487Y-3.1439
X4.65Y-3.6783
X5.0412Y-3.7614
X3.5975Y-2.22
X3.9975Y-2.22
X2.83Y-4.47
X3.23Y-4.47
X4.6225Y-2.9058
X5.0137Y-2.9889
X3.8375Y-3.72
X4.2375Y-3.72
X6.6125Y-2.5608
X7.0037Y-2.6439
X2.8475Y-2.22
X3.2475Y-2.22
X2.805Y-3.72
X3.205Y-3.72
X1.62Y-3.6375
X2.02Y-3.6375
X6.0644Y-5.5084
X6.4556Y-5.5916
X5.145Y-2.2483
X5.5362Y-2.3314
X1.78Y-2.8875
X2.18Y-2.8875
T3
X2.5615Y-4.1944
X3.4985Y-4.1944
X5.859Y-5.183
X6.7756Y-5.3778
T4
X3.005Y-3.72
X1.82Y-3.6375
X5.7343Y-5.7699
X6.26Y-5.55
X6.6508Y-5.9647
X5.3406Y-2.2898
X1.98Y-2.8875
X4.8656Y-5.3173
X2.7475Y-5.22
X2.1425Y-2.135
X3.075Y-2.9675
X7.0181Y-3.4148
X6.525Y-4.8423
X7.2581Y-4.9998
X5.055Y-4.53
X7.5431Y-2.7598
X4.5325Y-2.135
X4.0125Y-2.9675
X5.7881Y-4.6873
X7.0506Y-4.1898
X6.315Y-4.0325
X6.285Y-3.2575
X5.58Y-3.875
X6.0731Y-2.4473
X7.4531Y-5.8073
X4.25Y-4.47
X5.5531Y-3.1023
X4.8456Y-3.7198
X3.7975Y-2.22
X2.5615Y-4.7944
X3.03Y-4.47
X3.4985Y-4.7944
X4.8181Y-2.9473
X4.0375Y-3.72
X6.8081Y-2.6023
X3.0475Y-2.22
T0
M30
