M48
; DRILL file {KiCad (5.1.6)-1} date 10/03/20 18:09:46
; FORMAT={-:-/ absolute / inch / decimal}
; #@! TF.CreationDate,2020-10-03T18:09:46-07:00
; #@! TF.GenerationSoftware,Kicad,Pcbnew,(5.1.6)-1
; #@! TF.FileFunction,Plated,1,2,PTH
FMAT,2
INCH
T1C0.0118
T2C0.0315
T3C0.0320
T4C0.0394
T5C0.0433
T6C0.0591
T7C0.0866
%
G90
G05
T1
X6.9925Y-3.85
X7.2375Y-3.885
X7.255Y-4.565
X7.8375Y-2.8425
X7.925Y-2.56
X8.0325Y-2.635
X8.09Y-2.2825
X8.5375Y-1.8
X8.6425Y-3.035
X8.6425Y-3.0875
X8.715Y-2.055
X8.715Y-2.2575
X8.7225Y-1.8425
X8.7225Y-2.7525
X8.7225Y-2.8525
X8.725Y-2.1475
X8.725Y-2.4575
X8.725Y-2.655
X8.725Y-2.9475
X8.7275Y-1.96
X8.7275Y-2.3525
X8.73Y-2.5475
X8.875Y-3.0975
T2
X3.465Y-2.8675
X3.465Y-3.0675
X4.3875Y-2.8675
X4.3875Y-3.0675
X4.1625Y-2.1225
X4.1625Y-2.3225
X6.9954Y-5.8236
X7.037Y-5.628
X5.9229Y-4.0636
X5.9645Y-3.868
X6.6629Y-4.2186
X6.7045Y-4.023
X5.3979Y-4.7061
X5.4395Y-4.5105
X4.8975Y-2.035
X4.8975Y-2.235
X7.8829Y-2.9511
X7.9245Y-2.7555
X7.1504Y-2.7861
X7.192Y-2.5905
X2.1925Y-3.5375
X2.1925Y-3.7375
X5.1904Y-3.9036
X5.232Y-3.708
X7.6054Y-5.1936
X7.647Y-4.998
X2.5175Y-2.035
X2.5175Y-2.235
X4.625Y-4.37
X4.625Y-4.57
X5.1629Y-3.1361
X5.2045Y-2.9405
X6.4204Y-2.6236
X6.462Y-2.428
X6.1354Y-4.8661
X6.177Y-4.6705
X6.6279Y-3.4511
X6.6695Y-3.2555
X5.6879Y-2.4611
X5.7295Y-2.2655
X7.7954Y-5.9986
X7.837Y-5.803
X7.3954Y-4.3786
X7.437Y-4.183
X7.3629Y-3.6136
X7.4045Y-3.418
X3.415Y-2.1225
X3.415Y-2.3225
X2.3475Y-5.12
X2.3475Y-5.32
X2.3625Y-2.7825
X2.3625Y-2.9825
X6.8679Y-5.0336
X6.9095Y-4.838
X4.4175Y-3.62
X4.4175Y-3.82
X8.0475Y-5.805
X8.0475Y-6.005
X5.2854Y-5.5136
X5.327Y-5.318
X3.3575Y-3.62
X3.3575Y-3.82
X5.8925Y-3.295
X5.9341Y-3.0994
X3.775Y-4.37
X3.775Y-4.57
T3
X8.1953Y-1.8485
X8.1953Y-1.9485
X8.1953Y-2.0485
X8.1953Y-2.1485
X8.1953Y-2.2485
X8.1953Y-2.3485
X8.1953Y-2.4485
X8.1953Y-2.5485
X8.1953Y-2.6485
X8.1953Y-2.7485
X8.1953Y-2.8485
X8.1953Y-2.9485
X8.2464Y-1.8956
X8.2464Y-1.9956
X8.2464Y-2.0956
X8.2464Y-2.1956
X8.2464Y-2.2956
X8.2464Y-2.3956
X8.2464Y-2.4956
X8.2464Y-2.5956
X8.2464Y-2.6956
X8.2464Y-2.7956
X8.2464Y-2.8956
X8.2464Y-2.9956
X8.7953Y-1.8485
X8.7953Y-1.9485
X8.7953Y-2.0485
X8.7953Y-2.1485
X8.7953Y-2.2485
X8.7953Y-2.3485
X8.7953Y-2.4485
X8.7953Y-2.5485
X8.7953Y-2.6485
X8.7953Y-2.7485
X8.7953Y-2.8485
X8.7953Y-2.9485
X8.8464Y-1.8956
X8.8464Y-1.9956
X8.8464Y-2.0956
X8.8464Y-2.1956
X8.8464Y-2.2956
X8.8464Y-2.3956
X8.8464Y-2.4956
X8.8464Y-2.5956
X8.8464Y-2.6956
X8.8464Y-2.7956
X8.8464Y-2.8956
X8.8464Y-2.9956
X8.4Y-3.1525
X8.5Y-3.1525
X8.6Y-3.1525
X8.7Y-3.1525
X8.2019Y-3.2375
X8.2019Y-3.4375
X7.86Y-2.2975
X7.975Y-2.2975
X8.3003Y-3.2375
X8.3003Y-3.4375
T4
X8.0975Y-3.2241
X8.0975Y-3.3225
X8.0975Y-3.4249
X8.1944Y-5.8091
X8.1944Y-6.0059
X8.7653Y-5.8091
X8.7653Y-5.9075
X8.7653Y-6.0059
T5
X8.435Y-3.285
X8.435Y-3.4622
X8.6909Y-3.285
X8.6909Y-3.4622
T6
X2.855Y-3.62
X3.105Y-3.52
X1.67Y-3.5375
X1.92Y-3.4375
X6.1341Y-5.421
X6.3994Y-5.3752
X5.2147Y-2.1608
X5.48Y-2.115
X1.83Y-2.7875
X2.08Y-2.6875
X4.7397Y-5.1883
X5.005Y-5.1425
X2.5975Y-5.12
X2.8475Y-5.02
X1.9925Y-2.035
X2.2425Y-1.935
X2.925Y-2.8675
X3.175Y-2.7675
X6.8922Y-3.2858
X7.1575Y-3.24
X6.3991Y-4.7133
X6.6644Y-4.6675
X7.1322Y-4.8708
X7.3975Y-4.825
X4.9291Y-4.401
X5.1944Y-4.3552
X7.4172Y-2.6308
X7.6825Y-2.585
X4.3825Y-2.035
X4.6325Y-1.935
X3.8625Y-2.8675
X4.1125Y-2.7675
X5.6622Y-4.5583
X5.9275Y-4.5125
X6.9247Y-4.0608
X7.19Y-4.015
X6.1891Y-3.9035
X6.4544Y-3.8577
X6.1591Y-3.1285
X6.4244Y-3.0827
X5.4541Y-3.746
X5.7194Y-3.7002
X5.9472Y-2.3183
X6.2125Y-2.2725
X7.3272Y-5.6783
X7.5925Y-5.6325
X4.1Y-4.37
X4.35Y-4.27
X5.4272Y-2.9733
X5.6925Y-2.9275
X4.7197Y-3.5908
X4.985Y-3.545
X3.6475Y-2.12
X3.8975Y-2.02
X2.88Y-4.37
X3.13Y-4.27
X4.6922Y-2.8183
X4.9575Y-2.7725
X3.8875Y-3.62
X4.1375Y-3.52
X6.6822Y-2.4733
X6.9475Y-2.4275
X2.8975Y-2.12
X3.1475Y-2.02
T7
X7.115Y-2.9725
X7.4125Y-2.005
X1.595Y-4.035
X7.89Y-5.2125
X3.1825Y-5.045
X5.97Y-5.92
X3.5575Y-2.6425
T4
G00X7.8034Y-1.8201
M15
G01X7.8034Y-1.8398
M16
G05
G00X7.8034Y-1.9382
M15
G01X7.8034Y-1.9579
M16
G05
G00X7.8034Y-2.0957
M15
G01X7.8034Y-2.1154
M16
G05
G00X7.8723Y-2.1547
M15
G01X7.8723Y-2.1744
M16
G05
G00X7.9688Y-2.1547
M15
G01X7.9688Y-2.1744
M16
G05
G00X8.0377Y-1.8201
M15
G01X8.0377Y-1.8398
M16
G05
G00X8.0377Y-1.9382
M15
G01X8.0377Y-1.9579
M16
G05
G00X8.0377Y-2.0957
M15
G01X8.0377Y-2.1154
M16
G05
T6
G00X8.4956Y-5.687
M15
G01X8.4444Y-5.687
M16
G05
G00X8.4956Y-6.128
M15
G01X8.4444Y-6.128
M16
G05
T0
M30
