G04 #@! TF.GenerationSoftware,KiCad,Pcbnew,(5.1.6)-1*
G04 #@! TF.CreationDate,2020-07-24T14:43:52-07:00*
G04 #@! TF.ProjectId,Alipt-Keyboard-Left,416c6970-742d-44b6-9579-626f6172642d,rev?*
G04 #@! TF.SameCoordinates,Original*
G04 #@! TF.FileFunction,Legend,Bot*
G04 #@! TF.FilePolarity,Positive*
%FSLAX46Y46*%
G04 Gerber Fmt 4.6, Leading zero omitted, Abs format (unit mm)*
G04 Created by KiCad (PCBNEW (5.1.6)-1) date 2020-07-24 14:43:52*
%MOMM*%
%LPD*%
G01*
G04 APERTURE LIST*
%ADD10C,0.150000*%
%ADD11C,0.120000*%
G04 APERTURE END LIST*
D10*
X212172684Y-77495500D02*
X212172684Y-47015500D01*
X214712684Y-77495500D02*
X212172684Y-77495500D01*
X214712684Y-47015500D02*
X214712684Y-77495500D01*
X212172684Y-47015500D02*
X214712684Y-47015500D01*
X227412684Y-77495500D02*
X227412684Y-47015500D01*
X229952684Y-77495500D02*
X227412684Y-77495500D01*
X229952684Y-47015500D02*
X229952684Y-77495500D01*
X227412684Y-47015500D02*
X229952684Y-47015500D01*
X212172684Y-77495500D02*
X212172684Y-44475500D01*
X229952684Y-44475500D02*
X229952684Y-77495500D01*
X212172684Y-44475500D02*
X229952684Y-44475500D01*
X212777501Y-87256501D02*
X212777501Y-85456501D01*
X214577501Y-87256501D02*
X212777501Y-87256501D01*
X214577501Y-85456501D02*
X214577501Y-87256501D01*
X212777501Y-85456501D02*
X214577501Y-85456501D01*
X212777501Y-82156501D02*
X212777501Y-80356501D01*
X214577501Y-82156501D02*
X212777501Y-82156501D01*
X214577501Y-80356501D02*
X214577501Y-82156501D01*
X212777501Y-80356501D02*
X214577501Y-80356501D01*
X212777501Y-84656501D02*
X212777501Y-82856501D01*
X214577501Y-84656501D02*
X212777501Y-84656501D01*
X214577501Y-82856501D02*
X214577501Y-84656501D01*
X212777501Y-82856501D02*
X214577501Y-82856501D01*
X231076500Y-92849500D02*
X231076500Y-98849500D01*
X231076500Y-98849500D02*
X219076500Y-98849500D01*
X219076500Y-98849500D02*
X219076500Y-92849500D01*
X219076500Y-92849500D02*
X231076500Y-92849500D01*
X216632091Y-80327500D02*
X226792091Y-80327500D01*
X226792091Y-80327500D02*
X226792091Y-82867500D01*
X226792091Y-82867500D02*
X216632091Y-82867500D01*
X216632091Y-82867500D02*
X216632091Y-80327500D01*
X212487000Y-98980500D02*
X212487000Y-96980500D01*
X214487000Y-98980500D02*
X212487000Y-98980500D01*
X214487000Y-96980500D02*
X214487000Y-98980500D01*
X212487000Y-96980500D02*
X214487000Y-96980500D01*
X212487000Y-99901500D02*
X214487000Y-99901500D01*
X214487000Y-99901500D02*
X214487000Y-101901500D01*
X214487000Y-101901500D02*
X212487000Y-101901500D01*
X212487000Y-101901500D02*
X212487000Y-99901500D01*
X218908500Y-87337761D02*
X218908500Y-85337761D01*
X221908500Y-87337761D02*
X218908500Y-87337761D01*
X221908500Y-85337761D02*
X221908500Y-87337761D01*
X218908500Y-85337761D02*
X221908500Y-85337761D01*
X218908500Y-87836500D02*
X221908500Y-87836500D01*
X221908500Y-87836500D02*
X221908500Y-89836500D01*
X221908500Y-89836500D02*
X218908500Y-89836500D01*
X218908500Y-89836500D02*
X218908500Y-87836500D01*
D11*
X221456000Y-118739500D02*
X225556000Y-118739500D01*
X225556000Y-118739500D02*
X225556000Y-106939500D01*
X221456000Y-106939500D02*
X225556000Y-106939500D01*
X213356000Y-106939500D02*
X217456000Y-106939500D01*
X213356000Y-109339500D02*
X213356000Y-106939500D01*
X213356000Y-114139500D02*
X213356000Y-111539500D01*
X213356000Y-118739500D02*
X213356000Y-116339500D01*
X217456000Y-118739500D02*
X213356000Y-118739500D01*
X222456000Y-112839500D02*
G75*
G03*
X222456000Y-112839500I-3000000J0D01*
G01*
X219456000Y-113339500D02*
X219456000Y-112339500D01*
X219956000Y-112839500D02*
X218956000Y-112839500D01*
D10*
X212544167Y-80918405D02*
X212277501Y-81718405D01*
X212010834Y-80918405D01*
X211287024Y-81642215D02*
X211325120Y-81680310D01*
X211439405Y-81718405D01*
X211515596Y-81718405D01*
X211629881Y-81680310D01*
X211706072Y-81604120D01*
X211744167Y-81527929D01*
X211782262Y-81375548D01*
X211782262Y-81261262D01*
X211744167Y-81108881D01*
X211706072Y-81032691D01*
X211629881Y-80956501D01*
X211515596Y-80918405D01*
X211439405Y-80918405D01*
X211325120Y-80956501D01*
X211287024Y-80994596D01*
X210487024Y-81642215D02*
X210525120Y-81680310D01*
X210639405Y-81718405D01*
X210715596Y-81718405D01*
X210829881Y-81680310D01*
X210906072Y-81604120D01*
X210944167Y-81527929D01*
X210982262Y-81375548D01*
X210982262Y-81261262D01*
X210944167Y-81108881D01*
X210906072Y-81032691D01*
X210829881Y-80956501D01*
X210715596Y-80918405D01*
X210639405Y-80918405D01*
X210525120Y-80956501D01*
X210487024Y-80994596D01*
X211991786Y-84118405D02*
X212372739Y-84118405D01*
X212372739Y-83318405D01*
X211725120Y-83699358D02*
X211458453Y-83699358D01*
X211344167Y-84118405D02*
X211725120Y-84118405D01*
X211725120Y-83318405D01*
X211344167Y-83318405D01*
X211001310Y-84118405D02*
X211001310Y-83318405D01*
X210810834Y-83318405D01*
X210696548Y-83356501D01*
X210620358Y-83432691D01*
X210582262Y-83508881D01*
X210544167Y-83661262D01*
X210544167Y-83775548D01*
X210582262Y-83927929D01*
X210620358Y-84004120D01*
X210696548Y-84080310D01*
X210810834Y-84118405D01*
X211001310Y-84118405D01*
X212187024Y-85956501D02*
X212263215Y-85918405D01*
X212377501Y-85918405D01*
X212491786Y-85956501D01*
X212567977Y-86032691D01*
X212606072Y-86108881D01*
X212644167Y-86261262D01*
X212644167Y-86375548D01*
X212606072Y-86527929D01*
X212567977Y-86604120D01*
X212491786Y-86680310D01*
X212377501Y-86718405D01*
X212301310Y-86718405D01*
X212187024Y-86680310D01*
X212148929Y-86642215D01*
X212148929Y-86375548D01*
X212301310Y-86375548D01*
X211806072Y-86718405D02*
X211806072Y-85918405D01*
X211348929Y-86718405D01*
X211348929Y-85918405D01*
X210967977Y-86718405D02*
X210967977Y-85918405D01*
X210777501Y-85918405D01*
X210663215Y-85956501D01*
X210587024Y-86032691D01*
X210548929Y-86108881D01*
X210510834Y-86261262D01*
X210510834Y-86375548D01*
X210548929Y-86527929D01*
X210587024Y-86604120D01*
X210663215Y-86680310D01*
X210777501Y-86718405D01*
X210967977Y-86718405D01*
X224115380Y-95012095D02*
X224115380Y-95583523D01*
X225115380Y-95297809D02*
X224115380Y-95297809D01*
X225115380Y-96488285D02*
X224639190Y-96154952D01*
X225115380Y-95916857D02*
X224115380Y-95916857D01*
X224115380Y-96297809D01*
X224163000Y-96393047D01*
X224210619Y-96440666D01*
X224305857Y-96488285D01*
X224448714Y-96488285D01*
X224543952Y-96440666D01*
X224591571Y-96393047D01*
X224639190Y-96297809D01*
X224639190Y-95916857D01*
X225115380Y-97488285D02*
X224639190Y-97154952D01*
X225115380Y-96916857D02*
X224115380Y-96916857D01*
X224115380Y-97297809D01*
X224163000Y-97393047D01*
X224210619Y-97440666D01*
X224305857Y-97488285D01*
X224448714Y-97488285D01*
X224543952Y-97440666D01*
X224591571Y-97393047D01*
X224639190Y-97297809D01*
X224639190Y-96916857D01*
X225067761Y-97869238D02*
X225115380Y-98012095D01*
X225115380Y-98250190D01*
X225067761Y-98345428D01*
X225020142Y-98393047D01*
X224924904Y-98440666D01*
X224829666Y-98440666D01*
X224734428Y-98393047D01*
X224686809Y-98345428D01*
X224639190Y-98250190D01*
X224591571Y-98059714D01*
X224543952Y-97964476D01*
X224496333Y-97916857D01*
X224401095Y-97869238D01*
X224305857Y-97869238D01*
X224210619Y-97916857D01*
X224163000Y-97964476D01*
X224115380Y-98059714D01*
X224115380Y-98297809D01*
X224163000Y-98440666D01*
X215886923Y-98448195D02*
X215886923Y-97635395D01*
X215577285Y-97635395D01*
X215499876Y-97674100D01*
X215461171Y-97712804D01*
X215422466Y-97790214D01*
X215422466Y-97906328D01*
X215461171Y-97983738D01*
X215499876Y-98022442D01*
X215577285Y-98061147D01*
X215886923Y-98061147D01*
X214648371Y-98448195D02*
X215112828Y-98448195D01*
X214880600Y-98448195D02*
X214880600Y-97635395D01*
X214958009Y-97751509D01*
X215035419Y-97828919D01*
X215112828Y-97867623D01*
X215886923Y-101369195D02*
X215886923Y-100556395D01*
X215577285Y-100556395D01*
X215499876Y-100595100D01*
X215461171Y-100633804D01*
X215422466Y-100711214D01*
X215422466Y-100827328D01*
X215461171Y-100904738D01*
X215499876Y-100943442D01*
X215577285Y-100982147D01*
X215886923Y-100982147D01*
X214648371Y-101369195D02*
X215112828Y-101369195D01*
X214880600Y-101369195D02*
X214880600Y-100556395D01*
X214958009Y-100672509D01*
X215035419Y-100749919D01*
X215112828Y-100788623D01*
X220541833Y-86699665D02*
X220808500Y-86318713D01*
X220998976Y-86699665D02*
X220998976Y-85899665D01*
X220694214Y-85899665D01*
X220618023Y-85937761D01*
X220579928Y-85975856D01*
X220541833Y-86052046D01*
X220541833Y-86166332D01*
X220579928Y-86242522D01*
X220618023Y-86280618D01*
X220694214Y-86318713D01*
X220998976Y-86318713D01*
X219779928Y-86699665D02*
X220237071Y-86699665D01*
X220008500Y-86699665D02*
X220008500Y-85899665D01*
X220084690Y-86013951D01*
X220160880Y-86090141D01*
X220237071Y-86128237D01*
X220541833Y-89198404D02*
X220808500Y-88817452D01*
X220998976Y-89198404D02*
X220998976Y-88398404D01*
X220694214Y-88398404D01*
X220618023Y-88436500D01*
X220579928Y-88474595D01*
X220541833Y-88550785D01*
X220541833Y-88665071D01*
X220579928Y-88741261D01*
X220618023Y-88779357D01*
X220694214Y-88817452D01*
X220998976Y-88817452D01*
X219779928Y-89198404D02*
X220237071Y-89198404D01*
X220008500Y-89198404D02*
X220008500Y-88398404D01*
X220084690Y-88512690D01*
X220160880Y-88588880D01*
X220237071Y-88626976D01*
M02*
