  0
SECTION
  2
HEADER
  9
$ANGBASE
  50
0.0
  9
$ANGDIR
  70
1
  9
$MEASUREMENT
  70
0
  0
ENDSEC
  0
SECTION
  2
TABLES
  0
TABLE
  2
LTYPE
  70
4
  0
LTYPE
  5
40F
  2
CONTINUOUS
  70
0
  3
Solid line
  72
65
  73
0
  40
0.0
  0
LTYPE
  5
410
  2
DASHDOT
 70
0
  3
Dash Dot ____ _ ____ _
 72
65
 73
4
 40
2.0
 49
1.25
 49
-0.25
 49
0.25
 49
-0.25
  0
LTYPE
  5
411
  2
DASHED
 70
0
  3
Dashed __ __ __ __ __
 72
65
 73
2
 40
0.75
 49
0.5
 49
-0.25
  0
LTYPE
  5
43B
  2
DOTTED
 70
0
  3
Dotted .  .  .  .
 72
65
 73
2
 40
0.2
 49
0.0
 49
-0.2
  0
ENDTAB
  0
TABLE
  2
STYLE
  70
4
  0
STYLE
  2
KICAD
  70
0
  40
0
  41
1
  42
1
  50
0
  71
0
  3
isocp.shx
  0
STYLE
  2
KICADB
  70
0
  40
0
  41
1
  42
1
  50
0
  71
0
  3
isocp.shx
  0
STYLE
  2
KICADI
  70
0
  40
0
  41
1
  42
1
  50
15
  71
0
  3
isocp.shx
  0
STYLE
  2
KICADBI
  70
0
  40
0
  41
1
  42
1
  50
15
  71
0
  3
isocp.shx
  0
ENDTAB
  0
TABLE
  2
LAYER
  70
1
  0
LAYER
  2
BLACK
  70
0
  62
7
  6
CONTINUOUS
  0
ENDTAB
  0
ENDSEC
  0
SECTION
  2
ENTITIES
0
LINE
8
BLACK
6
CONTINUOUS
10
9.89089
20
-5.49681
11
9.89062
21
-5.49686
0
LINE
8
BLACK
6
CONTINUOUS
10
9.89062
20
-5.49686
11
9.89036
21
-5.49692
0
LINE
8
BLACK
6
CONTINUOUS
10
9.89036
20
-5.49692
11
9.88066
21
-5.49794
0
LINE
8
BLACK
6
CONTINUOUS
10
9.88066
20
-5.49794
11
9.88062
21
-5.49794
0
LINE
8
BLACK
6
CONTINUOUS
10
9.88062
20
-5.49794
11
9.88049
21
-5.49794
0
LINE
8
BLACK
6
CONTINUOUS
10
9.88049
20
-5.49794
11
9.88036
21
-5.49795
0
LINE
8
BLACK
6
CONTINUOUS
10
9.88036
20
-5.49795
11
9.88015
21
-5.49795
0
LINE
8
BLACK
6
CONTINUOUS
10
9.88015
20
-5.49795
11
9.88014
21
-5.49795
0
LINE
8
BLACK
6
CONTINUOUS
10
9.88014
20
-5.49795
11
9.88004
21
-5.49795
0
LINE
8
BLACK
6
CONTINUOUS
10
9.88004
20
-5.49795
11
9.88001
21
-5.49795
0
LINE
8
BLACK
6
CONTINUOUS
10
9.88001
20
-5.49795
11
9.87998
21
-5.49795
0
LINE
8
BLACK
6
CONTINUOUS
10
9.87998
20
-5.49795
11
7.07281
21
-5.49795
0
LINE
8
BLACK
6
CONTINUOUS
10
7.07281
20
-5.49795
11
3.82574
21
-6.18536
0
LINE
8
BLACK
6
CONTINUOUS
10
3.82574
20
-6.18536
11
3.82558
21
-6.18541
0
LINE
8
BLACK
6
CONTINUOUS
10
3.82558
20
-6.18541
11
3.82528
21
-6.18544
0
LINE
8
BLACK
6
CONTINUOUS
10
3.82528
20
-6.18544
11
3.82504
21
-6.18547
0
LINE
8
BLACK
6
CONTINUOUS
10
3.82504
20
-6.18547
11
3.82488
21
-6.18545
0
LINE
8
BLACK
6
CONTINUOUS
10
3.82488
20
-6.18545
11
2.39486
21
-6.18545
0
LINE
8
BLACK
6
CONTINUOUS
10
2.39486
20
-6.18545
11
2.39471
21
-6.18544
0
LINE
8
BLACK
6
CONTINUOUS
10
2.39471
20
-6.18544
11
2.39471
21
-6.18544
0
LINE
8
BLACK
6
CONTINUOUS
10
2.39471
20
-6.18544
11
2.38743
21
-6.18472
0
LINE
8
BLACK
6
CONTINUOUS
10
2.38743
20
-6.18472
11
2.38739
21
-6.18472
0
LINE
8
BLACK
6
CONTINUOUS
10
2.38739
20
-6.18472
11
2.38713
21
-6.18466
0
LINE
8
BLACK
6
CONTINUOUS
10
2.38713
20
-6.18466
11
2.38686
21
-6.18461
0
LINE
8
BLACK
6
CONTINUOUS
10
2.38686
20
-6.18461
11
2.37986
21
-6.1825
0
LINE
8
BLACK
6
CONTINUOUS
10
2.37986
20
-6.1825
11
2.37986
21
-6.1825
0
LINE
8
BLACK
6
CONTINUOUS
10
2.37986
20
-6.1825
11
2.37986
21
-6.1825
0
LINE
8
BLACK
6
CONTINUOUS
10
2.37986
20
-6.1825
11
2.37982
21
-6.18248
0
LINE
8
BLACK
6
CONTINUOUS
10
2.37982
20
-6.18248
11
2.37957
21
-6.18238
0
LINE
8
BLACK
6
CONTINUOUS
10
2.37957
20
-6.18238
11
2.37932
21
-6.18228
0
LINE
8
BLACK
6
CONTINUOUS
10
2.37932
20
-6.18228
11
2.37286
21
-6.17884
0
LINE
8
BLACK
6
CONTINUOUS
10
2.37286
20
-6.17884
11
2.37283
21
-6.17882
0
LINE
8
BLACK
6
CONTINUOUS
10
2.37283
20
-6.17882
11
2.3726
21
-6.17867
0
LINE
8
BLACK
6
CONTINUOUS
10
2.3726
20
-6.17867
11
2.37238
21
-6.17852
0
LINE
8
BLACK
6
CONTINUOUS
10
2.37238
20
-6.17852
11
2.36671
21
-6.1739
0
LINE
8
BLACK
6
CONTINUOUS
10
2.36671
20
-6.1739
11
2.36671
21
-6.1739
0
LINE
8
BLACK
6
CONTINUOUS
10
2.36671
20
-6.1739
11
2.36671
21
-6.1739
0
LINE
8
BLACK
6
CONTINUOUS
10
2.36671
20
-6.1739
11
2.36668
21
-6.17387
0
LINE
8
BLACK
6
CONTINUOUS
10
2.36668
20
-6.17387
11
2.36649
21
-6.17368
0
LINE
8
BLACK
6
CONTINUOUS
10
2.36649
20
-6.17368
11
2.3663
21
-6.17349
0
LINE
8
BLACK
6
CONTINUOUS
10
2.3663
20
-6.17349
11
2.36164
21
-6.16785
0
LINE
8
BLACK
6
CONTINUOUS
10
2.36164
20
-6.16785
11
2.36164
21
-6.16785
0
LINE
8
BLACK
6
CONTINUOUS
10
2.36164
20
-6.16785
11
2.36164
21
-6.16785
0
LINE
8
BLACK
6
CONTINUOUS
10
2.36164
20
-6.16785
11
2.36161
21
-6.16782
0
LINE
8
BLACK
6
CONTINUOUS
10
2.36161
20
-6.16782
11
2.36146
21
-6.1676
0
LINE
8
BLACK
6
CONTINUOUS
10
2.36146
20
-6.1676
11
2.36131
21
-6.16737
0
LINE
8
BLACK
6
CONTINUOUS
10
2.36131
20
-6.16737
11
2.35783
21
-6.16094
0
LINE
8
BLACK
6
CONTINUOUS
10
2.35783
20
-6.16094
11
2.35783
21
-6.16094
0
LINE
8
BLACK
6
CONTINUOUS
10
2.35783
20
-6.16094
11
2.35783
21
-6.16094
0
LINE
8
BLACK
6
CONTINUOUS
10
2.35783
20
-6.16094
11
2.35781
21
-6.1609
0
LINE
8
BLACK
6
CONTINUOUS
10
2.35781
20
-6.1609
11
2.35771
21
-6.16065
0
LINE
8
BLACK
6
CONTINUOUS
10
2.35771
20
-6.16065
11
2.35761
21
-6.1604
0
LINE
8
BLACK
6
CONTINUOUS
10
2.35761
20
-6.1604
11
2.35545
21
-6.15341
0
LINE
8
BLACK
6
CONTINUOUS
10
2.35545
20
-6.15341
11
2.35543
21
-6.15337
0
LINE
8
BLACK
6
CONTINUOUS
10
2.35543
20
-6.15337
11
2.35538
21
-6.15311
0
LINE
8
BLACK
6
CONTINUOUS
10
2.35538
20
-6.15311
11
2.35533
21
-6.15285
0
LINE
8
BLACK
6
CONTINUOUS
10
2.35533
20
-6.15285
11
2.35456
21
-6.14557
0
LINE
8
BLACK
6
CONTINUOUS
10
2.35456
20
-6.14557
11
2.35456
21
-6.14553
0
LINE
8
BLACK
6
CONTINUOUS
10
2.35456
20
-6.14553
11
2.35456
21
-6.1454
0
LINE
8
BLACK
6
CONTINUOUS
10
2.35456
20
-6.1454
11
2.35455
21
-6.14527
0
LINE
8
BLACK
6
CONTINUOUS
10
2.35455
20
-6.14527
11
2.35455
21
-6.14515
0
LINE
8
BLACK
6
CONTINUOUS
10
2.35455
20
-6.14515
11
2.35455
21
-6.14514
0
LINE
8
BLACK
6
CONTINUOUS
10
2.35455
20
-6.14514
11
2.35455
21
-6.14504
0
LINE
8
BLACK
6
CONTINUOUS
10
2.35455
20
-6.14504
11
2.35455
21
-6.14501
0
LINE
8
BLACK
6
CONTINUOUS
10
2.35455
20
-6.14501
11
2.35455
21
-6.14498
0
LINE
8
BLACK
6
CONTINUOUS
10
2.35455
20
-6.14498
11
2.35455
21
-1.51486
0
LINE
8
BLACK
6
CONTINUOUS
10
2.35455
20
-1.51486
11
2.35456
21
-1.51471
0
LINE
8
BLACK
6
CONTINUOUS
10
2.35456
20
-1.51471
11
2.35456
21
-1.51471
0
LINE
8
BLACK
6
CONTINUOUS
10
2.35456
20
-1.51471
11
2.35532
21
-1.50694
0
LINE
8
BLACK
6
CONTINUOUS
10
2.35532
20
-1.50694
11
2.35532
21
-1.50694
0
LINE
8
BLACK
6
CONTINUOUS
10
2.35532
20
-1.50694
11
2.35532
21
-1.50694
0
LINE
8
BLACK
6
CONTINUOUS
10
2.35532
20
-1.50694
11
2.35533
21
-1.5069
0
LINE
8
BLACK
6
CONTINUOUS
10
2.35533
20
-1.5069
11
2.35538
21
-1.50664
0
LINE
8
BLACK
6
CONTINUOUS
10
2.35538
20
-1.50664
11
2.35544
21
-1.50638
0
LINE
8
BLACK
6
CONTINUOUS
10
2.35544
20
-1.50638
11
2.35769
21
-1.4989
0
LINE
8
BLACK
6
CONTINUOUS
10
2.35769
20
-1.4989
11
2.3577
21
-1.49886
0
LINE
8
BLACK
6
CONTINUOUS
10
2.3577
20
-1.49886
11
2.35781
21
-1.49862
0
LINE
8
BLACK
6
CONTINUOUS
10
2.35781
20
-1.49862
11
2.35791
21
-1.49837
0
LINE
8
BLACK
6
CONTINUOUS
10
2.35791
20
-1.49837
11
2.36158
21
-1.49148
0
LINE
8
BLACK
6
CONTINUOUS
10
2.36158
20
-1.49148
11
2.36158
21
-1.49148
0
LINE
8
BLACK
6
CONTINUOUS
10
2.36158
20
-1.49148
11
2.36158
21
-1.49148
0
LINE
8
BLACK
6
CONTINUOUS
10
2.36158
20
-1.49148
11
2.3616
21
-1.49144
0
LINE
8
BLACK
6
CONTINUOUS
10
2.3616
20
-1.49144
11
2.36175
21
-1.49122
0
LINE
8
BLACK
6
CONTINUOUS
10
2.36175
20
-1.49122
11
2.3619
21
-1.491
0
LINE
8
BLACK
6
CONTINUOUS
10
2.3619
20
-1.491
11
2.36683
21
-1.48495
0
LINE
8
BLACK
6
CONTINUOUS
10
2.36683
20
-1.48495
11
2.36686
21
-1.48492
0
LINE
8
BLACK
6
CONTINUOUS
10
2.36686
20
-1.48492
11
2.36705
21
-1.48473
0
LINE
8
BLACK
6
CONTINUOUS
10
2.36705
20
-1.48473
11
2.36724
21
-1.48454
0
LINE
8
BLACK
6
CONTINUOUS
10
2.36724
20
-1.48454
11
2.37325
21
-1.47956
0
LINE
8
BLACK
6
CONTINUOUS
10
2.37325
20
-1.47956
11
2.37328
21
-1.47954
0
LINE
8
BLACK
6
CONTINUOUS
10
2.37328
20
-1.47954
11
2.37351
21
-1.47939
0
LINE
8
BLACK
6
CONTINUOUS
10
2.37351
20
-1.47939
11
2.37373
21
-1.47924
0
LINE
8
BLACK
6
CONTINUOUS
10
2.37373
20
-1.47924
11
2.3806
21
-1.47553
0
LINE
8
BLACK
6
CONTINUOUS
10
2.3806
20
-1.47553
11
2.38063
21
-1.47551
0
LINE
8
BLACK
6
CONTINUOUS
10
2.38063
20
-1.47551
11
2.38088
21
-1.47541
0
LINE
8
BLACK
6
CONTINUOUS
10
2.38088
20
-1.47541
11
2.38113
21
-1.4753
0
LINE
8
BLACK
6
CONTINUOUS
10
2.38113
20
-1.4753
11
2.38152
21
-1.47518
0
LINE
8
BLACK
6
CONTINUOUS
10
2.38152
20
-1.47518
11
2.38152
21
-1.47495
0
LINE
8
BLACK
6
CONTINUOUS
10
2.38152
20
-1.47495
11
2.38153
21
-1.47481
0
LINE
8
BLACK
6
CONTINUOUS
10
2.38153
20
-1.47481
11
2.38159
21
-1.47462
0
LINE
8
BLACK
6
CONTINUOUS
10
2.38159
20
-1.47462
11
2.38168
21
-1.47445
0
LINE
8
BLACK
6
CONTINUOUS
10
2.38168
20
-1.47445
11
2.3818
21
-1.4743
0
LINE
8
BLACK
6
CONTINUOUS
10
2.3818
20
-1.4743
11
2.38195
21
-1.47418
0
LINE
8
BLACK
6
CONTINUOUS
10
2.38195
20
-1.47418
11
2.38212
21
-1.47409
0
LINE
8
BLACK
6
CONTINUOUS
10
2.38212
20
-1.47409
11
2.38231
21
-1.47403
0
LINE
8
BLACK
6
CONTINUOUS
10
2.38231
20
-1.47403
11
2.3825
21
-1.47401
0
LINE
8
BLACK
6
CONTINUOUS
10
2.3825
20
-1.47401
11
2.38269
21
-1.47403
0
LINE
8
BLACK
6
CONTINUOUS
10
2.38269
20
-1.47403
11
2.38288
21
-1.47409
0
LINE
8
BLACK
6
CONTINUOUS
10
2.38288
20
-1.47409
11
2.38305
21
-1.47418
0
LINE
8
BLACK
6
CONTINUOUS
10
2.38305
20
-1.47418
11
2.3832
21
-1.4743
0
LINE
8
BLACK
6
CONTINUOUS
10
2.3832
20
-1.4743
11
2.38332
21
-1.47445
0
LINE
8
BLACK
6
CONTINUOUS
10
2.38332
20
-1.47445
11
2.3834
21
-1.4746
0
LINE
8
BLACK
6
CONTINUOUS
10
2.3834
20
-1.4746
11
2.38858
21
-1.473
0
LINE
8
BLACK
6
CONTINUOUS
10
2.38858
20
-1.473
11
2.38862
21
-1.47298
0
LINE
8
BLACK
6
CONTINUOUS
10
2.38862
20
-1.47298
11
2.38889
21
-1.47293
0
LINE
8
BLACK
6
CONTINUOUS
10
2.38889
20
-1.47293
11
2.38915
21
-1.47288
0
LINE
8
BLACK
6
CONTINUOUS
10
2.38915
20
-1.47288
11
2.39691
21
-1.47206
0
LINE
8
BLACK
6
CONTINUOUS
10
2.39691
20
-1.47206
11
2.39695
21
-1.47206
0
LINE
8
BLACK
6
CONTINUOUS
10
2.39695
20
-1.47206
11
2.39708
21
-1.47206
0
LINE
8
BLACK
6
CONTINUOUS
10
2.39708
20
-1.47206
11
2.39721
21
-1.47205
0
LINE
8
BLACK
6
CONTINUOUS
10
2.39721
20
-1.47205
11
2.39735
21
-1.47205
0
LINE
8
BLACK
6
CONTINUOUS
10
2.39735
20
-1.47205
11
2.39736
21
-1.47205
0
LINE
8
BLACK
6
CONTINUOUS
10
2.39736
20
-1.47205
11
3.13413
21
-1.47205
0
LINE
8
BLACK
6
CONTINUOUS
10
3.13413
20
-1.47205
11
3.13418
21
-1.47195
0
LINE
8
BLACK
6
CONTINUOUS
10
3.13418
20
-1.47195
11
3.1343
21
-1.4718
0
LINE
8
BLACK
6
CONTINUOUS
10
3.1343
20
-1.4718
11
3.13445
21
-1.47168
0
LINE
8
BLACK
6
CONTINUOUS
10
3.13445
20
-1.47168
11
3.13462
21
-1.47159
0
LINE
8
BLACK
6
CONTINUOUS
10
3.13462
20
-1.47159
11
3.13481
21
-1.47153
0
LINE
8
BLACK
6
CONTINUOUS
10
3.13481
20
-1.47153
11
3.135
21
-1.47151
0
LINE
8
BLACK
6
CONTINUOUS
10
3.135
20
-1.47151
11
3.13519
21
-1.47153
0
LINE
8
BLACK
6
CONTINUOUS
10
3.13519
20
-1.47153
11
3.13538
21
-1.47159
0
LINE
8
BLACK
6
CONTINUOUS
10
3.13538
20
-1.47159
11
3.13555
21
-1.47168
0
LINE
8
BLACK
6
CONTINUOUS
10
3.13555
20
-1.47168
11
3.1357
21
-1.4718
0
LINE
8
BLACK
6
CONTINUOUS
10
3.1357
20
-1.4718
11
3.13582
21
-1.47195
0
LINE
8
BLACK
6
CONTINUOUS
10
3.13582
20
-1.47195
11
3.13587
21
-1.47205
0
LINE
8
BLACK
6
CONTINUOUS
10
3.13587
20
-1.47205
11
9.88014
21
-1.47205
0
LINE
8
BLACK
6
CONTINUOUS
10
9.88014
20
-1.47205
11
9.88028
21
-1.47206
0
LINE
8
BLACK
6
CONTINUOUS
10
9.88028
20
-1.47206
11
9.88029
21
-1.47206
0
LINE
8
BLACK
6
CONTINUOUS
10
9.88029
20
-1.47206
11
9.89
21
-1.47301
0
LINE
8
BLACK
6
CONTINUOUS
10
9.89
20
-1.47301
11
9.89
21
-1.47301
0
LINE
8
BLACK
6
CONTINUOUS
10
9.89
20
-1.47301
11
9.89
21
-1.47301
0
LINE
8
BLACK
6
CONTINUOUS
10
9.89
20
-1.47301
11
9.89004
21
-1.47302
0
LINE
8
BLACK
6
CONTINUOUS
10
9.89004
20
-1.47302
11
9.8903
21
-1.47307
0
LINE
8
BLACK
6
CONTINUOUS
10
9.8903
20
-1.47307
11
9.89057
21
-1.47313
0
LINE
8
BLACK
6
CONTINUOUS
10
9.89057
20
-1.47313
11
9.89991
21
-1.47595
0
LINE
8
BLACK
6
CONTINUOUS
10
9.89991
20
-1.47595
11
9.89991
21
-1.47595
0
LINE
8
BLACK
6
CONTINUOUS
10
9.89991
20
-1.47595
11
9.89991
21
-1.47595
0
LINE
8
BLACK
6
CONTINUOUS
10
9.89991
20
-1.47595
11
9.89995
21
-1.47596
0
LINE
8
BLACK
6
CONTINUOUS
10
9.89995
20
-1.47596
11
9.90019
21
-1.47606
0
LINE
8
BLACK
6
CONTINUOUS
10
9.90019
20
-1.47606
11
9.90044
21
-1.47617
0
LINE
8
BLACK
6
CONTINUOUS
10
9.90044
20
-1.47617
11
9.90906
21
-1.48075
0
LINE
8
BLACK
6
CONTINUOUS
10
9.90906
20
-1.48075
11
9.90906
21
-1.48075
0
LINE
8
BLACK
6
CONTINUOUS
10
9.90906
20
-1.48075
11
9.90906
21
-1.48075
0
LINE
8
BLACK
6
CONTINUOUS
10
9.90906
20
-1.48075
11
9.90909
21
-1.48077
0
LINE
8
BLACK
6
CONTINUOUS
10
9.90909
20
-1.48077
11
9.90931
21
-1.48092
0
LINE
8
BLACK
6
CONTINUOUS
10
9.90931
20
-1.48092
11
9.90954
21
-1.48107
0
LINE
8
BLACK
6
CONTINUOUS
10
9.90954
20
-1.48107
11
9.9171
21
-1.48723
0
LINE
8
BLACK
6
CONTINUOUS
10
9.9171
20
-1.48723
11
9.91713
21
-1.48726
0
LINE
8
BLACK
6
CONTINUOUS
10
9.91713
20
-1.48726
11
9.91732
21
-1.48745
0
LINE
8
BLACK
6
CONTINUOUS
10
9.91732
20
-1.48745
11
9.91751
21
-1.48764
0
LINE
8
BLACK
6
CONTINUOUS
10
9.91751
20
-1.48764
11
9.92373
21
-1.49516
0
LINE
8
BLACK
6
CONTINUOUS
10
9.92373
20
-1.49516
11
9.92373
21
-1.49516
0
LINE
8
BLACK
6
CONTINUOUS
10
9.92373
20
-1.49516
11
9.92373
21
-1.49516
0
LINE
8
BLACK
6
CONTINUOUS
10
9.92373
20
-1.49516
11
9.92375
21
-1.49519
0
LINE
8
BLACK
6
CONTINUOUS
10
9.92375
20
-1.49519
11
9.9239
21
-1.49541
0
LINE
8
BLACK
6
CONTINUOUS
10
9.9239
20
-1.49541
11
9.92405
21
-1.49564
0
LINE
8
BLACK
6
CONTINUOUS
10
9.92405
20
-1.49564
11
9.92869
21
-1.50422
0
LINE
8
BLACK
6
CONTINUOUS
10
9.92869
20
-1.50422
11
9.92871
21
-1.50426
0
LINE
8
BLACK
6
CONTINUOUS
10
9.92871
20
-1.50426
11
9.92881
21
-1.5045
0
LINE
8
BLACK
6
CONTINUOUS
10
9.92881
20
-1.5045
11
9.92891
21
-1.50475
0
LINE
8
BLACK
6
CONTINUOUS
10
9.92891
20
-1.50475
11
9.9318
21
-1.51407
0
LINE
8
BLACK
6
CONTINUOUS
10
9.9318
20
-1.51407
11
9.93181
21
-1.51411
0
LINE
8
BLACK
6
CONTINUOUS
10
9.93181
20
-1.51411
11
9.93186
21
-1.51438
0
LINE
8
BLACK
6
CONTINUOUS
10
9.93186
20
-1.51438
11
9.93192
21
-1.51464
0
LINE
8
BLACK
6
CONTINUOUS
10
9.93192
20
-1.51464
11
9.93294
21
-1.52434
0
LINE
8
BLACK
6
CONTINUOUS
10
9.93294
20
-1.52434
11
9.93294
21
-1.52438
0
LINE
8
BLACK
6
CONTINUOUS
10
9.93294
20
-1.52438
11
9.93294
21
-1.52451
0
LINE
8
BLACK
6
CONTINUOUS
10
9.93294
20
-1.52451
11
9.93295
21
-1.52464
0
LINE
8
BLACK
6
CONTINUOUS
10
9.93295
20
-1.52464
11
9.93295
21
-1.52485
0
LINE
8
BLACK
6
CONTINUOUS
10
9.93295
20
-1.52485
11
9.93295
21
-1.52486
0
LINE
8
BLACK
6
CONTINUOUS
10
9.93295
20
-1.52486
11
9.93295
21
-5.44514
0
LINE
8
BLACK
6
CONTINUOUS
10
9.93295
20
-5.44514
11
9.93294
21
-5.44529
0
LINE
8
BLACK
6
CONTINUOUS
10
9.93294
20
-5.44529
11
9.93294
21
-5.44529
0
LINE
8
BLACK
6
CONTINUOUS
10
9.93294
20
-5.44529
11
9.93199
21
-5.455
0
LINE
8
BLACK
6
CONTINUOUS
10
9.93199
20
-5.455
11
9.93199
21
-5.455
0
LINE
8
BLACK
6
CONTINUOUS
10
9.93199
20
-5.455
11
9.93199
21
-5.455
0
LINE
8
BLACK
6
CONTINUOUS
10
9.93199
20
-5.455
11
9.93198
21
-5.45504
0
LINE
8
BLACK
6
CONTINUOUS
10
9.93198
20
-5.45504
11
9.93193
21
-5.4553
0
LINE
8
BLACK
6
CONTINUOUS
10
9.93193
20
-5.4553
11
9.93187
21
-5.45557
0
LINE
8
BLACK
6
CONTINUOUS
10
9.93187
20
-5.45557
11
9.92905
21
-5.46491
0
LINE
8
BLACK
6
CONTINUOUS
10
9.92905
20
-5.46491
11
9.92904
21
-5.46495
0
LINE
8
BLACK
6
CONTINUOUS
10
9.92904
20
-5.46495
11
9.92894
21
-5.46519
0
LINE
8
BLACK
6
CONTINUOUS
10
9.92894
20
-5.46519
11
9.92883
21
-5.46544
0
LINE
8
BLACK
6
CONTINUOUS
10
9.92883
20
-5.46544
11
9.92425
21
-5.47406
0
LINE
8
BLACK
6
CONTINUOUS
10
9.92425
20
-5.47406
11
9.92425
21
-5.47406
0
LINE
8
BLACK
6
CONTINUOUS
10
9.92425
20
-5.47406
11
9.92425
21
-5.47406
0
LINE
8
BLACK
6
CONTINUOUS
10
9.92425
20
-5.47406
11
9.92423
21
-5.47409
0
LINE
8
BLACK
6
CONTINUOUS
10
9.92423
20
-5.47409
11
9.92408
21
-5.47431
0
LINE
8
BLACK
6
CONTINUOUS
10
9.92408
20
-5.47431
11
9.92393
21
-5.47454
0
LINE
8
BLACK
6
CONTINUOUS
10
9.92393
20
-5.47454
11
9.91777
21
-5.4821
0
LINE
8
BLACK
6
CONTINUOUS
10
9.91777
20
-5.4821
11
9.91774
21
-5.48213
0
LINE
8
BLACK
6
CONTINUOUS
10
9.91774
20
-5.48213
11
9.91755
21
-5.48232
0
LINE
8
BLACK
6
CONTINUOUS
10
9.91755
20
-5.48232
11
9.91736
21
-5.48251
0
LINE
8
BLACK
6
CONTINUOUS
10
9.91736
20
-5.48251
11
9.90984
21
-5.48873
0
LINE
8
BLACK
6
CONTINUOUS
10
9.90984
20
-5.48873
11
9.90984
21
-5.48873
0
LINE
8
BLACK
6
CONTINUOUS
10
9.90984
20
-5.48873
11
9.90984
21
-5.48873
0
LINE
8
BLACK
6
CONTINUOUS
10
9.90984
20
-5.48873
11
9.90981
21
-5.48875
0
LINE
8
BLACK
6
CONTINUOUS
10
9.90981
20
-5.48875
11
9.90959
21
-5.4889
0
LINE
8
BLACK
6
CONTINUOUS
10
9.90959
20
-5.4889
11
9.90936
21
-5.48905
0
LINE
8
BLACK
6
CONTINUOUS
10
9.90936
20
-5.48905
11
9.90078
21
-5.49369
0
LINE
8
BLACK
6
CONTINUOUS
10
9.90078
20
-5.49369
11
9.90078
21
-5.49369
0
LINE
8
BLACK
6
CONTINUOUS
10
9.90078
20
-5.49369
11
9.90078
21
-5.49369
0
LINE
8
BLACK
6
CONTINUOUS
10
9.90078
20
-5.49369
11
9.90074
21
-5.49371
0
LINE
8
BLACK
6
CONTINUOUS
10
9.90074
20
-5.49371
11
9.9005
21
-5.49381
0
LINE
8
BLACK
6
CONTINUOUS
10
9.9005
20
-5.49381
11
9.90025
21
-5.49391
0
LINE
8
BLACK
6
CONTINUOUS
10
9.90025
20
-5.49391
11
9.89093
21
-5.4968
0
LINE
8
BLACK
6
CONTINUOUS
10
9.89093
20
-5.4968
11
9.89093
21
-5.4968
0
LINE
8
BLACK
6
CONTINUOUS
10
9.89093
20
-5.4968
11
9.89089
21
-5.49681
0
LINE
8
BLACK
6
CONTINUOUS
10
3.13598
20
-2.81995
11
3.13599
21
-2.82
0
LINE
8
BLACK
6
CONTINUOUS
10
3.13599
20
-2.82
11
3.13598
21
-2.82005
0
LINE
8
BLACK
6
CONTINUOUS
10
3.13598
20
-2.82005
11
3.13598
21
-2.82005
0
LINE
8
BLACK
6
CONTINUOUS
10
3.13598
20
-2.82005
11
3.13597
21
-2.82019
0
LINE
8
BLACK
6
CONTINUOUS
10
3.13597
20
-2.82019
11
3.13591
21
-2.82038
0
LINE
8
BLACK
6
CONTINUOUS
10
3.13591
20
-2.82038
11
3.13582
21
-2.82055
0
LINE
8
BLACK
6
CONTINUOUS
10
3.13582
20
-2.82055
11
3.1357
21
-2.8207
0
LINE
8
BLACK
6
CONTINUOUS
10
3.1357
20
-2.8207
11
3.13555
21
-2.82082
0
LINE
8
BLACK
6
CONTINUOUS
10
3.13555
20
-2.82082
11
3.13538
21
-2.82091
0
LINE
8
BLACK
6
CONTINUOUS
10
3.13538
20
-2.82091
11
3.13519
21
-2.82097
0
LINE
8
BLACK
6
CONTINUOUS
10
3.13519
20
-2.82097
11
3.135
21
-2.82099
0
LINE
8
BLACK
6
CONTINUOUS
10
3.135
20
-2.82099
11
3.13495
21
-2.82098
0
LINE
8
BLACK
6
CONTINUOUS
10
3.13495
20
-2.82098
11
2.38255
21
-2.82098
0
LINE
8
BLACK
6
CONTINUOUS
10
2.38255
20
-2.82098
11
2.3825
21
-2.82099
0
LINE
8
BLACK
6
CONTINUOUS
10
2.3825
20
-2.82099
11
2.38231
21
-2.82097
0
LINE
8
BLACK
6
CONTINUOUS
10
2.38231
20
-2.82097
11
2.38212
21
-2.82091
0
LINE
8
BLACK
6
CONTINUOUS
10
2.38212
20
-2.82091
11
2.38195
21
-2.82082
0
LINE
8
BLACK
6
CONTINUOUS
10
2.38195
20
-2.82082
11
2.3818
21
-2.8207
0
LINE
8
BLACK
6
CONTINUOUS
10
2.3818
20
-2.8207
11
2.38168
21
-2.82055
0
LINE
8
BLACK
6
CONTINUOUS
10
2.38168
20
-2.82055
11
2.38159
21
-2.82038
0
LINE
8
BLACK
6
CONTINUOUS
10
2.38159
20
-2.82038
11
2.38153
21
-2.82019
0
LINE
8
BLACK
6
CONTINUOUS
10
2.38153
20
-2.82019
11
2.38151
21
-2.82
0
LINE
8
BLACK
6
CONTINUOUS
10
2.38151
20
-2.82
11
2.38152
21
-2.81995
0
LINE
8
BLACK
6
CONTINUOUS
10
2.38152
20
-2.81995
11
2.38152
21
-1.48174
0
LINE
8
BLACK
6
CONTINUOUS
10
2.38152
20
-1.48174
11
2.37679
21
-1.4843
0
LINE
8
BLACK
6
CONTINUOUS
10
2.37679
20
-1.4843
11
2.37122
21
-1.48891
0
LINE
8
BLACK
6
CONTINUOUS
10
2.37122
20
-1.48891
11
2.36665
21
-1.49451
0
LINE
8
BLACK
6
CONTINUOUS
10
2.36665
20
-1.49451
11
2.36326
21
-1.50089
0
LINE
8
BLACK
6
CONTINUOUS
10
2.36326
20
-1.50089
11
2.36117
21
-1.50781
0
LINE
8
BLACK
6
CONTINUOUS
10
2.36117
20
-1.50781
11
2.36045
21
-1.51514
0
LINE
8
BLACK
6
CONTINUOUS
10
2.36045
20
-1.51514
11
2.36045
21
-6.14501
0
LINE
8
BLACK
6
CONTINUOUS
10
2.36045
20
-6.14501
11
2.36045
21
-6.1451
0
LINE
8
BLACK
6
CONTINUOUS
10
2.36045
20
-6.1451
11
2.36117
21
-6.15194
0
LINE
8
BLACK
6
CONTINUOUS
10
2.36117
20
-6.15194
11
2.36317
21
-6.15838
0
LINE
8
BLACK
6
CONTINUOUS
10
2.36317
20
-6.15838
11
2.36637
21
-6.16431
0
LINE
8
BLACK
6
CONTINUOUS
10
2.36637
20
-6.16431
11
2.37067
21
-6.1695
0
LINE
8
BLACK
6
CONTINUOUS
10
2.37067
20
-6.1695
11
2.37589
21
-6.17376
0
LINE
8
BLACK
6
CONTINUOUS
10
2.37589
20
-6.17376
11
2.38184
21
-6.17693
0
LINE
8
BLACK
6
CONTINUOUS
10
2.38184
20
-6.17693
11
2.38829
21
-6.17888
0
LINE
8
BLACK
6
CONTINUOUS
10
2.38829
20
-6.17888
11
2.39514
21
-6.17955
0
LINE
8
BLACK
6
CONTINUOUS
10
2.39514
20
-6.17955
11
3.82469
21
-6.17955
0
LINE
8
BLACK
6
CONTINUOUS
10
3.82469
20
-6.17955
11
7.07176
21
-5.49214
0
LINE
8
BLACK
6
CONTINUOUS
10
7.07176
20
-5.49214
11
7.07192
21
-5.49209
0
LINE
8
BLACK
6
CONTINUOUS
10
7.07192
20
-5.49209
11
7.07219
21
-5.49206
0
LINE
8
BLACK
6
CONTINUOUS
10
7.07219
20
-5.49206
11
7.07246
21
-5.49203
0
LINE
8
BLACK
6
CONTINUOUS
10
7.07246
20
-5.49203
11
7.07263
21
-5.49205
0
LINE
8
BLACK
6
CONTINUOUS
10
7.07263
20
-5.49205
11
9.88001
21
-5.49205
0
LINE
8
BLACK
6
CONTINUOUS
10
9.88001
20
-5.49205
11
9.88019
21
-5.49205
0
LINE
8
BLACK
6
CONTINUOUS
10
9.88019
20
-5.49205
11
9.88946
21
-5.49107
0
LINE
8
BLACK
6
CONTINUOUS
10
9.88946
20
-5.49107
11
9.89823
21
-5.48836
0
LINE
8
BLACK
6
CONTINUOUS
10
9.89823
20
-5.48836
11
9.9063
21
-5.48399
0
LINE
8
BLACK
6
CONTINUOUS
10
9.9063
20
-5.48399
11
9.91337
21
-5.47814
0
LINE
8
BLACK
6
CONTINUOUS
10
9.91337
20
-5.47814
11
9.91917
21
-5.47103
0
LINE
8
BLACK
6
CONTINUOUS
10
9.91917
20
-5.47103
11
9.92348
21
-5.46292
0
LINE
8
BLACK
6
CONTINUOUS
10
9.92348
20
-5.46292
11
9.92614
21
-5.45414
0
LINE
8
BLACK
6
CONTINUOUS
10
9.92614
20
-5.45414
11
9.92705
21
-5.44486
0
LINE
8
BLACK
6
CONTINUOUS
10
9.92705
20
-5.44486
11
9.92705
21
-1.52501
0
LINE
8
BLACK
6
CONTINUOUS
10
9.92705
20
-1.52501
11
9.92705
21
-1.52501
0
LINE
8
BLACK
6
CONTINUOUS
10
9.92705
20
-1.52501
11
9.92705
21
-1.52481
0
LINE
8
BLACK
6
CONTINUOUS
10
9.92705
20
-1.52481
11
9.92607
21
-1.51554
0
LINE
8
BLACK
6
CONTINUOUS
10
9.92607
20
-1.51554
11
9.92336
21
-1.50677
0
LINE
8
BLACK
6
CONTINUOUS
10
9.92336
20
-1.50677
11
9.91899
21
-1.4987
0
LINE
8
BLACK
6
CONTINUOUS
10
9.91899
20
-1.4987
11
9.91314
21
-1.49163
0
LINE
8
BLACK
6
CONTINUOUS
10
9.91314
20
-1.49163
11
9.90603
21
-1.48582
0
LINE
8
BLACK
6
CONTINUOUS
10
9.90603
20
-1.48582
11
9.89792
21
-1.48152
0
LINE
8
BLACK
6
CONTINUOUS
10
9.89792
20
-1.48152
11
9.88914
21
-1.47886
0
LINE
8
BLACK
6
CONTINUOUS
10
9.88914
20
-1.47886
11
9.87986
21
-1.47795
0
LINE
8
BLACK
6
CONTINUOUS
10
9.87986
20
-1.47795
11
3.13598
21
-1.47795
0
LINE
8
BLACK
6
CONTINUOUS
10
3.13598
20
-1.47795
11
3.13598
21
-2.81995
0
LINE
8
BLACK
6
CONTINUOUS
10
2.39751
20
-1.47795
11
2.39738
21
-1.47795
0
LINE
8
BLACK
6
CONTINUOUS
10
2.39738
20
-1.47795
11
2.39005
21
-1.47872
0
LINE
8
BLACK
6
CONTINUOUS
10
2.39005
20
-1.47872
11
2.38348
21
-1.48076
0
LINE
8
BLACK
6
CONTINUOUS
10
2.38348
20
-1.48076
11
2.38348
21
-2.81902
0
LINE
8
BLACK
6
CONTINUOUS
10
2.38348
20
-2.81902
11
3.13402
21
-2.81902
0
LINE
8
BLACK
6
CONTINUOUS
10
3.13402
20
-2.81902
11
3.13402
21
-1.47795
0
LINE
8
BLACK
6
CONTINUOUS
10
3.13402
20
-1.47795
11
2.39751
21
-1.47795
0
LINE
8
BLACK
6
CONTINUOUS
10
2.39751
20
-1.47795
11
2.39751
21
-1.47795
0
LINE
8
BLACK
6
CONTINUOUS
10
3.14505
20
-5.40152
11
3.14505
21
-5.40152
0
LINE
8
BLACK
6
CONTINUOUS
10
3.14505
20
-5.40152
11
3.14519
21
-5.40153
0
LINE
8
BLACK
6
CONTINUOUS
10
3.14519
20
-5.40153
11
3.14538
21
-5.40159
0
LINE
8
BLACK
6
CONTINUOUS
10
3.14538
20
-5.40159
11
3.14555
21
-5.40168
0
LINE
8
BLACK
6
CONTINUOUS
10
3.14555
20
-5.40168
11
3.1457
21
-5.4018
0
LINE
8
BLACK
6
CONTINUOUS
10
3.1457
20
-5.4018
11
3.14582
21
-5.40195
0
LINE
8
BLACK
6
CONTINUOUS
10
3.14582
20
-5.40195
11
3.14591
21
-5.40212
0
LINE
8
BLACK
6
CONTINUOUS
10
3.14591
20
-5.40212
11
3.14597
21
-5.40231
0
LINE
8
BLACK
6
CONTINUOUS
10
3.14597
20
-5.40231
11
3.14599
21
-5.4025
0
LINE
8
BLACK
6
CONTINUOUS
10
3.14599
20
-5.4025
11
3.14598
21
-5.40255
0
LINE
8
BLACK
6
CONTINUOUS
10
3.14598
20
-5.40255
11
3.14598
21
-5.96245
0
LINE
8
BLACK
6
CONTINUOUS
10
3.14598
20
-5.96245
11
3.14599
21
-5.9625
0
LINE
8
BLACK
6
CONTINUOUS
10
3.14599
20
-5.9625
11
3.14598
21
-5.96255
0
LINE
8
BLACK
6
CONTINUOUS
10
3.14598
20
-5.96255
11
3.14598
21
-5.96255
0
LINE
8
BLACK
6
CONTINUOUS
10
3.14598
20
-5.96255
11
3.14597
21
-5.96269
0
LINE
8
BLACK
6
CONTINUOUS
10
3.14597
20
-5.96269
11
3.14591
21
-5.96288
0
LINE
8
BLACK
6
CONTINUOUS
10
3.14591
20
-5.96288
11
3.14582
21
-5.96305
0
LINE
8
BLACK
6
CONTINUOUS
10
3.14582
20
-5.96305
11
3.1457
21
-5.9632
0
LINE
8
BLACK
6
CONTINUOUS
10
3.1457
20
-5.9632
11
3.14555
21
-5.96332
0
LINE
8
BLACK
6
CONTINUOUS
10
3.14555
20
-5.96332
11
3.14538
21
-5.96341
0
LINE
8
BLACK
6
CONTINUOUS
10
3.14538
20
-5.96341
11
3.14519
21
-5.96347
0
LINE
8
BLACK
6
CONTINUOUS
10
3.14519
20
-5.96347
11
3.145
21
-5.96349
0
LINE
8
BLACK
6
CONTINUOUS
10
3.145
20
-5.96349
11
3.14495
21
-5.96348
0
LINE
8
BLACK
6
CONTINUOUS
10
3.14495
20
-5.96348
11
2.45505
21
-5.96348
0
LINE
8
BLACK
6
CONTINUOUS
10
2.45505
20
-5.96348
11
2.455
21
-5.96349
0
LINE
8
BLACK
6
CONTINUOUS
10
2.455
20
-5.96349
11
2.45481
21
-5.96347
0
LINE
8
BLACK
6
CONTINUOUS
10
2.45481
20
-5.96347
11
2.45462
21
-5.96341
0
LINE
8
BLACK
6
CONTINUOUS
10
2.45462
20
-5.96341
11
2.45445
21
-5.96332
0
LINE
8
BLACK
6
CONTINUOUS
10
2.45445
20
-5.96332
11
2.4543
21
-5.9632
0
LINE
8
BLACK
6
CONTINUOUS
10
2.4543
20
-5.9632
11
2.45418
21
-5.96305
0
LINE
8
BLACK
6
CONTINUOUS
10
2.45418
20
-5.96305
11
2.45409
21
-5.96288
0
LINE
8
BLACK
6
CONTINUOUS
10
2.45409
20
-5.96288
11
2.45403
21
-5.96269
0
LINE
8
BLACK
6
CONTINUOUS
10
2.45403
20
-5.96269
11
2.45401
21
-5.9625
0
LINE
8
BLACK
6
CONTINUOUS
10
2.45401
20
-5.9625
11
2.45402
21
-5.96245
0
LINE
8
BLACK
6
CONTINUOUS
10
2.45402
20
-5.96245
11
2.45402
21
-5.40255
0
LINE
8
BLACK
6
CONTINUOUS
10
2.45402
20
-5.40255
11
2.45401
21
-5.4025
0
LINE
8
BLACK
6
CONTINUOUS
10
2.45401
20
-5.4025
11
2.45403
21
-5.40231
0
LINE
8
BLACK
6
CONTINUOUS
10
2.45403
20
-5.40231
11
2.45409
21
-5.40212
0
LINE
8
BLACK
6
CONTINUOUS
10
2.45409
20
-5.40212
11
2.45418
21
-5.40195
0
LINE
8
BLACK
6
CONTINUOUS
10
2.45418
20
-5.40195
11
2.4543
21
-5.4018
0
LINE
8
BLACK
6
CONTINUOUS
10
2.4543
20
-5.4018
11
2.45445
21
-5.40168
0
LINE
8
BLACK
6
CONTINUOUS
10
2.45445
20
-5.40168
11
2.45462
21
-5.40159
0
LINE
8
BLACK
6
CONTINUOUS
10
2.45462
20
-5.40159
11
2.45481
21
-5.40153
0
LINE
8
BLACK
6
CONTINUOUS
10
2.45481
20
-5.40153
11
2.45495
21
-5.40152
0
LINE
8
BLACK
6
CONTINUOUS
10
2.45495
20
-5.40152
11
2.45495
21
-5.40152
0
LINE
8
BLACK
6
CONTINUOUS
10
2.45495
20
-5.40152
11
2.455
21
-5.40151
0
LINE
8
BLACK
6
CONTINUOUS
10
2.455
20
-5.40151
11
2.45505
21
-5.40152
0
LINE
8
BLACK
6
CONTINUOUS
10
2.45505
20
-5.40152
11
3.14495
21
-5.40152
0
LINE
8
BLACK
6
CONTINUOUS
10
3.14495
20
-5.40152
11
3.145
21
-5.40151
0
LINE
8
BLACK
6
CONTINUOUS
10
3.145
20
-5.40151
11
3.14505
21
-5.40152
0
LINE
8
BLACK
6
CONTINUOUS
10
2.45598
20
-5.40348
11
2.45598
21
-5.96152
0
LINE
8
BLACK
6
CONTINUOUS
10
2.45598
20
-5.96152
11
3.14402
21
-5.96152
0
LINE
8
BLACK
6
CONTINUOUS
10
3.14402
20
-5.96152
11
3.14402
21
-5.40348
0
LINE
8
BLACK
6
CONTINUOUS
10
3.14402
20
-5.40348
11
2.45598
21
-5.40348
0
LINE
8
BLACK
6
CONTINUOUS
10
7.83255
20
-1.72902
11
7.83255
21
-1.72902
0
LINE
8
BLACK
6
CONTINUOUS
10
7.83255
20
-1.72902
11
7.83269
21
-1.72903
0
LINE
8
BLACK
6
CONTINUOUS
10
7.83269
20
-1.72903
11
7.83288
21
-1.72909
0
LINE
8
BLACK
6
CONTINUOUS
10
7.83288
20
-1.72909
11
7.83305
21
-1.72918
0
LINE
8
BLACK
6
CONTINUOUS
10
7.83305
20
-1.72918
11
7.8332
21
-1.7293
0
LINE
8
BLACK
6
CONTINUOUS
10
7.8332
20
-1.7293
11
7.83332
21
-1.72945
0
LINE
8
BLACK
6
CONTINUOUS
10
7.83332
20
-1.72945
11
7.83341
21
-1.72962
0
LINE
8
BLACK
6
CONTINUOUS
10
7.83341
20
-1.72962
11
7.83347
21
-1.72981
0
LINE
8
BLACK
6
CONTINUOUS
10
7.83347
20
-1.72981
11
7.83349
21
-1.73
0
LINE
8
BLACK
6
CONTINUOUS
10
7.83349
20
-1.73
11
7.83348
21
-1.73005
0
LINE
8
BLACK
6
CONTINUOUS
10
7.83348
20
-1.73005
11
7.83348
21
-2.27995
0
LINE
8
BLACK
6
CONTINUOUS
10
7.83348
20
-2.27995
11
7.83349
21
-2.28
0
LINE
8
BLACK
6
CONTINUOUS
10
7.83349
20
-2.28
11
7.83348
21
-2.28005
0
LINE
8
BLACK
6
CONTINUOUS
10
7.83348
20
-2.28005
11
7.83348
21
-2.28005
0
LINE
8
BLACK
6
CONTINUOUS
10
7.83348
20
-2.28005
11
7.83347
21
-2.28019
0
LINE
8
BLACK
6
CONTINUOUS
10
7.83347
20
-2.28019
11
7.83341
21
-2.28038
0
LINE
8
BLACK
6
CONTINUOUS
10
7.83341
20
-2.28038
11
7.83332
21
-2.28055
0
LINE
8
BLACK
6
CONTINUOUS
10
7.83332
20
-2.28055
11
7.8332
21
-2.2807
0
LINE
8
BLACK
6
CONTINUOUS
10
7.8332
20
-2.2807
11
7.83305
21
-2.28082
0
LINE
8
BLACK
6
CONTINUOUS
10
7.83305
20
-2.28082
11
7.83288
21
-2.28091
0
LINE
8
BLACK
6
CONTINUOUS
10
7.83288
20
-2.28091
11
7.83269
21
-2.28097
0
LINE
8
BLACK
6
CONTINUOUS
10
7.83269
20
-2.28097
11
7.8325
21
-2.28099
0
LINE
8
BLACK
6
CONTINUOUS
10
7.8325
20
-2.28099
11
7.83245
21
-2.28098
0
LINE
8
BLACK
6
CONTINUOUS
10
7.83245
20
-2.28098
11
7.28255
21
-2.28098
0
LINE
8
BLACK
6
CONTINUOUS
10
7.28255
20
-2.28098
11
7.2825
21
-2.28099
0
LINE
8
BLACK
6
CONTINUOUS
10
7.2825
20
-2.28099
11
7.28231
21
-2.28097
0
LINE
8
BLACK
6
CONTINUOUS
10
7.28231
20
-2.28097
11
7.28212
21
-2.28091
0
LINE
8
BLACK
6
CONTINUOUS
10
7.28212
20
-2.28091
11
7.28195
21
-2.28082
0
LINE
8
BLACK
6
CONTINUOUS
10
7.28195
20
-2.28082
11
7.2818
21
-2.2807
0
LINE
8
BLACK
6
CONTINUOUS
10
7.2818
20
-2.2807
11
7.28168
21
-2.28055
0
LINE
8
BLACK
6
CONTINUOUS
10
7.28168
20
-2.28055
11
7.28159
21
-2.28038
0
LINE
8
BLACK
6
CONTINUOUS
10
7.28159
20
-2.28038
11
7.28153
21
-2.28019
0
LINE
8
BLACK
6
CONTINUOUS
10
7.28153
20
-2.28019
11
7.28151
21
-2.28
0
LINE
8
BLACK
6
CONTINUOUS
10
7.28151
20
-2.28
11
7.28152
21
-2.27995
0
LINE
8
BLACK
6
CONTINUOUS
10
7.28152
20
-2.27995
11
7.28152
21
-1.73005
0
LINE
8
BLACK
6
CONTINUOUS
10
7.28152
20
-1.73005
11
7.28151
21
-1.73
0
LINE
8
BLACK
6
CONTINUOUS
10
7.28151
20
-1.73
11
7.28153
21
-1.72981
0
LINE
8
BLACK
6
CONTINUOUS
10
7.28153
20
-1.72981
11
7.28159
21
-1.72962
0
LINE
8
BLACK
6
CONTINUOUS
10
7.28159
20
-1.72962
11
7.28168
21
-1.72945
0
LINE
8
BLACK
6
CONTINUOUS
10
7.28168
20
-1.72945
11
7.2818
21
-1.7293
0
LINE
8
BLACK
6
CONTINUOUS
10
7.2818
20
-1.7293
11
7.28195
21
-1.72918
0
LINE
8
BLACK
6
CONTINUOUS
10
7.28195
20
-1.72918
11
7.28212
21
-1.72909
0
LINE
8
BLACK
6
CONTINUOUS
10
7.28212
20
-1.72909
11
7.28231
21
-1.72903
0
LINE
8
BLACK
6
CONTINUOUS
10
7.28231
20
-1.72903
11
7.28245
21
-1.72902
0
LINE
8
BLACK
6
CONTINUOUS
10
7.28245
20
-1.72902
11
7.28245
21
-1.72902
0
LINE
8
BLACK
6
CONTINUOUS
10
7.28245
20
-1.72902
11
7.2825
21
-1.72901
0
LINE
8
BLACK
6
CONTINUOUS
10
7.2825
20
-1.72901
11
7.28255
21
-1.72902
0
LINE
8
BLACK
6
CONTINUOUS
10
7.28255
20
-1.72902
11
7.83245
21
-1.72902
0
LINE
8
BLACK
6
CONTINUOUS
10
7.83245
20
-1.72902
11
7.8325
21
-1.72901
0
LINE
8
BLACK
6
CONTINUOUS
10
7.8325
20
-1.72901
11
7.83255
21
-1.72902
0
LINE
8
BLACK
6
CONTINUOUS
10
7.28348
20
-1.73098
11
7.28348
21
-2.27902
0
LINE
8
BLACK
6
CONTINUOUS
10
7.28348
20
-2.27902
11
7.83152
21
-2.27902
0
LINE
8
BLACK
6
CONTINUOUS
10
7.83152
20
-2.27902
11
7.83152
21
-1.73098
0
LINE
8
BLACK
6
CONTINUOUS
10
7.83152
20
-1.73098
11
7.28348
21
-1.73098
0
LINE
8
BLACK
6
CONTINUOUS
10
9.43255
20
-1.62652
11
9.43255
21
-1.62652
0
LINE
8
BLACK
6
CONTINUOUS
10
9.43255
20
-1.62652
11
9.43269
21
-1.62653
0
LINE
8
BLACK
6
CONTINUOUS
10
9.43269
20
-1.62653
11
9.43288
21
-1.62659
0
LINE
8
BLACK
6
CONTINUOUS
10
9.43288
20
-1.62659
11
9.43305
21
-1.62668
0
LINE
8
BLACK
6
CONTINUOUS
10
9.43305
20
-1.62668
11
9.4332
21
-1.6268
0
LINE
8
BLACK
6
CONTINUOUS
10
9.4332
20
-1.6268
11
9.43332
21
-1.62695
0
LINE
8
BLACK
6
CONTINUOUS
10
9.43332
20
-1.62695
11
9.43341
21
-1.62712
0
LINE
8
BLACK
6
CONTINUOUS
10
9.43341
20
-1.62712
11
9.43347
21
-1.62731
0
LINE
8
BLACK
6
CONTINUOUS
10
9.43347
20
-1.62731
11
9.43349
21
-1.6275
0
LINE
8
BLACK
6
CONTINUOUS
10
9.43349
20
-1.6275
11
9.43348
21
-1.62755
0
LINE
8
BLACK
6
CONTINUOUS
10
9.43348
20
-1.62755
11
9.43348
21
-1.86505
0
LINE
8
BLACK
6
CONTINUOUS
10
9.43348
20
-1.86505
11
9.43347
21
-1.86519
0
LINE
8
BLACK
6
CONTINUOUS
10
9.43347
20
-1.86519
11
9.43341
21
-1.86538
0
LINE
8
BLACK
6
CONTINUOUS
10
9.43341
20
-1.86538
11
9.43332
21
-1.86555
0
LINE
8
BLACK
6
CONTINUOUS
10
9.43332
20
-1.86555
11
9.4332
21
-1.8657
0
LINE
8
BLACK
6
CONTINUOUS
10
9.4332
20
-1.8657
11
9.43305
21
-1.86582
0
LINE
8
BLACK
6
CONTINUOUS
10
9.43305
20
-1.86582
11
9.43288
21
-1.86591
0
LINE
8
BLACK
6
CONTINUOUS
10
9.43288
20
-1.86591
11
9.43269
21
-1.86597
0
LINE
8
BLACK
6
CONTINUOUS
10
9.43269
20
-1.86597
11
9.4325
21
-1.86599
0
LINE
8
BLACK
6
CONTINUOUS
10
9.4325
20
-1.86599
11
9.43231
21
-1.86597
0
LINE
8
BLACK
6
CONTINUOUS
10
9.43231
20
-1.86597
11
9.43212
21
-1.86591
0
LINE
8
BLACK
6
CONTINUOUS
10
9.43212
20
-1.86591
11
9.43195
21
-1.86582
0
LINE
8
BLACK
6
CONTINUOUS
10
9.43195
20
-1.86582
11
9.4318
21
-1.8657
0
LINE
8
BLACK
6
CONTINUOUS
10
9.4318
20
-1.8657
11
9.43168
21
-1.86555
0
LINE
8
BLACK
6
CONTINUOUS
10
9.43168
20
-1.86555
11
9.43159
21
-1.86538
0
LINE
8
BLACK
6
CONTINUOUS
10
9.43159
20
-1.86538
11
9.43153
21
-1.86519
0
LINE
8
BLACK
6
CONTINUOUS
10
9.43153
20
-1.86519
11
9.43152
21
-1.86505
0
LINE
8
BLACK
6
CONTINUOUS
10
9.43152
20
-1.86505
11
9.43152
21
-1.62848
0
LINE
8
BLACK
6
CONTINUOUS
10
9.43152
20
-1.62848
11
9.10495
21
-1.62848
0
LINE
8
BLACK
6
CONTINUOUS
10
9.10495
20
-1.62848
11
9.10481
21
-1.62847
0
LINE
8
BLACK
6
CONTINUOUS
10
9.10481
20
-1.62847
11
9.10462
21
-1.62841
0
LINE
8
BLACK
6
CONTINUOUS
10
9.10462
20
-1.62841
11
9.10445
21
-1.62832
0
LINE
8
BLACK
6
CONTINUOUS
10
9.10445
20
-1.62832
11
9.1043
21
-1.6282
0
LINE
8
BLACK
6
CONTINUOUS
10
9.1043
20
-1.6282
11
9.10418
21
-1.62805
0
LINE
8
BLACK
6
CONTINUOUS
10
9.10418
20
-1.62805
11
9.10409
21
-1.62788
0
LINE
8
BLACK
6
CONTINUOUS
10
9.10409
20
-1.62788
11
9.10403
21
-1.62769
0
LINE
8
BLACK
6
CONTINUOUS
10
9.10403
20
-1.62769
11
9.10401
21
-1.6275
0
LINE
8
BLACK
6
CONTINUOUS
10
9.10401
20
-1.6275
11
9.10403
21
-1.62731
0
LINE
8
BLACK
6
CONTINUOUS
10
9.10403
20
-1.62731
11
9.10409
21
-1.62712
0
LINE
8
BLACK
6
CONTINUOUS
10
9.10409
20
-1.62712
11
9.10418
21
-1.62695
0
LINE
8
BLACK
6
CONTINUOUS
10
9.10418
20
-1.62695
11
9.1043
21
-1.6268
0
LINE
8
BLACK
6
CONTINUOUS
10
9.1043
20
-1.6268
11
9.10445
21
-1.62668
0
LINE
8
BLACK
6
CONTINUOUS
10
9.10445
20
-1.62668
11
9.10462
21
-1.62659
0
LINE
8
BLACK
6
CONTINUOUS
10
9.10462
20
-1.62659
11
9.10481
21
-1.62653
0
LINE
8
BLACK
6
CONTINUOUS
10
9.10481
20
-1.62653
11
9.10495
21
-1.62652
0
LINE
8
BLACK
6
CONTINUOUS
10
9.10495
20
-1.62652
11
9.43245
21
-1.62652
0
LINE
8
BLACK
6
CONTINUOUS
10
9.43245
20
-1.62652
11
9.4325
21
-1.62651
0
LINE
8
BLACK
6
CONTINUOUS
10
9.4325
20
-1.62651
11
9.43255
21
-1.62652
  0
ENDSEC
  0
EOF
