G04 #@! TF.GenerationSoftware,KiCad,Pcbnew,(5.1.6)-1*
G04 #@! TF.CreationDate,2020-07-24T14:43:52-07:00*
G04 #@! TF.ProjectId,Alipt-Keyboard-Left,416c6970-742d-44b6-9579-626f6172642d,rev?*
G04 #@! TF.SameCoordinates,Original*
G04 #@! TF.FileFunction,Soldermask,Top*
G04 #@! TF.FilePolarity,Negative*
%FSLAX46Y46*%
G04 Gerber Fmt 4.6, Leading zero omitted, Abs format (unit mm)*
G04 Created by KiCad (PCBNEW (5.1.6)-1) date 2020-07-24 14:43:52*
%MOMM*%
%LPD*%
G01*
G04 APERTURE LIST*
%ADD10C,4.800000*%
%ADD11C,2.600000*%
%ADD12C,4.400000*%
%ADD13C,2.100000*%
%ADD14C,1.924000*%
%ADD15O,2.000000X2.000000*%
%ADD16R,2.000000X2.000000*%
%ADD17C,0.100000*%
%ADD18R,1.924000X1.924000*%
%ADD19O,2.900000X2.100000*%
%ADD20C,1.600000*%
%ADD21C,1.797000*%
%ADD22C,3.450000*%
%ADD23C,2.400000*%
%ADD24R,3.600000X2.400000*%
%ADD25R,1.035000X1.543000*%
G04 APERTURE END LIST*
D10*
X151638000Y-150368000D03*
X40513004Y-102489003D03*
D11*
X192849500Y-143065500D03*
X186110167Y-144229756D03*
D12*
X189308814Y-147506394D03*
D13*
X184339824Y-146450203D03*
X194277804Y-148562586D03*
D10*
X200406000Y-49149006D03*
X180721000Y-75501500D03*
X90360504Y-67119500D03*
X80835496Y-128142993D03*
X200405991Y-132397505D03*
D14*
X228682684Y-48285500D03*
X228682684Y-50825500D03*
X228682684Y-53365500D03*
X228682684Y-55905500D03*
X228682684Y-58445500D03*
X228682684Y-60985500D03*
X228682684Y-63525500D03*
X228682684Y-66065500D03*
X228682684Y-68605500D03*
X228682684Y-71145500D03*
X228682684Y-73685500D03*
X228682684Y-76225500D03*
X213442684Y-76225500D03*
X213442684Y-73685500D03*
X213442684Y-71145500D03*
X213442684Y-68605500D03*
X213442684Y-66065500D03*
X213442684Y-63525500D03*
X213442684Y-60985500D03*
X213442684Y-58445500D03*
X213442684Y-55905500D03*
X213442684Y-53365500D03*
X213442684Y-50825500D03*
X213442684Y-48285500D03*
X229981499Y-59641245D03*
X229981499Y-64721245D03*
X214741499Y-49481245D03*
X229981499Y-52021245D03*
X229981499Y-74881245D03*
X214741499Y-77421245D03*
X229981499Y-67261245D03*
X229981499Y-69801245D03*
X214741499Y-67261245D03*
X214741499Y-72341245D03*
X214741499Y-59641245D03*
X214741499Y-57101245D03*
X214741499Y-52021245D03*
X214741499Y-62181245D03*
X229981499Y-77421245D03*
X214741499Y-69801245D03*
X229981499Y-49481245D03*
X229981499Y-54561245D03*
X214741499Y-74881245D03*
X229981499Y-57101245D03*
X229981499Y-62181245D03*
X214741499Y-64721245D03*
X229981499Y-72341245D03*
X214741499Y-54561245D03*
D15*
X208724500Y-115316000D03*
D16*
X208724500Y-110236000D03*
G36*
G01*
X198851327Y-148373411D02*
X198851327Y-148373411D01*
G75*
G02*
X198081091Y-147187351I207912J978148D01*
G01*
X198081091Y-147187351D01*
G75*
G02*
X199267151Y-146417115I978148J-207912D01*
G01*
X199267151Y-146417115D01*
G75*
G02*
X200037387Y-147603175I-207912J-978148D01*
G01*
X200037387Y-147603175D01*
G75*
G02*
X198851327Y-148373411I-978148J207912D01*
G01*
G37*
D17*
G36*
X198773284Y-153550312D02*
G01*
X196816989Y-153134489D01*
X197232812Y-151178194D01*
X199189107Y-151594017D01*
X198773284Y-153550312D01*
G37*
G36*
G01*
X178531327Y-143928411D02*
X178531327Y-143928411D01*
G75*
G02*
X177761091Y-142742351I207912J978148D01*
G01*
X177761091Y-142742351D01*
G75*
G02*
X178947151Y-141972115I978148J-207912D01*
G01*
X178947151Y-141972115D01*
G75*
G02*
X179717387Y-143158175I-207912J-978148D01*
G01*
X179717387Y-143158175D01*
G75*
G02*
X178531327Y-143928411I-978148J207912D01*
G01*
G37*
G36*
X178453284Y-149105312D02*
G01*
X176496989Y-148689489D01*
X176912812Y-146733194D01*
X178869107Y-147149017D01*
X178453284Y-149105312D01*
G37*
G36*
G01*
X135097327Y-136054411D02*
X135097327Y-136054411D01*
G75*
G02*
X134327091Y-134868351I207912J978148D01*
G01*
X134327091Y-134868351D01*
G75*
G02*
X135513151Y-134098115I978148J-207912D01*
G01*
X135513151Y-134098115D01*
G75*
G02*
X136283387Y-135284175I-207912J-978148D01*
G01*
X136283387Y-135284175D01*
G75*
G02*
X135097327Y-136054411I-978148J207912D01*
G01*
G37*
G36*
X135019284Y-141231312D02*
G01*
X133062989Y-140815489D01*
X133478812Y-138859194D01*
X135435107Y-139275017D01*
X135019284Y-141231312D01*
G37*
D15*
X59626500Y-130048000D03*
D16*
X59626500Y-135128000D03*
G36*
G01*
X194025327Y-127926411D02*
X194025327Y-127926411D01*
G75*
G02*
X193255091Y-126740351I207912J978148D01*
G01*
X193255091Y-126740351D01*
G75*
G02*
X194441151Y-125970115I978148J-207912D01*
G01*
X194441151Y-125970115D01*
G75*
G02*
X195211387Y-127156175I-207912J-978148D01*
G01*
X195211387Y-127156175D01*
G75*
G02*
X194025327Y-127926411I-978148J207912D01*
G01*
G37*
D17*
G36*
X193947284Y-133103312D02*
G01*
X191990989Y-132687489D01*
X192406812Y-130731194D01*
X194363107Y-131147017D01*
X193947284Y-133103312D01*
G37*
G36*
G01*
X175292827Y-123862411D02*
X175292827Y-123862411D01*
G75*
G02*
X174522591Y-122676351I207912J978148D01*
G01*
X174522591Y-122676351D01*
G75*
G02*
X175708651Y-121906115I978148J-207912D01*
G01*
X175708651Y-121906115D01*
G75*
G02*
X176478887Y-123092175I-207912J-978148D01*
G01*
X176478887Y-123092175D01*
G75*
G02*
X175292827Y-123862411I-978148J207912D01*
G01*
G37*
G36*
X175214784Y-129039312D02*
G01*
X173258489Y-128623489D01*
X173674312Y-126667194D01*
X175630607Y-127083017D01*
X175214784Y-129039312D01*
G37*
G36*
G01*
X156687327Y-119607911D02*
X156687327Y-119607911D01*
G75*
G02*
X155917091Y-118421851I207912J978148D01*
G01*
X155917091Y-118421851D01*
G75*
G02*
X157103151Y-117651615I978148J-207912D01*
G01*
X157103151Y-117651615D01*
G75*
G02*
X157873387Y-118837675I-207912J-978148D01*
G01*
X157873387Y-118837675D01*
G75*
G02*
X156687327Y-119607911I-978148J207912D01*
G01*
G37*
G36*
X156609284Y-124784812D02*
G01*
X154652989Y-124368989D01*
X155068812Y-122412694D01*
X157025107Y-122828517D01*
X156609284Y-124784812D01*
G37*
G36*
G01*
X137954827Y-115543911D02*
X137954827Y-115543911D01*
G75*
G02*
X137184591Y-114357851I207912J978148D01*
G01*
X137184591Y-114357851D01*
G75*
G02*
X138370651Y-113587615I978148J-207912D01*
G01*
X138370651Y-113587615D01*
G75*
G02*
X139140887Y-114773675I-207912J-978148D01*
G01*
X139140887Y-114773675D01*
G75*
G02*
X137954827Y-115543911I-978148J207912D01*
G01*
G37*
G36*
X137876784Y-120720812D02*
G01*
X135920489Y-120304989D01*
X136336312Y-118348694D01*
X138292607Y-118764517D01*
X137876784Y-120720812D01*
G37*
D15*
X117475000Y-110998000D03*
D16*
X117475000Y-116078000D03*
D15*
X95885000Y-110998000D03*
D16*
X95885000Y-116078000D03*
D15*
X55689500Y-89852500D03*
D16*
X55689500Y-94932500D03*
G36*
G01*
X188691327Y-107225411D02*
X188691327Y-107225411D01*
G75*
G02*
X187921091Y-106039351I207912J978148D01*
G01*
X187921091Y-106039351D01*
G75*
G02*
X189107151Y-105269115I978148J-207912D01*
G01*
X189107151Y-105269115D01*
G75*
G02*
X189877387Y-106455175I-207912J-978148D01*
G01*
X189877387Y-106455175D01*
G75*
G02*
X188691327Y-107225411I-978148J207912D01*
G01*
G37*
D17*
G36*
X188613284Y-112402312D02*
G01*
X186656989Y-111986489D01*
X187072812Y-110030194D01*
X189029107Y-110446017D01*
X188613284Y-112402312D01*
G37*
G36*
G01*
X170085827Y-103161411D02*
X170085827Y-103161411D01*
G75*
G02*
X169315591Y-101975351I207912J978148D01*
G01*
X169315591Y-101975351D01*
G75*
G02*
X170501651Y-101205115I978148J-207912D01*
G01*
X170501651Y-101205115D01*
G75*
G02*
X171271887Y-102391175I-207912J-978148D01*
G01*
X171271887Y-102391175D01*
G75*
G02*
X170085827Y-103161411I-978148J207912D01*
G01*
G37*
G36*
X170007784Y-108338312D02*
G01*
X168051489Y-107922489D01*
X168467312Y-105966194D01*
X170423607Y-106382017D01*
X170007784Y-108338312D01*
G37*
G36*
G01*
X151289827Y-99224411D02*
X151289827Y-99224411D01*
G75*
G02*
X150519591Y-98038351I207912J978148D01*
G01*
X150519591Y-98038351D01*
G75*
G02*
X151705651Y-97268115I978148J-207912D01*
G01*
X151705651Y-97268115D01*
G75*
G02*
X152475887Y-98454175I-207912J-978148D01*
G01*
X152475887Y-98454175D01*
G75*
G02*
X151289827Y-99224411I-978148J207912D01*
G01*
G37*
G36*
X151211784Y-104401312D02*
G01*
X149255489Y-103985489D01*
X149671312Y-102029194D01*
X151627607Y-102445017D01*
X151211784Y-104401312D01*
G37*
G36*
G01*
X132684327Y-95160411D02*
X132684327Y-95160411D01*
G75*
G02*
X131914091Y-93974351I207912J978148D01*
G01*
X131914091Y-93974351D01*
G75*
G02*
X133100151Y-93204115I978148J-207912D01*
G01*
X133100151Y-93204115D01*
G75*
G02*
X133870387Y-94390175I-207912J-978148D01*
G01*
X133870387Y-94390175D01*
G75*
G02*
X132684327Y-95160411I-978148J207912D01*
G01*
G37*
G36*
X132606284Y-100337312D02*
G01*
X130649989Y-99921489D01*
X131065812Y-97965194D01*
X133022107Y-98381017D01*
X132606284Y-100337312D01*
G37*
D15*
X112204500Y-91948000D03*
D16*
X112204500Y-97028000D03*
D15*
X85280500Y-91948000D03*
D16*
X85280500Y-97028000D03*
D15*
X60007500Y-70675500D03*
D16*
X60007500Y-75755500D03*
G36*
G01*
X187865827Y-87794411D02*
X187865827Y-87794411D01*
G75*
G02*
X187095591Y-86608351I207912J978148D01*
G01*
X187095591Y-86608351D01*
G75*
G02*
X188281651Y-85838115I978148J-207912D01*
G01*
X188281651Y-85838115D01*
G75*
G02*
X189051887Y-87024175I-207912J-978148D01*
G01*
X189051887Y-87024175D01*
G75*
G02*
X187865827Y-87794411I-978148J207912D01*
G01*
G37*
D17*
G36*
X187787784Y-92971312D02*
G01*
X185831489Y-92555489D01*
X186247312Y-90599194D01*
X188203607Y-91015017D01*
X187787784Y-92971312D01*
G37*
G36*
G01*
X169196827Y-83666911D02*
X169196827Y-83666911D01*
G75*
G02*
X168426591Y-82480851I207912J978148D01*
G01*
X168426591Y-82480851D01*
G75*
G02*
X169612651Y-81710615I978148J-207912D01*
G01*
X169612651Y-81710615D01*
G75*
G02*
X170382887Y-82896675I-207912J-978148D01*
G01*
X170382887Y-82896675D01*
G75*
G02*
X169196827Y-83666911I-978148J207912D01*
G01*
G37*
G36*
X169118784Y-88843812D02*
G01*
X167162489Y-88427989D01*
X167578312Y-86471694D01*
X169534607Y-86887517D01*
X169118784Y-88843812D01*
G37*
G36*
G01*
X150517779Y-79702158D02*
X150517779Y-79702158D01*
G75*
G02*
X149747543Y-78516098I207912J978148D01*
G01*
X149747543Y-78516098D01*
G75*
G02*
X150933603Y-77745862I978148J-207912D01*
G01*
X150933603Y-77745862D01*
G75*
G02*
X151703839Y-78931922I-207912J-978148D01*
G01*
X151703839Y-78931922D01*
G75*
G02*
X150517779Y-79702158I-978148J207912D01*
G01*
G37*
G36*
X150439736Y-84879059D02*
G01*
X148483441Y-84463236D01*
X148899264Y-82506941D01*
X150855559Y-82922764D01*
X150439736Y-84879059D01*
G37*
G36*
G01*
X131985827Y-75665911D02*
X131985827Y-75665911D01*
G75*
G02*
X131215591Y-74479851I207912J978148D01*
G01*
X131215591Y-74479851D01*
G75*
G02*
X132401651Y-73709615I978148J-207912D01*
G01*
X132401651Y-73709615D01*
G75*
G02*
X133171887Y-74895675I-207912J-978148D01*
G01*
X133171887Y-74895675D01*
G75*
G02*
X131985827Y-75665911I-978148J207912D01*
G01*
G37*
G36*
X131907784Y-80842812D02*
G01*
X129951489Y-80426989D01*
X130367312Y-78470694D01*
X132323607Y-78886517D01*
X131907784Y-80842812D01*
G37*
D16*
X111442500Y-77914500D03*
D15*
X111442500Y-72834500D03*
X88011000Y-72834500D03*
D16*
X88011000Y-77914500D03*
D15*
X63944500Y-51689000D03*
D16*
X63944500Y-56769000D03*
G36*
G01*
X201073827Y-70966911D02*
X201073827Y-70966911D01*
G75*
G02*
X200303591Y-69780851I207912J978148D01*
G01*
X200303591Y-69780851D01*
G75*
G02*
X201489651Y-69010615I978148J-207912D01*
G01*
X201489651Y-69010615D01*
G75*
G02*
X202259887Y-70196675I-207912J-978148D01*
G01*
X202259887Y-70196675D01*
G75*
G02*
X201073827Y-70966911I-978148J207912D01*
G01*
G37*
D17*
G36*
X200995784Y-76143812D02*
G01*
X199039489Y-75727989D01*
X199455312Y-73771694D01*
X201411607Y-74187517D01*
X200995784Y-76143812D01*
G37*
G36*
G01*
X182468327Y-66775911D02*
X182468327Y-66775911D01*
G75*
G02*
X181698091Y-65589851I207912J978148D01*
G01*
X181698091Y-65589851D01*
G75*
G02*
X182884151Y-64819615I978148J-207912D01*
G01*
X182884151Y-64819615D01*
G75*
G02*
X183654387Y-66005675I-207912J-978148D01*
G01*
X183654387Y-66005675D01*
G75*
G02*
X182468327Y-66775911I-978148J207912D01*
G01*
G37*
G36*
X182390284Y-71952812D02*
G01*
X180433989Y-71536989D01*
X180849812Y-69580694D01*
X182806107Y-69996517D01*
X182390284Y-71952812D01*
G37*
G36*
G01*
X163926327Y-62648411D02*
X163926327Y-62648411D01*
G75*
G02*
X163156091Y-61462351I207912J978148D01*
G01*
X163156091Y-61462351D01*
G75*
G02*
X164342151Y-60692115I978148J-207912D01*
G01*
X164342151Y-60692115D01*
G75*
G02*
X165112387Y-61878175I-207912J-978148D01*
G01*
X165112387Y-61878175D01*
G75*
G02*
X163926327Y-62648411I-978148J207912D01*
G01*
G37*
G36*
X163848284Y-67825312D02*
G01*
X161891989Y-67409489D01*
X162307812Y-65453194D01*
X164264107Y-65869017D01*
X163848284Y-67825312D01*
G37*
G36*
G01*
X145320827Y-58520911D02*
X145320827Y-58520911D01*
G75*
G02*
X144550591Y-57334851I207912J978148D01*
G01*
X144550591Y-57334851D01*
G75*
G02*
X145736651Y-56564615I978148J-207912D01*
G01*
X145736651Y-56564615D01*
G75*
G02*
X146506887Y-57750675I-207912J-978148D01*
G01*
X146506887Y-57750675D01*
G75*
G02*
X145320827Y-58520911I-978148J207912D01*
G01*
G37*
G36*
X145242784Y-63697812D02*
G01*
X143286489Y-63281989D01*
X143702312Y-61325694D01*
X145658607Y-61741517D01*
X145242784Y-63697812D01*
G37*
D15*
X124396500Y-51689000D03*
D16*
X124396500Y-56769000D03*
D15*
X105727500Y-53911500D03*
D16*
X105727500Y-58991500D03*
D15*
X86741000Y-53911500D03*
D16*
X86741000Y-58991500D03*
D11*
X78867000Y-89408000D03*
X72517000Y-91948000D03*
D12*
X76327000Y-94488000D03*
D13*
X71247000Y-94488000D03*
X81407000Y-94488000D03*
D18*
X213677501Y-86356501D03*
X213677501Y-83756501D03*
X213677501Y-81256501D03*
D19*
X219276500Y-95499500D03*
X220776500Y-99699500D03*
X224776500Y-99699500D03*
X227776500Y-99699500D03*
D20*
X222576500Y-97599500D03*
X229576500Y-97599500D03*
D19*
X224776500Y-93749500D03*
X227776500Y-93749500D03*
X219276500Y-97949500D03*
X220776500Y-93749500D03*
D20*
X229576500Y-95849500D03*
X222576500Y-95849500D03*
D21*
X217902091Y-81597500D03*
X220442091Y-81597500D03*
X222982091Y-81597500D03*
X225522091Y-81597500D03*
X213487000Y-97980500D03*
X213487000Y-100901500D03*
X222948500Y-86337761D03*
X217868500Y-86337761D03*
X217868500Y-88836500D03*
X222948500Y-88836500D03*
D13*
X82486500Y-56388000D03*
X72326500Y-56388000D03*
D12*
X77406500Y-56388000D03*
D11*
X73596500Y-53848000D03*
X79946500Y-51308000D03*
D13*
X101536500Y-56388000D03*
X91376500Y-56388000D03*
D12*
X96456500Y-56388000D03*
D11*
X92646500Y-53848000D03*
X98996500Y-51308000D03*
X117665500Y-49149000D03*
X111315500Y-51689000D03*
D12*
X115125500Y-54229000D03*
D13*
X110045500Y-54229000D03*
X120205500Y-54229000D03*
X140620304Y-59218086D03*
X130682324Y-57105703D03*
D12*
X135651314Y-58161894D03*
D11*
X132452667Y-54885256D03*
X139192000Y-53721000D03*
D13*
X159225804Y-63218586D03*
X149287824Y-61106203D03*
D12*
X154256814Y-62162394D03*
D11*
X151058167Y-58885756D03*
X157797500Y-57721500D03*
X176466500Y-61658500D03*
X169727167Y-62822756D03*
D12*
X172925814Y-66099394D03*
D13*
X167956824Y-65043203D03*
X177894804Y-67155586D03*
D11*
X195135500Y-65659000D03*
X188396167Y-66823256D03*
D12*
X191594814Y-70099894D03*
D13*
X186625824Y-69043703D03*
X196563804Y-71156086D03*
D11*
X56959500Y-49149000D03*
X50609500Y-51689000D03*
D12*
X54419500Y-54229000D03*
D13*
X49339500Y-54229000D03*
X59499500Y-54229000D03*
X83185000Y-75374500D03*
X73025000Y-75374500D03*
D12*
X78105000Y-75374500D03*
D11*
X74295000Y-72834500D03*
X80645000Y-70294500D03*
D13*
X106997500Y-75374500D03*
X96837500Y-75374500D03*
D12*
X101917500Y-75374500D03*
D11*
X98107500Y-72834500D03*
X104457500Y-70294500D03*
X125920500Y-70421500D03*
X119181167Y-71585756D03*
D12*
X122379814Y-74862394D03*
D13*
X117410824Y-73806203D03*
X127348804Y-75918586D03*
D11*
X144589500Y-74358500D03*
X137850167Y-75522756D03*
D12*
X141048814Y-78799394D03*
D13*
X136079824Y-77743203D03*
X146017804Y-79855586D03*
D11*
X163179686Y-78299606D03*
X156440353Y-79463862D03*
D12*
X159639000Y-82740500D03*
D13*
X154670010Y-81684309D03*
X164607990Y-83796692D03*
X183228804Y-87793086D03*
X173290824Y-85680703D03*
D12*
X178259814Y-86736894D03*
D11*
X175061167Y-83460256D03*
X181800500Y-82296000D03*
D13*
X55372000Y-73342500D03*
X45212000Y-73342500D03*
D12*
X50292000Y-73342500D03*
D11*
X46482000Y-70802500D03*
X52832000Y-68262500D03*
D13*
X107632500Y-94488000D03*
X97472500Y-94488000D03*
D12*
X102552500Y-94488000D03*
D11*
X98742500Y-91948000D03*
X105092500Y-89408000D03*
X126619000Y-90043000D03*
X119879667Y-91207256D03*
D12*
X123078314Y-94483894D03*
D13*
X118109324Y-93427703D03*
X128047304Y-95540086D03*
X146700990Y-99481192D03*
X136763010Y-97368809D03*
D12*
X141732000Y-98425000D03*
D11*
X138533353Y-95148362D03*
X145272686Y-93984106D03*
D13*
X165369990Y-103481692D03*
X155432010Y-101369309D03*
D12*
X160401000Y-102425500D03*
D11*
X157202353Y-99148862D03*
X163941686Y-97984606D03*
X182626000Y-101981000D03*
X175886667Y-103145256D03*
D12*
X179085314Y-106421894D03*
D13*
X174116324Y-105365703D03*
X184054304Y-107478086D03*
D11*
X48768000Y-87312500D03*
X42418000Y-89852500D03*
D12*
X46228000Y-92392500D03*
D13*
X41148000Y-92392500D03*
X51308000Y-92392500D03*
D22*
X88862000Y-106538000D03*
X65062000Y-106538000D03*
D12*
X65062000Y-121778000D03*
X88862000Y-121778000D03*
D13*
X82042000Y-113538000D03*
X71882000Y-113538000D03*
D12*
X76962000Y-113538000D03*
D11*
X73152000Y-110998000D03*
X79502000Y-108458000D03*
D13*
X113030000Y-113538000D03*
X102870000Y-113538000D03*
D12*
X107950000Y-113538000D03*
D11*
X104140000Y-110998000D03*
X110490000Y-108458000D03*
D13*
X133365990Y-116118192D03*
X123428010Y-114005809D03*
D12*
X128397000Y-115062000D03*
D11*
X125198353Y-111785362D03*
X131937686Y-110621106D03*
X150558500Y-114617500D03*
X143819167Y-115781756D03*
D12*
X147017814Y-119058394D03*
D13*
X142048824Y-118002203D03*
X151986804Y-120114586D03*
X170703990Y-124051586D03*
X160766010Y-121939203D03*
D12*
X165735000Y-122995394D03*
D11*
X162536353Y-119718756D03*
X169275686Y-118554500D03*
X187896500Y-122555000D03*
X181157167Y-123719256D03*
D12*
X184355814Y-126995894D03*
D13*
X179386824Y-125939703D03*
X189324804Y-128052086D03*
D11*
X72326500Y-127508000D03*
X65976500Y-130048000D03*
D12*
X69786500Y-132588000D03*
D13*
X64706500Y-132588000D03*
X74866500Y-132588000D03*
D11*
X127127000Y-130619500D03*
X120387667Y-131783756D03*
D12*
X123586314Y-135060394D03*
D13*
X118617324Y-134004203D03*
X128555304Y-136116586D03*
D11*
X162544686Y-136529106D03*
X155805353Y-137693362D03*
D12*
X159004000Y-140970000D03*
D13*
X154035010Y-139913809D03*
X163972990Y-142026192D03*
D12*
X168930764Y-151504085D03*
X145650851Y-146555787D03*
D22*
X148819425Y-131648818D03*
X172099338Y-136597116D03*
D23*
X226956000Y-115339500D03*
X226956000Y-112839500D03*
X226956000Y-110339500D03*
D24*
X219456000Y-118439500D03*
X219456000Y-107239500D03*
D23*
X212456000Y-115339500D03*
X212456000Y-110339500D03*
D25*
X213542880Y-94869000D03*
X212542120Y-94869000D03*
D23*
X225751000Y-84518500D03*
X230251000Y-84518500D03*
X225751000Y-91018500D03*
X230251000Y-91018500D03*
M02*
