M48
; DRILL file {KiCad (5.1.6)-1} date 07/24/20 14:45:42
; FORMAT={-:-/ absolute / inch / decimal}
; #@! TF.CreationDate,2020-07-24T14:45:42-07:00
; #@! TF.GenerationSoftware,Kicad,Pcbnew,(5.1.6)-1
; #@! TF.FileFunction,Plated,1,2,PTH
FMAT,2
INCH
T1C0.0118
T2C0.0315
T3C0.0320
T4C0.0394
T5C0.0433
T6C0.0591
T7C0.0866
%
G90
G05
T1
X8.0575Y-4.28
X8.1126Y-3.5225
X8.1425Y-3.4025
X8.2223Y-4.0375
X8.2223Y-4.0684
X8.2637Y-3.0074
X8.2705Y-3.188
X8.3221Y-2.4175
X8.3221Y-2.5325
X8.3221Y-2.6325
X8.4025Y-3.095
X8.5525Y-2.075
X8.6Y-2.0225
X8.635Y-2.1375
X8.635Y-2.525
X8.6675Y-2.135
X8.6675Y-2.565
X8.695Y-2.135
X8.695Y-2.6725
X8.7225Y-2.135
X8.7225Y-2.755
X8.7525Y-2.135
X8.7525Y-2.86
X8.7825Y-2.135
X8.7825Y-2.8975
X8.805Y-2.4775
X8.8061Y-2.135
X8.8275Y-2.955
X8.8375Y-2.2
X8.8375Y-2.3
X8.925Y-2.4
X8.925Y-2.495
T2
X4.625Y-4.37
X4.625Y-4.57
X7.3954Y-4.3786
X7.437Y-4.183
X2.3625Y-2.7825
X2.3625Y-2.9825
X2.5175Y-2.035
X2.5175Y-2.235
X8.2175Y-4.34
X8.2175Y-4.54
X6.6629Y-4.2186
X6.7045Y-4.023
X5.1629Y-3.1361
X5.2045Y-2.9405
X4.4175Y-3.62
X4.4175Y-3.82
X4.1625Y-2.1225
X4.1625Y-2.3225
X2.3475Y-5.12
X2.3475Y-5.32
X3.465Y-2.8675
X3.465Y-3.0675
X3.775Y-4.37
X3.775Y-4.57
X7.3629Y-3.6136
X7.4045Y-3.418
X7.8829Y-2.9511
X7.9245Y-2.7555
X5.2854Y-5.5136
X5.327Y-5.318
X5.6879Y-2.4611
X5.7295Y-2.2655
X7.1504Y-2.7861
X7.192Y-2.5905
X3.3575Y-3.62
X3.3575Y-3.82
X2.1925Y-3.5375
X2.1925Y-3.7375
X7.7954Y-5.9986
X7.837Y-5.803
X3.415Y-2.1225
X3.415Y-2.3225
X5.8925Y-3.295
X5.9341Y-3.0994
X5.9229Y-4.0636
X5.9645Y-3.868
X4.8975Y-2.035
X4.8975Y-2.235
X6.9954Y-5.8236
X7.037Y-5.628
X6.8679Y-5.0336
X6.9095Y-4.838
X6.1354Y-4.8661
X6.177Y-4.6705
X6.6279Y-3.4511
X6.6695Y-3.2555
X4.3875Y-2.8675
X4.3875Y-3.0675
X5.1904Y-3.9036
X5.232Y-3.708
X7.6054Y-5.1936
X7.647Y-4.998
X5.3979Y-4.7061
X5.4395Y-4.5105
X6.4204Y-2.6236
X6.462Y-2.428
T3
X8.405Y-3.9725
X8.405Y-3.8575
X8.5775Y-3.3991
X8.7775Y-3.3991
X8.5788Y-3.2125
X8.6788Y-3.2125
X8.7788Y-3.2125
X8.8788Y-3.2125
X8.4033Y-1.901
X8.4033Y-2.001
X8.4033Y-2.101
X8.4033Y-2.201
X8.4033Y-2.301
X8.4033Y-2.401
X8.4033Y-2.501
X8.4033Y-2.601
X8.4033Y-2.701
X8.4033Y-2.801
X8.4033Y-2.901
X8.4033Y-3.001
X8.4544Y-1.9481
X8.4544Y-2.0481
X8.4544Y-2.1481
X8.4544Y-2.2481
X8.4544Y-2.3481
X8.4544Y-2.4481
X8.4544Y-2.5481
X8.4544Y-2.6481
X8.4544Y-2.7481
X8.4544Y-2.8481
X8.4544Y-2.9481
X8.4544Y-3.0481
X9.0033Y-1.901
X9.0033Y-2.001
X9.0033Y-2.101
X9.0033Y-2.201
X9.0033Y-2.301
X9.0033Y-2.401
X9.0033Y-2.501
X9.0033Y-2.601
X9.0033Y-2.701
X9.0033Y-2.801
X9.0033Y-2.901
X9.0033Y-3.001
X9.0544Y-1.9481
X9.0544Y-2.0481
X9.0544Y-2.1481
X9.0544Y-2.2481
X9.0544Y-2.3481
X9.0544Y-2.4481
X9.0544Y-2.5481
X9.0544Y-2.6481
X9.0544Y-2.7481
X9.0544Y-2.8481
X9.0544Y-2.9481
X9.0544Y-3.0481
X8.5775Y-3.4975
X8.7775Y-3.4975
T4
X8.3644Y-4.3441
X8.3644Y-4.5409
X8.9353Y-4.3441
X8.9353Y-4.4425
X8.9353Y-4.5409
X8.4125Y-3.1991
X8.4125Y-3.2975
X8.4125Y-3.3999
T5
X8.8878Y-3.3275
X8.8878Y-3.5834
X9.065Y-3.3275
X9.065Y-3.5834
T6
X1.83Y-2.7875
X2.08Y-2.6875
X5.4272Y-2.9733
X5.6925Y-2.9275
X4.1Y-4.37
X4.35Y-4.27
X1.67Y-3.5375
X1.92Y-3.4375
X5.9472Y-2.3183
X6.2125Y-2.2725
X2.8975Y-2.12
X3.1475Y-2.02
X4.6922Y-2.8183
X4.9575Y-2.7725
X5.4541Y-3.746
X5.7194Y-3.7002
X2.925Y-2.8675
X3.175Y-2.7675
X5.2147Y-2.1608
X5.48Y-2.115
X4.7397Y-5.1883
X5.005Y-5.1425
X5.6622Y-4.5583
X5.9275Y-4.5125
X4.7197Y-3.5908
X4.985Y-3.545
X4.3825Y-2.035
X4.6325Y-1.935
X1.9925Y-2.035
X2.2425Y-1.935
X6.3991Y-4.7133
X6.6644Y-4.6675
X6.1341Y-5.421
X6.3994Y-5.3752
X7.1322Y-4.8708
X7.3975Y-4.825
X3.8625Y-2.8675
X4.1125Y-2.7675
X3.6475Y-2.12
X3.8975Y-2.02
X6.6822Y-2.4733
X6.9475Y-2.4275
X6.9247Y-4.0608
X7.19Y-4.015
X2.5975Y-5.12
X2.8475Y-5.02
X6.1891Y-3.9035
X6.4544Y-3.8577
X7.4172Y-2.6308
X7.6825Y-2.585
X6.8922Y-3.2858
X7.1575Y-3.24
X2.855Y-3.62
X3.105Y-3.52
X7.3272Y-5.6783
X7.5925Y-5.6325
X2.88Y-4.37
X3.13Y-4.27
X4.9291Y-4.401
X5.1944Y-4.3552
X3.8875Y-3.62
X4.1375Y-3.52
X6.1591Y-3.1285
X6.4244Y-3.0827
T7
X7.89Y-5.2125
X7.89Y-1.935
X3.1825Y-5.045
X3.5575Y-2.6425
X7.115Y-2.9725
X1.595Y-4.035
X5.97Y-5.92
T4
G00X8.6428Y-3.7598
M15
G01X8.6231Y-3.7598
M16
G05
G00X8.6428Y-3.8563
M15
G01X8.6231Y-3.8563
M16
G05
G00X8.7018Y-3.6909
M15
G01X8.6821Y-3.6909
M16
G05
G00X8.7018Y-3.9252
M15
G01X8.6821Y-3.9252
M16
G05
G00X8.8593Y-3.6909
M15
G01X8.8396Y-3.6909
M16
G05
G00X8.8593Y-3.9252
M15
G01X8.8396Y-3.9252
M16
G05
G00X8.9774Y-3.6909
M15
G01X8.9577Y-3.6909
M16
G05
G00X8.9774Y-3.9252
M15
G01X8.9577Y-3.9252
M16
G05
T6
G00X8.6656Y-4.222
M15
G01X8.6144Y-4.222
M16
G05
G00X8.6656Y-4.663
M15
G01X8.6144Y-4.663
M16
G05
T0
M30
