G04 #@! TF.GenerationSoftware,KiCad,Pcbnew,(5.1.6)-1*
G04 #@! TF.CreationDate,2020-08-09T18:55:19-07:00*
G04 #@! TF.ProjectId,Alipt-Keyboard-Right,416c6970-742d-44b6-9579-626f6172642d,rev?*
G04 #@! TF.SameCoordinates,Original*
G04 #@! TF.FileFunction,Legend,Bot*
G04 #@! TF.FilePolarity,Positive*
%FSLAX46Y46*%
G04 Gerber Fmt 4.6, Leading zero omitted, Abs format (unit mm)*
G04 Created by KiCad (PCBNEW (5.1.6)-1) date 2020-08-09 18:55:19*
%MOMM*%
%LPD*%
G01*
G04 APERTURE LIST*
%ADD10C,0.150000*%
%ADD11C,0.120000*%
%ADD12C,0.152400*%
G04 APERTURE END LIST*
D10*
X66600501Y-83872501D02*
X68400501Y-83872501D01*
X68400501Y-83872501D02*
X68400501Y-85672501D01*
X68400501Y-85672501D02*
X66600501Y-85672501D01*
X66600501Y-85672501D02*
X66600501Y-83872501D01*
X66600501Y-81372501D02*
X68400501Y-81372501D01*
X68400501Y-81372501D02*
X68400501Y-83172501D01*
X68400501Y-83172501D02*
X66600501Y-83172501D01*
X66600501Y-83172501D02*
X66600501Y-81372501D01*
X66600501Y-86472501D02*
X68400501Y-86472501D01*
X68400501Y-86472501D02*
X68400501Y-88272501D01*
X68400501Y-88272501D02*
X66600501Y-88272501D01*
X66600501Y-88272501D02*
X66600501Y-86472501D01*
X62270641Y-88851742D02*
X62270641Y-90853262D01*
X62270641Y-90853262D02*
X59268361Y-90853262D01*
X59268361Y-90853262D02*
X59268361Y-88851742D01*
X59268361Y-88851742D02*
X62270641Y-88851742D01*
X62269504Y-86353757D02*
X62269504Y-88353757D01*
X59269504Y-86353757D02*
X62269504Y-86353757D01*
X59269504Y-88353757D02*
X59269504Y-86353757D01*
X62269504Y-88353757D02*
X59269504Y-88353757D01*
X64545910Y-83883501D02*
X54385910Y-83883501D01*
X54385910Y-83883501D02*
X54385910Y-81343501D01*
X54385910Y-81343501D02*
X64545910Y-81343501D01*
X64545910Y-81343501D02*
X64545910Y-83883501D01*
X62101500Y-95615500D02*
X50101500Y-95615500D01*
X62101500Y-101615500D02*
X62101500Y-95615500D01*
X50101500Y-101615500D02*
X62101500Y-101615500D01*
X50101500Y-95615500D02*
X50101500Y-101615500D01*
X68691003Y-100917500D02*
X68691003Y-102917500D01*
X68691003Y-102917500D02*
X66691003Y-102917500D01*
X66691003Y-102917500D02*
X66691003Y-100917500D01*
X66691003Y-100917500D02*
X68691003Y-100917500D01*
X66691001Y-97996492D02*
X68691001Y-97996492D01*
X66691001Y-99996492D02*
X66691001Y-97996492D01*
X68691001Y-99996492D02*
X66691001Y-99996492D01*
X68691001Y-97996492D02*
X68691001Y-99996492D01*
X69278502Y-96774001D02*
X69278502Y-94996001D01*
X66992502Y-96774001D02*
X69278502Y-96774001D01*
X66992502Y-94996001D02*
X66992502Y-96774001D01*
X69278502Y-94996001D02*
X66992502Y-94996001D01*
X52466503Y-79707250D02*
X49926503Y-79707250D01*
X65166503Y-49227250D02*
X67706503Y-49227250D01*
X67706503Y-49227250D02*
X67706503Y-79707250D01*
X67706503Y-46687250D02*
X67706503Y-79707250D01*
X49926503Y-46687250D02*
X67706503Y-46687250D01*
X67706503Y-79707250D02*
X65166503Y-79707250D01*
X49926503Y-49227250D02*
X52466503Y-49227250D01*
X49926503Y-79707250D02*
X49926503Y-46687250D01*
X52466503Y-49227250D02*
X52466503Y-79707250D01*
X65166503Y-79707250D02*
X65166503Y-49227250D01*
X49926503Y-79707250D02*
X49926503Y-49227250D01*
D11*
X61221999Y-113855499D02*
X62221999Y-113855499D01*
X61721999Y-114355499D02*
X61721999Y-113355499D01*
X67821999Y-110355499D02*
X67821999Y-107955499D01*
X67821999Y-115155499D02*
X67821999Y-112555499D01*
X67821999Y-119755499D02*
X67821999Y-117355499D01*
X55621999Y-119755499D02*
X55621999Y-107955499D01*
X59721999Y-119755499D02*
X55621999Y-119755499D01*
X59721999Y-107955499D02*
X55621999Y-107955499D01*
X67821999Y-107955499D02*
X63721999Y-107955499D01*
X63721999Y-119755499D02*
X67821999Y-119755499D01*
X64721999Y-113855499D02*
G75*
G03*
X64721999Y-113855499I-3000000J0D01*
G01*
D10*
X66367167Y-81934405D02*
X66100501Y-82734405D01*
X65833834Y-81934405D01*
X65110024Y-82658215D02*
X65148120Y-82696310D01*
X65262405Y-82734405D01*
X65338596Y-82734405D01*
X65452881Y-82696310D01*
X65529072Y-82620120D01*
X65567167Y-82543929D01*
X65605262Y-82391548D01*
X65605262Y-82277262D01*
X65567167Y-82124881D01*
X65529072Y-82048691D01*
X65452881Y-81972501D01*
X65338596Y-81934405D01*
X65262405Y-81934405D01*
X65148120Y-81972501D01*
X65110024Y-82010596D01*
X64310024Y-82658215D02*
X64348120Y-82696310D01*
X64462405Y-82734405D01*
X64538596Y-82734405D01*
X64652881Y-82696310D01*
X64729072Y-82620120D01*
X64767167Y-82543929D01*
X64805262Y-82391548D01*
X64805262Y-82277262D01*
X64767167Y-82124881D01*
X64729072Y-82048691D01*
X64652881Y-81972501D01*
X64538596Y-81934405D01*
X64462405Y-81934405D01*
X64348120Y-81972501D01*
X64310024Y-82010596D01*
X65814786Y-85134405D02*
X66195739Y-85134405D01*
X66195739Y-84334405D01*
X65548120Y-84715358D02*
X65281453Y-84715358D01*
X65167167Y-85134405D02*
X65548120Y-85134405D01*
X65548120Y-84334405D01*
X65167167Y-84334405D01*
X64824310Y-85134405D02*
X64824310Y-84334405D01*
X64633834Y-84334405D01*
X64519548Y-84372501D01*
X64443358Y-84448691D01*
X64405262Y-84524881D01*
X64367167Y-84677262D01*
X64367167Y-84791548D01*
X64405262Y-84943929D01*
X64443358Y-85020120D01*
X64519548Y-85096310D01*
X64633834Y-85134405D01*
X64824310Y-85134405D01*
X66010024Y-86972501D02*
X66086215Y-86934405D01*
X66200501Y-86934405D01*
X66314786Y-86972501D01*
X66390977Y-87048691D01*
X66429072Y-87124881D01*
X66467167Y-87277262D01*
X66467167Y-87391548D01*
X66429072Y-87543929D01*
X66390977Y-87620120D01*
X66314786Y-87696310D01*
X66200501Y-87734405D01*
X66124310Y-87734405D01*
X66010024Y-87696310D01*
X65971929Y-87658215D01*
X65971929Y-87391548D01*
X66124310Y-87391548D01*
X65629072Y-87734405D02*
X65629072Y-86934405D01*
X65171929Y-87734405D01*
X65171929Y-86934405D01*
X64790977Y-87734405D02*
X64790977Y-86934405D01*
X64600501Y-86934405D01*
X64486215Y-86972501D01*
X64410024Y-87048691D01*
X64371929Y-87124881D01*
X64333834Y-87277262D01*
X64333834Y-87391548D01*
X64371929Y-87543929D01*
X64410024Y-87620120D01*
X64486215Y-87696310D01*
X64600501Y-87734405D01*
X64790977Y-87734405D01*
X60902834Y-90214406D02*
X61169501Y-89833454D01*
X61359977Y-90214406D02*
X61359977Y-89414406D01*
X61055215Y-89414406D01*
X60979024Y-89452502D01*
X60940929Y-89490597D01*
X60902834Y-89566787D01*
X60902834Y-89681073D01*
X60940929Y-89757263D01*
X60979024Y-89795359D01*
X61055215Y-89833454D01*
X61359977Y-89833454D01*
X60598072Y-89490597D02*
X60559977Y-89452502D01*
X60483786Y-89414406D01*
X60293310Y-89414406D01*
X60217120Y-89452502D01*
X60179024Y-89490597D01*
X60140929Y-89566787D01*
X60140929Y-89642978D01*
X60179024Y-89757263D01*
X60636167Y-90214406D01*
X60140929Y-90214406D01*
X60902837Y-87715661D02*
X61169504Y-87334709D01*
X61359980Y-87715661D02*
X61359980Y-86915661D01*
X61055218Y-86915661D01*
X60979027Y-86953757D01*
X60940932Y-86991852D01*
X60902837Y-87068042D01*
X60902837Y-87182328D01*
X60940932Y-87258518D01*
X60979027Y-87296614D01*
X61055218Y-87334709D01*
X61359980Y-87334709D01*
X60140932Y-87715661D02*
X60598075Y-87715661D01*
X60369504Y-87715661D02*
X60369504Y-86915661D01*
X60445694Y-87029947D01*
X60521884Y-87106137D01*
X60598075Y-87144233D01*
X56003880Y-96103595D02*
X56003880Y-96675023D01*
X57003880Y-96389309D02*
X56003880Y-96389309D01*
X57003880Y-97579785D02*
X56527690Y-97246452D01*
X57003880Y-97008357D02*
X56003880Y-97008357D01*
X56003880Y-97389309D01*
X56051500Y-97484547D01*
X56099119Y-97532166D01*
X56194357Y-97579785D01*
X56337214Y-97579785D01*
X56432452Y-97532166D01*
X56480071Y-97484547D01*
X56527690Y-97389309D01*
X56527690Y-97008357D01*
X57003880Y-98579785D02*
X56527690Y-98246452D01*
X57003880Y-98008357D02*
X56003880Y-98008357D01*
X56003880Y-98389309D01*
X56051500Y-98484547D01*
X56099119Y-98532166D01*
X56194357Y-98579785D01*
X56337214Y-98579785D01*
X56432452Y-98532166D01*
X56480071Y-98484547D01*
X56527690Y-98389309D01*
X56527690Y-98008357D01*
X56956261Y-98960738D02*
X57003880Y-99103595D01*
X57003880Y-99341690D01*
X56956261Y-99436928D01*
X56908642Y-99484547D01*
X56813404Y-99532166D01*
X56718166Y-99532166D01*
X56622928Y-99484547D01*
X56575309Y-99436928D01*
X56527690Y-99341690D01*
X56480071Y-99151214D01*
X56432452Y-99055976D01*
X56384833Y-99008357D01*
X56289595Y-98960738D01*
X56194357Y-98960738D01*
X56099119Y-99008357D01*
X56051500Y-99055976D01*
X56003880Y-99151214D01*
X56003880Y-99389309D01*
X56051500Y-99532166D01*
X66390926Y-102385195D02*
X66390926Y-101572395D01*
X66081288Y-101572395D01*
X66003879Y-101611100D01*
X65965174Y-101649804D01*
X65926469Y-101727214D01*
X65926469Y-101843328D01*
X65965174Y-101920738D01*
X66003879Y-101959442D01*
X66081288Y-101998147D01*
X66390926Y-101998147D01*
X65616831Y-101649804D02*
X65578126Y-101611100D01*
X65500717Y-101572395D01*
X65307193Y-101572395D01*
X65229783Y-101611100D01*
X65191079Y-101649804D01*
X65152374Y-101727214D01*
X65152374Y-101804623D01*
X65191079Y-101920738D01*
X65655536Y-102385195D01*
X65152374Y-102385195D01*
X66390924Y-99464187D02*
X66390924Y-98651387D01*
X66081286Y-98651387D01*
X66003877Y-98690092D01*
X65965172Y-98728796D01*
X65926467Y-98806206D01*
X65926467Y-98922320D01*
X65965172Y-98999730D01*
X66003877Y-99038434D01*
X66081286Y-99077139D01*
X66390924Y-99077139D01*
X65152372Y-99464187D02*
X65616829Y-99464187D01*
X65384601Y-99464187D02*
X65384601Y-98651387D01*
X65462010Y-98767501D01*
X65539420Y-98844911D01*
X65616829Y-98883615D01*
D12*
X67790397Y-97449610D02*
X68603197Y-97643134D01*
X68022625Y-97797953D01*
X68603197Y-97952772D01*
X67790397Y-98146296D01*
X68603197Y-98881686D02*
X68603197Y-98417229D01*
X68603197Y-98649458D02*
X67790397Y-98649458D01*
X67906511Y-98572048D01*
X67983921Y-98494639D01*
X68022625Y-98417229D01*
M02*
