G04 #@! TF.GenerationSoftware,KiCad,Pcbnew,(5.1.6)-1*
G04 #@! TF.CreationDate,2020-08-09T18:55:19-07:00*
G04 #@! TF.ProjectId,Alipt-Keyboard-Right,416c6970-742d-44b6-9579-626f6172642d,rev?*
G04 #@! TF.SameCoordinates,Original*
G04 #@! TF.FileFunction,Legend,Top*
G04 #@! TF.FilePolarity,Positive*
%FSLAX46Y46*%
G04 Gerber Fmt 4.6, Leading zero omitted, Abs format (unit mm)*
G04 Created by KiCad (PCBNEW (5.1.6)-1) date 2020-08-09 18:55:19*
%MOMM*%
%LPD*%
G01*
G04 APERTURE LIST*
%ADD10C,0.120000*%
%ADD11C,0.150000*%
G04 APERTURE END LIST*
D10*
X53927000Y-85261500D02*
X52427000Y-85261500D01*
X49927000Y-86511500D02*
X49927000Y-91011500D01*
X52427000Y-92261500D02*
X53927000Y-92261500D01*
X56427000Y-91011500D02*
X56427000Y-86511500D01*
D11*
X66600501Y-86472501D02*
X66600501Y-88272501D01*
X68400501Y-88272501D02*
X66600501Y-88272501D01*
X68400501Y-86472501D02*
X68400501Y-88272501D01*
X66600501Y-83872501D02*
X66600501Y-85672501D01*
X68400501Y-83872501D02*
X68400501Y-85672501D01*
X68400501Y-85672501D02*
X66600501Y-85672501D01*
X66600501Y-83872501D02*
X68400501Y-83872501D01*
X66600501Y-83172501D02*
X66600501Y-81372501D01*
X68400501Y-83172501D02*
X66600501Y-83172501D01*
X68400501Y-81372501D02*
X68400501Y-83172501D01*
X66600501Y-81372501D02*
X68400501Y-81372501D01*
X66600501Y-86472501D02*
X68400501Y-86472501D01*
X62269501Y-88852502D02*
X59269501Y-88852502D01*
X59269501Y-88852502D02*
X59269501Y-90852502D01*
X59269501Y-90852502D02*
X62269501Y-90852502D01*
X62269501Y-90852502D02*
X62269501Y-88852502D01*
X59268364Y-88354517D02*
X62270644Y-88354517D01*
X59268364Y-86352997D02*
X59268364Y-88354517D01*
X62270644Y-86352997D02*
X59268364Y-86352997D01*
X62270644Y-88354517D02*
X62270644Y-86352997D01*
X64545910Y-81343501D02*
X54385910Y-81343501D01*
X64545910Y-83883501D02*
X54385910Y-83883501D01*
X54385910Y-83883501D02*
X54385910Y-81343501D01*
X64545910Y-81343501D02*
X64545910Y-83883501D01*
X50101500Y-93865500D02*
X50101500Y-99865500D01*
X50101500Y-99865500D02*
X62101500Y-99865500D01*
X62101500Y-99865500D02*
X62101500Y-93865500D01*
X62101500Y-93865500D02*
X50101500Y-93865500D01*
X68691003Y-100917500D02*
X66691003Y-100917500D01*
X66691003Y-100917500D02*
X66691003Y-102917500D01*
X66691003Y-102917500D02*
X68691003Y-102917500D01*
X68691003Y-102917500D02*
X68691003Y-100917500D01*
X68691001Y-99996492D02*
X68691001Y-97996492D01*
X66691001Y-99996492D02*
X68691001Y-99996492D01*
X66691001Y-97996492D02*
X66691001Y-99996492D01*
X68691001Y-97996492D02*
X66691001Y-97996492D01*
X69005318Y-78511505D02*
X69005318Y-48031505D01*
X66465318Y-78511505D02*
X69005318Y-78511505D01*
X66465318Y-48031505D02*
X66465318Y-78511505D01*
X69005318Y-48031505D02*
X66465318Y-48031505D01*
X53765318Y-78511505D02*
X53765318Y-48031505D01*
X51225318Y-78511505D02*
X53765318Y-78511505D01*
X51225318Y-48031505D02*
X51225318Y-78511505D01*
X53765318Y-48031505D02*
X51225318Y-48031505D01*
X69005318Y-78511505D02*
X69005318Y-45491505D01*
X51225318Y-45491505D02*
X51225318Y-78511505D01*
X69005318Y-45491505D02*
X51225318Y-45491505D01*
D10*
X61221999Y-113855499D02*
X62221999Y-113855499D01*
X61721999Y-114355499D02*
X61721999Y-113355499D01*
X64721999Y-113855499D02*
G75*
G03*
X64721999Y-113855499I-3000000J0D01*
G01*
X63721999Y-119755499D02*
X67821999Y-119755499D01*
X67821999Y-119755499D02*
X67821999Y-117355499D01*
X67821999Y-115155499D02*
X67821999Y-112555499D01*
X67821999Y-110355499D02*
X67821999Y-107955499D01*
X67821999Y-107955499D02*
X63721999Y-107955499D01*
X59721999Y-107955499D02*
X55621999Y-107955499D01*
X55621999Y-119755499D02*
X55621999Y-107955499D01*
X59721999Y-119755499D02*
X55621999Y-119755499D01*
X83549634Y-72687223D02*
X82932137Y-69782125D01*
X81595418Y-73112828D02*
X80983544Y-70186087D01*
X82930057Y-69772343D02*
X80983544Y-70186087D01*
X81898467Y-69776923D02*
X82131328Y-70872448D01*
X82617841Y-73161314D02*
X82351714Y-71909285D01*
X83551713Y-72697004D02*
X81595418Y-73112828D01*
X82328844Y-71801688D02*
X81603128Y-70984721D01*
X82336546Y-71789828D02*
X82665765Y-70789520D01*
X82659528Y-70760176D02*
X81603128Y-70984721D01*
X82877835Y-71787231D02*
X81821436Y-72011775D01*
X101546835Y-67723231D02*
X100490436Y-67947775D01*
X101328528Y-66696176D02*
X100272128Y-66920721D01*
X101005546Y-67725828D02*
X101334765Y-66725520D01*
X100997844Y-67737688D02*
X100272128Y-66920721D01*
X102220713Y-68633004D02*
X100264418Y-69048828D01*
X101286841Y-69097314D02*
X101020714Y-67845285D01*
X100567467Y-65712923D02*
X100800328Y-66808448D01*
X101599057Y-65708343D02*
X99652544Y-66122087D01*
X100264418Y-69048828D02*
X99652544Y-66122087D01*
X102218634Y-68623223D02*
X101601137Y-65718125D01*
X120152335Y-63722731D02*
X119095936Y-63947275D01*
X119934028Y-62695676D02*
X118877628Y-62920221D01*
X119611046Y-63725328D02*
X119940265Y-62725020D01*
X119603344Y-63737188D02*
X118877628Y-62920221D01*
X120826213Y-64632504D02*
X118869918Y-65048328D01*
X119892341Y-65096814D02*
X119626214Y-63844785D01*
X119172967Y-61712423D02*
X119405828Y-62807948D01*
X120204557Y-61707843D02*
X118258044Y-62121587D01*
X118869918Y-65048328D02*
X118258044Y-62121587D01*
X120824134Y-64622723D02*
X120206637Y-61717625D01*
X139429634Y-60749223D02*
X138812137Y-57844125D01*
X137475418Y-61174828D02*
X136863544Y-58248087D01*
X138810057Y-57834343D02*
X136863544Y-58248087D01*
X137778467Y-57838923D02*
X138011328Y-58934448D01*
X138497841Y-61223314D02*
X138231714Y-59971285D01*
X139431713Y-60759004D02*
X137475418Y-61174828D01*
X138208844Y-59863688D02*
X137483128Y-59046721D01*
X138216546Y-59851828D02*
X138545765Y-58851520D01*
X138539528Y-58822176D02*
X137483128Y-59046721D01*
X138757835Y-59849231D02*
X137701436Y-60073775D01*
X159026000Y-55885500D02*
X157946000Y-55885500D01*
X159026000Y-54835500D02*
X157946000Y-54835500D01*
X158496000Y-55775500D02*
X159026000Y-54865500D01*
X158486000Y-55785500D02*
X157946000Y-54835500D01*
X159496000Y-56915500D02*
X157496000Y-56915500D01*
X158486000Y-57175500D02*
X158486000Y-55895500D01*
X158486000Y-53715500D02*
X158486000Y-54835500D01*
X159496000Y-53925500D02*
X157506000Y-53925500D01*
X157496000Y-56915500D02*
X157506000Y-53925500D01*
X159496000Y-56905500D02*
X159496000Y-53935500D01*
X178482500Y-59001000D02*
X178482500Y-56031000D01*
X176482500Y-59011000D02*
X176492500Y-56021000D01*
X178482500Y-56021000D02*
X176492500Y-56021000D01*
X177472500Y-55811000D02*
X177472500Y-56931000D01*
X177472500Y-59271000D02*
X177472500Y-57991000D01*
X178482500Y-59011000D02*
X176482500Y-59011000D01*
X177472500Y-57881000D02*
X176932500Y-56931000D01*
X177482500Y-57871000D02*
X178012500Y-56961000D01*
X178012500Y-56931000D02*
X176932500Y-56931000D01*
X178012500Y-57981000D02*
X176932500Y-57981000D01*
X196618000Y-57727000D02*
X195538000Y-57727000D01*
X196618000Y-56677000D02*
X195538000Y-56677000D01*
X196088000Y-57617000D02*
X196618000Y-56707000D01*
X196078000Y-57627000D02*
X195538000Y-56677000D01*
X197088000Y-58757000D02*
X195088000Y-58757000D01*
X196078000Y-59017000D02*
X196078000Y-57737000D01*
X196078000Y-55557000D02*
X196078000Y-56677000D01*
X197088000Y-55767000D02*
X195098000Y-55767000D01*
X195088000Y-58757000D02*
X195098000Y-55767000D01*
X197088000Y-58747000D02*
X197088000Y-55777000D01*
X84655835Y-102648231D02*
X83599436Y-102872775D01*
X84437528Y-101621176D02*
X83381128Y-101845721D01*
X84114546Y-102650828D02*
X84443765Y-101650520D01*
X84106844Y-102662688D02*
X83381128Y-101845721D01*
X85329713Y-103558004D02*
X83373418Y-103973828D01*
X84395841Y-104022314D02*
X84129714Y-102770285D01*
X83676467Y-100637923D02*
X83909328Y-101733448D01*
X84708057Y-100633343D02*
X82761544Y-101047087D01*
X83373418Y-103973828D02*
X82761544Y-101047087D01*
X85327634Y-103548223D02*
X84710137Y-100643125D01*
X96860698Y-89245086D02*
X96142190Y-86363308D01*
X94922526Y-89738633D02*
X94208883Y-86835029D01*
X96139771Y-86353605D02*
X94208883Y-86835029D01*
X95108969Y-86394184D02*
X95379921Y-87480915D01*
X95946019Y-89751407D02*
X95636359Y-88509429D01*
X96863118Y-89254789D02*
X94922526Y-89738633D01*
X95609747Y-88402696D02*
X94855962Y-87611553D01*
X95617031Y-88390574D02*
X95911139Y-87379386D01*
X95903881Y-87350277D02*
X94855962Y-87611553D01*
X96157899Y-88369088D02*
X95109980Y-88630363D01*
X115426634Y-85133223D02*
X114809137Y-82228125D01*
X113472418Y-85558828D02*
X112860544Y-82632087D01*
X114807057Y-82218343D02*
X112860544Y-82632087D01*
X113775467Y-82222923D02*
X114008328Y-83318448D01*
X114494841Y-85607314D02*
X114228714Y-84355285D01*
X115428713Y-85143004D02*
X113472418Y-85558828D01*
X114205844Y-84247688D02*
X113480128Y-83430721D01*
X114213546Y-84235828D02*
X114542765Y-83235520D01*
X114536528Y-83206176D02*
X113480128Y-83430721D01*
X114754835Y-84233231D02*
X113698436Y-84457775D01*
X133423835Y-80359731D02*
X132367436Y-80584275D01*
X133205528Y-79332676D02*
X132149128Y-79557221D01*
X132882546Y-80362328D02*
X133211765Y-79362020D01*
X132874844Y-80374188D02*
X132149128Y-79557221D01*
X134097713Y-81269504D02*
X132141418Y-81685328D01*
X133163841Y-81733814D02*
X132897714Y-80481785D01*
X132444467Y-78349423D02*
X132677328Y-79444948D01*
X133476057Y-78344843D02*
X131529544Y-78758587D01*
X132141418Y-81685328D02*
X131529544Y-78758587D01*
X134095634Y-81259723D02*
X133478137Y-78354625D01*
X154162000Y-76971500D02*
X154162000Y-74001500D01*
X152162000Y-76981500D02*
X152172000Y-73991500D01*
X154162000Y-73991500D02*
X152172000Y-73991500D01*
X153152000Y-73781500D02*
X153152000Y-74901500D01*
X153152000Y-77241500D02*
X153152000Y-75961500D01*
X154162000Y-76981500D02*
X152162000Y-76981500D01*
X153152000Y-75851500D02*
X152612000Y-74901500D01*
X153162000Y-75841500D02*
X153692000Y-74931500D01*
X153692000Y-74901500D02*
X152612000Y-74901500D01*
X153692000Y-75951500D02*
X152612000Y-75951500D01*
X172742000Y-77031000D02*
X171662000Y-77031000D01*
X172742000Y-75981000D02*
X171662000Y-75981000D01*
X172212000Y-76921000D02*
X172742000Y-76011000D01*
X172202000Y-76931000D02*
X171662000Y-75981000D01*
X173212000Y-78061000D02*
X171212000Y-78061000D01*
X172202000Y-78321000D02*
X172202000Y-77041000D01*
X172202000Y-74861000D02*
X172202000Y-75981000D01*
X173212000Y-75071000D02*
X171222000Y-75071000D01*
X171212000Y-78061000D02*
X171222000Y-75071000D01*
X173212000Y-78051000D02*
X173212000Y-75081000D01*
X235315000Y-59255000D02*
X235315000Y-56285000D01*
X233315000Y-59265000D02*
X233325000Y-56275000D01*
X235315000Y-56275000D02*
X233325000Y-56275000D01*
X234305000Y-56065000D02*
X234305000Y-57185000D01*
X234305000Y-59525000D02*
X234305000Y-58245000D01*
X235315000Y-59265000D02*
X233315000Y-59265000D01*
X234305000Y-58135000D02*
X233765000Y-57185000D01*
X234315000Y-58125000D02*
X234845000Y-57215000D01*
X234845000Y-57185000D02*
X233765000Y-57185000D01*
X234845000Y-58235000D02*
X233765000Y-58235000D01*
X87105634Y-111866723D02*
X86488137Y-108961625D01*
X85151418Y-112292328D02*
X84539544Y-109365587D01*
X86486057Y-108951843D02*
X84539544Y-109365587D01*
X85454467Y-108956423D02*
X85687328Y-110051948D01*
X86173841Y-112340814D02*
X85907714Y-111088785D01*
X87107713Y-111876504D02*
X85151418Y-112292328D01*
X85884844Y-110981188D02*
X85159128Y-110164221D01*
X85892546Y-110969328D02*
X86221765Y-109969020D01*
X86215528Y-109939676D02*
X85159128Y-110164221D01*
X86433835Y-110966731D02*
X85377436Y-111191275D01*
X104848835Y-106140731D02*
X103792436Y-106365275D01*
X104630528Y-105113676D02*
X103574128Y-105338221D01*
X104307546Y-106143328D02*
X104636765Y-105143020D01*
X104299844Y-106155188D02*
X103574128Y-105338221D01*
X105522713Y-107050504D02*
X103566418Y-107466328D01*
X104588841Y-107514814D02*
X104322714Y-106262785D01*
X103869467Y-104130423D02*
X104102328Y-105225948D01*
X104901057Y-104125843D02*
X102954544Y-104539587D01*
X103566418Y-107466328D02*
X102954544Y-104539587D01*
X105520634Y-107040723D02*
X104903137Y-104135625D01*
X124062634Y-102659223D02*
X123445137Y-99754125D01*
X122108418Y-103084828D02*
X121496544Y-100158087D01*
X123443057Y-99744343D02*
X121496544Y-100158087D01*
X122411467Y-99748923D02*
X122644328Y-100844448D01*
X123130841Y-103133314D02*
X122864714Y-101881285D01*
X124064713Y-102669004D02*
X122108418Y-103084828D01*
X122841844Y-101773688D02*
X122116128Y-100956721D01*
X122849546Y-101761828D02*
X123178765Y-100761520D01*
X123172528Y-100732176D02*
X122116128Y-100956721D01*
X123390835Y-101759231D02*
X122334436Y-101983775D01*
X142123335Y-98266731D02*
X141066936Y-98491275D01*
X141905028Y-97239676D02*
X140848628Y-97464221D01*
X141582046Y-98269328D02*
X141911265Y-97269020D01*
X141574344Y-98281188D02*
X140848628Y-97464221D01*
X142797213Y-99176504D02*
X140840918Y-99592328D01*
X141863341Y-99640814D02*
X141597214Y-98388785D01*
X141143967Y-96256423D02*
X141376828Y-97351948D01*
X142175557Y-96251843D02*
X140229044Y-96665587D01*
X140840918Y-99592328D02*
X140229044Y-96665587D01*
X142795134Y-99166723D02*
X142177637Y-96261625D01*
X162264500Y-96208000D02*
X161184500Y-96208000D01*
X162264500Y-95158000D02*
X161184500Y-95158000D01*
X161734500Y-96098000D02*
X162264500Y-95188000D01*
X161724500Y-96108000D02*
X161184500Y-95158000D01*
X162734500Y-97238000D02*
X160734500Y-97238000D01*
X161724500Y-97498000D02*
X161724500Y-96218000D01*
X161724500Y-94038000D02*
X161724500Y-95158000D01*
X162734500Y-94248000D02*
X160744500Y-94248000D01*
X160734500Y-97238000D02*
X160744500Y-94248000D01*
X162734500Y-97228000D02*
X162734500Y-94258000D01*
X181784500Y-97228000D02*
X181784500Y-94258000D01*
X179784500Y-97238000D02*
X179794500Y-94248000D01*
X181784500Y-94248000D02*
X179794500Y-94248000D01*
X180774500Y-94038000D02*
X180774500Y-95158000D01*
X180774500Y-97498000D02*
X180774500Y-96218000D01*
X181784500Y-97238000D02*
X179784500Y-97238000D01*
X180774500Y-96108000D02*
X180234500Y-95158000D01*
X180784500Y-96098000D02*
X181314500Y-95188000D01*
X181314500Y-95158000D02*
X180234500Y-95158000D01*
X181314500Y-96208000D02*
X180234500Y-96208000D01*
X191347500Y-76967500D02*
X190267500Y-76967500D01*
X191347500Y-75917500D02*
X190267500Y-75917500D01*
X190817500Y-76857500D02*
X191347500Y-75947500D01*
X190807500Y-76867500D02*
X190267500Y-75917500D01*
X191817500Y-77997500D02*
X189817500Y-77997500D01*
X190807500Y-78257500D02*
X190807500Y-76977500D01*
X190807500Y-74797500D02*
X190807500Y-75917500D01*
X191817500Y-75007500D02*
X189827500Y-75007500D01*
X189817500Y-77997500D02*
X189827500Y-75007500D01*
X191817500Y-77987500D02*
X191817500Y-75017500D01*
X80374634Y-126662223D02*
X79757137Y-123757125D01*
X78420418Y-127087828D02*
X77808544Y-124161087D01*
X79755057Y-123747343D02*
X77808544Y-124161087D01*
X78723467Y-123751923D02*
X78956328Y-124847448D01*
X79442841Y-127136314D02*
X79176714Y-125884285D01*
X80376713Y-126672004D02*
X78420418Y-127087828D01*
X79153844Y-125776688D02*
X78428128Y-124959721D01*
X79161546Y-125764828D02*
X79490765Y-124764520D01*
X79484528Y-124735176D02*
X78428128Y-124959721D01*
X79702835Y-125762231D02*
X78646436Y-125986775D01*
X100123134Y-127551223D02*
X99505637Y-124646125D01*
X98168918Y-127976828D02*
X97557044Y-125050087D01*
X99503557Y-124636343D02*
X97557044Y-125050087D01*
X98471967Y-124640923D02*
X98704828Y-125736448D01*
X99191341Y-128025314D02*
X98925214Y-126773285D01*
X100125213Y-127561004D02*
X98168918Y-127976828D01*
X98902344Y-126665688D02*
X98176628Y-125848721D01*
X98910046Y-126653828D02*
X99239265Y-125653520D01*
X99233028Y-125624176D02*
X98176628Y-125848721D01*
X99451335Y-126651231D02*
X98394936Y-126875775D01*
X118120335Y-122777731D02*
X117063936Y-123002275D01*
X117902028Y-121750676D02*
X116845628Y-121975221D01*
X117579046Y-122780328D02*
X117908265Y-121780020D01*
X117571344Y-122792188D02*
X116845628Y-121975221D01*
X118794213Y-123687504D02*
X116837918Y-124103328D01*
X117860341Y-124151814D02*
X117594214Y-122899785D01*
X117140967Y-120767423D02*
X117373828Y-121862948D01*
X118172557Y-120762843D02*
X116226044Y-121176587D01*
X116837918Y-124103328D02*
X116226044Y-121176587D01*
X118792134Y-123677723D02*
X118174637Y-120772625D01*
X137397634Y-119613723D02*
X136780137Y-116708625D01*
X135443418Y-120039328D02*
X134831544Y-117112587D01*
X136778057Y-116698843D02*
X134831544Y-117112587D01*
X135746467Y-116703423D02*
X135979328Y-117798948D01*
X136465841Y-120087814D02*
X136199714Y-118835785D01*
X137399713Y-119623504D02*
X135443418Y-120039328D01*
X136176844Y-118728188D02*
X135451128Y-117911221D01*
X136184546Y-118716328D02*
X136513765Y-117716020D01*
X136507528Y-117686676D02*
X135451128Y-117911221D01*
X136725835Y-118713731D02*
X135669436Y-118938275D01*
X157337000Y-116278000D02*
X157337000Y-113308000D01*
X155337000Y-116288000D02*
X155347000Y-113298000D01*
X157337000Y-113298000D02*
X155347000Y-113298000D01*
X156327000Y-113088000D02*
X156327000Y-114208000D01*
X156327000Y-116548000D02*
X156327000Y-115268000D01*
X157337000Y-116288000D02*
X155337000Y-116288000D01*
X156327000Y-115158000D02*
X155787000Y-114208000D01*
X156337000Y-115148000D02*
X156867000Y-114238000D01*
X156867000Y-114208000D02*
X155787000Y-114208000D01*
X156867000Y-115258000D02*
X155787000Y-115258000D01*
X175853500Y-115131000D02*
X174773500Y-115131000D01*
X175853500Y-114081000D02*
X174773500Y-114081000D01*
X175323500Y-115021000D02*
X175853500Y-114111000D01*
X175313500Y-115031000D02*
X174773500Y-114081000D01*
X176323500Y-116161000D02*
X174323500Y-116161000D01*
X175313500Y-116421000D02*
X175313500Y-115141000D01*
X175313500Y-112961000D02*
X175313500Y-114081000D01*
X176323500Y-113171000D02*
X174333500Y-113171000D01*
X174323500Y-116161000D02*
X174333500Y-113171000D01*
X176323500Y-116151000D02*
X176323500Y-113181000D01*
X214550500Y-78178000D02*
X214550500Y-75208000D01*
X212550500Y-78188000D02*
X212560500Y-75198000D01*
X214550500Y-75198000D02*
X212560500Y-75198000D01*
X213540500Y-74988000D02*
X213540500Y-76108000D01*
X213540500Y-78448000D02*
X213540500Y-77168000D01*
X214550500Y-78188000D02*
X212550500Y-78188000D01*
X213540500Y-77058000D02*
X213000500Y-76108000D01*
X213550500Y-77048000D02*
X214080500Y-76138000D01*
X214080500Y-76108000D02*
X213000500Y-76108000D01*
X214080500Y-77158000D02*
X213000500Y-77158000D01*
X89608835Y-148114231D02*
X88552436Y-148338775D01*
X89390528Y-147087176D02*
X88334128Y-147311721D01*
X89067546Y-148116828D02*
X89396765Y-147116520D01*
X89059844Y-148128688D02*
X88334128Y-147311721D01*
X90282713Y-149024004D02*
X88326418Y-149439828D01*
X89348841Y-149488314D02*
X89082714Y-148236285D01*
X88629467Y-146103923D02*
X88862328Y-147199448D01*
X89661057Y-146099343D02*
X87714544Y-146513087D01*
X88326418Y-149439828D02*
X87714544Y-146513087D01*
X90280634Y-149014223D02*
X89663137Y-146109125D01*
X140091335Y-138589231D02*
X139034936Y-138813775D01*
X139873028Y-137562176D02*
X138816628Y-137786721D01*
X139550046Y-138591828D02*
X139879265Y-137591520D01*
X139542344Y-138603688D02*
X138816628Y-137786721D01*
X140765213Y-139499004D02*
X138808918Y-139914828D01*
X139831341Y-139963314D02*
X139565214Y-138711285D01*
X139111967Y-136578923D02*
X139344828Y-137674448D01*
X140143557Y-136574343D02*
X138197044Y-136988087D01*
X138808918Y-139914828D02*
X138197044Y-136988087D01*
X140763134Y-139489223D02*
X140145637Y-136584125D01*
X218106500Y-135137500D02*
X218106500Y-132167500D01*
X216106500Y-135147500D02*
X216116500Y-132157500D01*
X218106500Y-132157500D02*
X216116500Y-132157500D01*
X217096500Y-131947500D02*
X217096500Y-133067500D01*
X217096500Y-135407500D02*
X217096500Y-134127500D01*
X218106500Y-135147500D02*
X216106500Y-135147500D01*
X217096500Y-134017500D02*
X216556500Y-133067500D01*
X217106500Y-134007500D02*
X217636500Y-133097500D01*
X217636500Y-133067500D02*
X216556500Y-133067500D01*
X217636500Y-134117500D02*
X216556500Y-134117500D01*
X199602500Y-114877000D02*
X198522500Y-114877000D01*
X199602500Y-113827000D02*
X198522500Y-113827000D01*
X199072500Y-114767000D02*
X199602500Y-113857000D01*
X199062500Y-114777000D02*
X198522500Y-113827000D01*
X200072500Y-115907000D02*
X198072500Y-115907000D01*
X199062500Y-116167000D02*
X199062500Y-114887000D01*
X199062500Y-112707000D02*
X199062500Y-113827000D01*
X200072500Y-112917000D02*
X198082500Y-112917000D01*
X198072500Y-115907000D02*
X198082500Y-112917000D01*
X200072500Y-115897000D02*
X200072500Y-112927000D01*
X227441000Y-116214500D02*
X227441000Y-113244500D01*
X225441000Y-116224500D02*
X225451000Y-113234500D01*
X227441000Y-113234500D02*
X225451000Y-113234500D01*
X226431000Y-113024500D02*
X226431000Y-114144500D01*
X226431000Y-116484500D02*
X226431000Y-115204500D01*
X227441000Y-116224500D02*
X225441000Y-116224500D01*
X226431000Y-115094500D02*
X225891000Y-114144500D01*
X226441000Y-115084500D02*
X226971000Y-114174500D01*
X226971000Y-114144500D02*
X225891000Y-114144500D01*
X226971000Y-115194500D02*
X225891000Y-115194500D01*
X203222000Y-96271500D02*
X202142000Y-96271500D01*
X203222000Y-95221500D02*
X202142000Y-95221500D01*
X202692000Y-96161500D02*
X203222000Y-95251500D01*
X202682000Y-96171500D02*
X202142000Y-95221500D01*
X203692000Y-97301500D02*
X201692000Y-97301500D01*
X202682000Y-97561500D02*
X202682000Y-96281500D01*
X202682000Y-94101500D02*
X202682000Y-95221500D01*
X203692000Y-94311500D02*
X201702000Y-94311500D01*
X201692000Y-97301500D02*
X201702000Y-94311500D01*
X203692000Y-97291500D02*
X203692000Y-94321500D01*
X71987000Y-113342000D02*
X73067000Y-113342000D01*
X71987000Y-114392000D02*
X73067000Y-114392000D01*
X72517000Y-113452000D02*
X71987000Y-114362000D01*
X72527000Y-113442000D02*
X73067000Y-114392000D01*
X71517000Y-112312000D02*
X73517000Y-112312000D01*
X72527000Y-112052000D02*
X72527000Y-113332000D01*
X72527000Y-115512000D02*
X72527000Y-114392000D01*
X71517000Y-115302000D02*
X73507000Y-115302000D01*
X73517000Y-112312000D02*
X73507000Y-115302000D01*
X71517000Y-112322000D02*
X71517000Y-115292000D01*
D11*
X64233834Y-81934405D02*
X64500501Y-82734405D01*
X64767167Y-81934405D01*
X65490977Y-82658215D02*
X65452881Y-82696310D01*
X65338596Y-82734405D01*
X65262405Y-82734405D01*
X65148120Y-82696310D01*
X65071929Y-82620120D01*
X65033834Y-82543929D01*
X64995739Y-82391548D01*
X64995739Y-82277262D01*
X65033834Y-82124881D01*
X65071929Y-82048691D01*
X65148120Y-81972501D01*
X65262405Y-81934405D01*
X65338596Y-81934405D01*
X65452881Y-81972501D01*
X65490977Y-82010596D01*
X66290977Y-82658215D02*
X66252881Y-82696310D01*
X66138596Y-82734405D01*
X66062405Y-82734405D01*
X65948120Y-82696310D01*
X65871929Y-82620120D01*
X65833834Y-82543929D01*
X65795739Y-82391548D01*
X65795739Y-82277262D01*
X65833834Y-82124881D01*
X65871929Y-82048691D01*
X65948120Y-81972501D01*
X66062405Y-81934405D01*
X66138596Y-81934405D01*
X66252881Y-81972501D01*
X66290977Y-82010596D01*
X64790977Y-86972501D02*
X64714786Y-86934405D01*
X64600501Y-86934405D01*
X64486215Y-86972501D01*
X64410024Y-87048691D01*
X64371929Y-87124881D01*
X64333834Y-87277262D01*
X64333834Y-87391548D01*
X64371929Y-87543929D01*
X64410024Y-87620120D01*
X64486215Y-87696310D01*
X64600501Y-87734405D01*
X64676691Y-87734405D01*
X64790977Y-87696310D01*
X64829072Y-87658215D01*
X64829072Y-87391548D01*
X64676691Y-87391548D01*
X65171929Y-87734405D02*
X65171929Y-86934405D01*
X65629072Y-87734405D01*
X65629072Y-86934405D01*
X66010024Y-87734405D02*
X66010024Y-86934405D01*
X66200501Y-86934405D01*
X66314786Y-86972501D01*
X66390977Y-87048691D01*
X66429072Y-87124881D01*
X66467167Y-87277262D01*
X66467167Y-87391548D01*
X66429072Y-87543929D01*
X66390977Y-87620120D01*
X66314786Y-87696310D01*
X66200501Y-87734405D01*
X66010024Y-87734405D01*
X64786215Y-85134405D02*
X64405262Y-85134405D01*
X64405262Y-84334405D01*
X65052881Y-84715358D02*
X65319548Y-84715358D01*
X65433834Y-85134405D02*
X65052881Y-85134405D01*
X65052881Y-84334405D01*
X65433834Y-84334405D01*
X65776691Y-85134405D02*
X65776691Y-84334405D01*
X65967167Y-84334405D01*
X66081453Y-84372501D01*
X66157643Y-84448691D01*
X66195739Y-84524881D01*
X66233834Y-84677262D01*
X66233834Y-84791548D01*
X66195739Y-84943929D01*
X66157643Y-85020120D01*
X66081453Y-85096310D01*
X65967167Y-85134405D01*
X65776691Y-85134405D01*
X60636167Y-90214406D02*
X60369501Y-89833454D01*
X60179024Y-90214406D02*
X60179024Y-89414406D01*
X60483786Y-89414406D01*
X60559977Y-89452502D01*
X60598072Y-89490597D01*
X60636167Y-89566787D01*
X60636167Y-89681073D01*
X60598072Y-89757263D01*
X60559977Y-89795359D01*
X60483786Y-89833454D01*
X60179024Y-89833454D01*
X61398072Y-90214406D02*
X60940929Y-90214406D01*
X61169501Y-90214406D02*
X61169501Y-89414406D01*
X61093310Y-89528692D01*
X61017120Y-89604882D01*
X60940929Y-89642978D01*
X60636170Y-87715661D02*
X60369504Y-87334709D01*
X60179027Y-87715661D02*
X60179027Y-86915661D01*
X60483789Y-86915661D01*
X60559980Y-86953757D01*
X60598075Y-86991852D01*
X60636170Y-87068042D01*
X60636170Y-87182328D01*
X60598075Y-87258518D01*
X60559980Y-87296614D01*
X60483789Y-87334709D01*
X60179027Y-87334709D01*
X61398075Y-87715661D02*
X60940932Y-87715661D01*
X61169504Y-87715661D02*
X61169504Y-86915661D01*
X61093313Y-87029947D01*
X61017123Y-87106137D01*
X60940932Y-87144233D01*
X64745805Y-80954434D02*
X65326376Y-80954434D01*
X65442490Y-80993139D01*
X65519900Y-81070548D01*
X65558605Y-81186662D01*
X65558605Y-81264072D01*
X64745805Y-80644796D02*
X64745805Y-80141634D01*
X65055443Y-80412567D01*
X65055443Y-80296453D01*
X65094148Y-80219043D01*
X65132852Y-80180339D01*
X65210262Y-80141634D01*
X65403786Y-80141634D01*
X65481195Y-80180339D01*
X65519900Y-80219043D01*
X65558605Y-80296453D01*
X65558605Y-80528681D01*
X65519900Y-80606091D01*
X65481195Y-80644796D01*
X55967380Y-99551904D02*
X55967380Y-98980476D01*
X56967380Y-99266190D02*
X55967380Y-99266190D01*
X56967380Y-98075714D02*
X56491190Y-98409047D01*
X56967380Y-98647142D02*
X55967380Y-98647142D01*
X55967380Y-98266190D01*
X56015000Y-98170952D01*
X56062619Y-98123333D01*
X56157857Y-98075714D01*
X56300714Y-98075714D01*
X56395952Y-98123333D01*
X56443571Y-98170952D01*
X56491190Y-98266190D01*
X56491190Y-98647142D01*
X56967380Y-97075714D02*
X56491190Y-97409047D01*
X56967380Y-97647142D02*
X55967380Y-97647142D01*
X55967380Y-97266190D01*
X56015000Y-97170952D01*
X56062619Y-97123333D01*
X56157857Y-97075714D01*
X56300714Y-97075714D01*
X56395952Y-97123333D01*
X56443571Y-97170952D01*
X56491190Y-97266190D01*
X56491190Y-97647142D01*
X56919761Y-96694761D02*
X56967380Y-96551904D01*
X56967380Y-96313809D01*
X56919761Y-96218571D01*
X56872142Y-96170952D01*
X56776904Y-96123333D01*
X56681666Y-96123333D01*
X56586428Y-96170952D01*
X56538809Y-96218571D01*
X56491190Y-96313809D01*
X56443571Y-96504285D01*
X56395952Y-96599523D01*
X56348333Y-96647142D01*
X56253095Y-96694761D01*
X56157857Y-96694761D01*
X56062619Y-96647142D01*
X56015000Y-96599523D01*
X55967380Y-96504285D01*
X55967380Y-96266190D01*
X56015000Y-96123333D01*
X65291079Y-102385195D02*
X65291079Y-101572395D01*
X65600717Y-101572395D01*
X65678126Y-101611100D01*
X65716831Y-101649804D01*
X65755536Y-101727214D01*
X65755536Y-101843328D01*
X65716831Y-101920738D01*
X65678126Y-101959442D01*
X65600717Y-101998147D01*
X65291079Y-101998147D01*
X66529631Y-102385195D02*
X66065174Y-102385195D01*
X66297403Y-102385195D02*
X66297403Y-101572395D01*
X66219993Y-101688509D01*
X66142583Y-101765919D01*
X66065174Y-101804623D01*
X65291077Y-99464187D02*
X65291077Y-98651387D01*
X65600715Y-98651387D01*
X65678124Y-98690092D01*
X65716829Y-98728796D01*
X65755534Y-98806206D01*
X65755534Y-98922320D01*
X65716829Y-98999730D01*
X65678124Y-99038434D01*
X65600715Y-99077139D01*
X65291077Y-99077139D01*
X66529629Y-99464187D02*
X66065172Y-99464187D01*
X66297401Y-99464187D02*
X66297401Y-98651387D01*
X66219991Y-98767501D01*
X66142581Y-98844911D01*
X66065172Y-98883615D01*
X80757850Y-66103317D02*
X81540368Y-65936988D01*
X81579971Y-66123301D01*
X81566469Y-66243010D01*
X81507785Y-66333377D01*
X81441179Y-66386480D01*
X81300049Y-66455425D01*
X81188261Y-66479186D01*
X81031289Y-66473605D01*
X80948843Y-66452183D01*
X80858477Y-66393499D01*
X80797453Y-66289631D01*
X80757850Y-66103317D01*
X81738380Y-66868557D02*
X81754220Y-66943082D01*
X81732799Y-67025528D01*
X81703456Y-67070711D01*
X81636851Y-67123815D01*
X81495721Y-67192760D01*
X81309407Y-67232362D01*
X81152435Y-67226781D01*
X81069989Y-67205359D01*
X81024806Y-67176017D01*
X80971702Y-67109412D01*
X80955861Y-67034886D01*
X80977283Y-66952440D01*
X81006626Y-66907257D01*
X81073231Y-66854153D01*
X81214361Y-66785209D01*
X81400675Y-66745606D01*
X81557647Y-66751187D01*
X81640093Y-66772609D01*
X81685276Y-66801952D01*
X81738380Y-66868557D01*
X99426850Y-62039317D02*
X100209368Y-61872988D01*
X100248971Y-62059301D01*
X100235469Y-62179010D01*
X100176785Y-62269377D01*
X100110179Y-62322480D01*
X99969049Y-62391425D01*
X99857261Y-62415186D01*
X99700289Y-62409605D01*
X99617843Y-62388183D01*
X99527477Y-62329499D01*
X99466453Y-62225631D01*
X99426850Y-62039317D01*
X99680305Y-63231725D02*
X99585259Y-62784572D01*
X99632782Y-63008149D02*
X100415300Y-62841819D01*
X100287671Y-62791055D01*
X100197304Y-62732371D01*
X100144201Y-62665765D01*
X118032350Y-58038817D02*
X118814868Y-57872488D01*
X118854471Y-58058801D01*
X118840969Y-58178510D01*
X118782285Y-58268877D01*
X118715679Y-58321980D01*
X118574549Y-58390925D01*
X118462761Y-58414686D01*
X118305789Y-58409105D01*
X118223343Y-58387683D01*
X118132977Y-58328999D01*
X118071953Y-58225131D01*
X118032350Y-58038817D01*
X118898752Y-58633584D02*
X118943935Y-58662926D01*
X118997039Y-58729531D01*
X119036641Y-58915845D01*
X119015219Y-58998291D01*
X118985877Y-59043474D01*
X118919272Y-59096578D01*
X118844746Y-59112419D01*
X118725037Y-59098917D01*
X118182839Y-58746809D01*
X118285805Y-59231225D01*
X136637850Y-54165317D02*
X137420368Y-53998988D01*
X137459971Y-54185301D01*
X137446469Y-54305010D01*
X137387785Y-54395377D01*
X137321179Y-54448480D01*
X137180049Y-54517425D01*
X137068261Y-54541186D01*
X136911289Y-54535605D01*
X136828843Y-54514183D01*
X136738477Y-54455499D01*
X136677453Y-54351631D01*
X136637850Y-54165317D01*
X137570857Y-54706980D02*
X137673823Y-55191396D01*
X137320277Y-54993920D01*
X137344039Y-55105709D01*
X137322617Y-55188154D01*
X137293275Y-55233338D01*
X137226669Y-55286441D01*
X137040356Y-55326044D01*
X136957910Y-55304622D01*
X136912726Y-55275279D01*
X136859623Y-55208674D01*
X136812100Y-54985098D01*
X136833522Y-54902652D01*
X136862864Y-54857469D01*
X158857904Y-51065976D02*
X158057904Y-51065976D01*
X158057904Y-50875500D01*
X158096000Y-50761214D01*
X158172190Y-50685023D01*
X158248380Y-50646928D01*
X158400761Y-50608833D01*
X158515047Y-50608833D01*
X158667428Y-50646928D01*
X158743619Y-50685023D01*
X158819809Y-50761214D01*
X158857904Y-50875500D01*
X158857904Y-51065976D01*
X158324571Y-49923119D02*
X158857904Y-49923119D01*
X158019809Y-50113595D02*
X158591238Y-50304071D01*
X158591238Y-49808833D01*
X177844404Y-53161476D02*
X177044404Y-53161476D01*
X177044404Y-52971000D01*
X177082500Y-52856714D01*
X177158690Y-52780523D01*
X177234880Y-52742428D01*
X177387261Y-52704333D01*
X177501547Y-52704333D01*
X177653928Y-52742428D01*
X177730119Y-52780523D01*
X177806309Y-52856714D01*
X177844404Y-52971000D01*
X177844404Y-53161476D01*
X177044404Y-51980523D02*
X177044404Y-52361476D01*
X177425357Y-52399571D01*
X177387261Y-52361476D01*
X177349166Y-52285285D01*
X177349166Y-52094809D01*
X177387261Y-52018619D01*
X177425357Y-51980523D01*
X177501547Y-51942428D01*
X177692023Y-51942428D01*
X177768214Y-51980523D01*
X177806309Y-52018619D01*
X177844404Y-52094809D01*
X177844404Y-52285285D01*
X177806309Y-52361476D01*
X177768214Y-52399571D01*
X196449904Y-52907476D02*
X195649904Y-52907476D01*
X195649904Y-52717000D01*
X195688000Y-52602714D01*
X195764190Y-52526523D01*
X195840380Y-52488428D01*
X195992761Y-52450333D01*
X196107047Y-52450333D01*
X196259428Y-52488428D01*
X196335619Y-52526523D01*
X196411809Y-52602714D01*
X196449904Y-52717000D01*
X196449904Y-52907476D01*
X195649904Y-51764619D02*
X195649904Y-51917000D01*
X195688000Y-51993190D01*
X195726095Y-52031285D01*
X195840380Y-52107476D01*
X195992761Y-52145571D01*
X196297523Y-52145571D01*
X196373714Y-52107476D01*
X196411809Y-52069380D01*
X196449904Y-51993190D01*
X196449904Y-51840809D01*
X196411809Y-51764619D01*
X196373714Y-51726523D01*
X196297523Y-51688428D01*
X196107047Y-51688428D01*
X196030857Y-51726523D01*
X195992761Y-51764619D01*
X195954666Y-51840809D01*
X195954666Y-51993190D01*
X195992761Y-52069380D01*
X196030857Y-52107476D01*
X196107047Y-52145571D01*
X82535850Y-96964317D02*
X83318368Y-96797988D01*
X83357971Y-96984301D01*
X83344469Y-97104010D01*
X83285785Y-97194377D01*
X83219179Y-97247480D01*
X83078049Y-97316425D01*
X82966261Y-97340186D01*
X82809289Y-97334605D01*
X82726843Y-97313183D01*
X82636477Y-97254499D01*
X82575453Y-97150631D01*
X82535850Y-96964317D01*
X83468857Y-97505980D02*
X83579743Y-98027659D01*
X82725941Y-97858623D01*
X93840841Y-82762622D02*
X94617077Y-82569084D01*
X94663158Y-82753902D01*
X94653842Y-82874009D01*
X94598347Y-82966369D01*
X94533636Y-83021765D01*
X94394997Y-83095593D01*
X94284106Y-83123241D01*
X94127036Y-83123141D01*
X94043892Y-83104610D01*
X93951533Y-83049115D01*
X93886921Y-82947440D01*
X93840841Y-82762622D01*
X94505590Y-83539156D02*
X94524122Y-83456013D01*
X94551869Y-83409833D01*
X94616581Y-83354437D01*
X94653544Y-83345221D01*
X94736688Y-83363753D01*
X94782867Y-83391500D01*
X94838263Y-83456212D01*
X94875127Y-83604066D01*
X94856596Y-83687210D01*
X94828848Y-83733389D01*
X94764137Y-83788785D01*
X94727173Y-83798001D01*
X94644030Y-83779470D01*
X94597850Y-83751722D01*
X94542455Y-83687011D01*
X94505590Y-83539156D01*
X94450194Y-83474445D01*
X94404015Y-83446698D01*
X94320871Y-83428166D01*
X94173017Y-83465030D01*
X94108306Y-83520426D01*
X94080558Y-83566606D01*
X94062026Y-83649749D01*
X94098891Y-83797604D01*
X94154287Y-83862315D01*
X94200466Y-83890063D01*
X94283610Y-83908594D01*
X94431464Y-83871730D01*
X94496175Y-83816334D01*
X94523923Y-83770154D01*
X94542455Y-83687011D01*
X112634850Y-78549317D02*
X113417368Y-78382988D01*
X113456971Y-78569301D01*
X113443469Y-78689010D01*
X113384785Y-78779377D01*
X113318179Y-78832480D01*
X113177049Y-78901425D01*
X113065261Y-78925186D01*
X112908289Y-78919605D01*
X112825843Y-78898183D01*
X112735477Y-78839499D01*
X112674453Y-78735631D01*
X112634850Y-78549317D01*
X112809100Y-79369098D02*
X112840782Y-79518149D01*
X112893886Y-79584754D01*
X112939069Y-79614096D01*
X113066698Y-79664860D01*
X113223669Y-79670441D01*
X113521772Y-79607078D01*
X113588377Y-79553974D01*
X113617719Y-79508791D01*
X113639141Y-79426345D01*
X113607459Y-79277294D01*
X113554355Y-79210689D01*
X113509172Y-79181346D01*
X113426726Y-79159925D01*
X113240412Y-79199527D01*
X113173807Y-79252630D01*
X113144465Y-79297814D01*
X113123043Y-79380260D01*
X113154725Y-79529311D01*
X113207829Y-79595916D01*
X113253012Y-79625258D01*
X113335458Y-79646680D01*
X131224646Y-74303189D02*
X132007164Y-74136860D01*
X132046766Y-74323174D01*
X132033265Y-74442882D01*
X131974580Y-74533249D01*
X131907975Y-74586353D01*
X131766844Y-74655297D01*
X131655056Y-74679058D01*
X131498085Y-74673477D01*
X131415639Y-74652056D01*
X131325272Y-74593371D01*
X131264248Y-74489503D01*
X131224646Y-74303189D01*
X131478100Y-75495598D02*
X131383055Y-75048445D01*
X131430577Y-75272021D02*
X132213096Y-75105692D01*
X132085466Y-75054928D01*
X131995100Y-74996243D01*
X131941996Y-74929638D01*
X132363584Y-75813684D02*
X132379425Y-75888210D01*
X132358003Y-75970656D01*
X132328661Y-76015839D01*
X132262056Y-76068943D01*
X132120925Y-76137887D01*
X131934611Y-76177489D01*
X131777640Y-76171908D01*
X131695194Y-76150487D01*
X131650010Y-76121144D01*
X131596907Y-76054539D01*
X131581066Y-75980014D01*
X131602488Y-75897568D01*
X131631830Y-75852384D01*
X131698435Y-75799281D01*
X131839566Y-75730336D01*
X132025880Y-75690734D01*
X132182851Y-75696315D01*
X132265297Y-75717737D01*
X132310480Y-75747079D01*
X132363584Y-75813684D01*
X153523904Y-71512928D02*
X152723904Y-71512928D01*
X152723904Y-71322452D01*
X152762000Y-71208166D01*
X152838190Y-71131976D01*
X152914380Y-71093880D01*
X153066761Y-71055785D01*
X153181047Y-71055785D01*
X153333428Y-71093880D01*
X153409619Y-71131976D01*
X153485809Y-71208166D01*
X153523904Y-71322452D01*
X153523904Y-71512928D01*
X153523904Y-70293880D02*
X153523904Y-70751023D01*
X153523904Y-70522452D02*
X152723904Y-70522452D01*
X152838190Y-70598642D01*
X152914380Y-70674833D01*
X152952476Y-70751023D01*
X153523904Y-69531976D02*
X153523904Y-69989119D01*
X153523904Y-69760547D02*
X152723904Y-69760547D01*
X152838190Y-69836738D01*
X152914380Y-69912928D01*
X152952476Y-69989119D01*
X172573904Y-72592428D02*
X171773904Y-72592428D01*
X171773904Y-72401952D01*
X171812000Y-72287666D01*
X171888190Y-72211476D01*
X171964380Y-72173380D01*
X172116761Y-72135285D01*
X172231047Y-72135285D01*
X172383428Y-72173380D01*
X172459619Y-72211476D01*
X172535809Y-72287666D01*
X172573904Y-72401952D01*
X172573904Y-72592428D01*
X172573904Y-71373380D02*
X172573904Y-71830523D01*
X172573904Y-71601952D02*
X171773904Y-71601952D01*
X171888190Y-71678142D01*
X171964380Y-71754333D01*
X172002476Y-71830523D01*
X171850095Y-71068619D02*
X171812000Y-71030523D01*
X171773904Y-70954333D01*
X171773904Y-70763857D01*
X171812000Y-70687666D01*
X171850095Y-70649571D01*
X171926285Y-70611476D01*
X172002476Y-70611476D01*
X172116761Y-70649571D01*
X172573904Y-71106714D01*
X172573904Y-70611476D01*
X234676904Y-53796428D02*
X233876904Y-53796428D01*
X233876904Y-53605952D01*
X233915000Y-53491666D01*
X233991190Y-53415476D01*
X234067380Y-53377380D01*
X234219761Y-53339285D01*
X234334047Y-53339285D01*
X234486428Y-53377380D01*
X234562619Y-53415476D01*
X234638809Y-53491666D01*
X234676904Y-53605952D01*
X234676904Y-53796428D01*
X234676904Y-52577380D02*
X234676904Y-53034523D01*
X234676904Y-52805952D02*
X233876904Y-52805952D01*
X233991190Y-52882142D01*
X234067380Y-52958333D01*
X234105476Y-53034523D01*
X233876904Y-52310714D02*
X233876904Y-51815476D01*
X234181666Y-52082142D01*
X234181666Y-51967857D01*
X234219761Y-51891666D01*
X234257857Y-51853571D01*
X234334047Y-51815476D01*
X234524523Y-51815476D01*
X234600714Y-51853571D01*
X234638809Y-51891666D01*
X234676904Y-51967857D01*
X234676904Y-52196428D01*
X234638809Y-52272619D01*
X234600714Y-52310714D01*
X84234646Y-104910189D02*
X85017164Y-104743860D01*
X85056766Y-104930174D01*
X85043265Y-105049882D01*
X84984580Y-105140249D01*
X84917975Y-105193353D01*
X84776844Y-105262297D01*
X84665056Y-105286058D01*
X84508085Y-105280477D01*
X84425639Y-105259056D01*
X84335272Y-105200371D01*
X84274248Y-105096503D01*
X84234646Y-104910189D01*
X84488100Y-106102598D02*
X84393055Y-105655445D01*
X84440577Y-105879021D02*
X85223096Y-105712692D01*
X85095466Y-105661928D01*
X85005100Y-105603243D01*
X84951996Y-105536638D01*
X85152347Y-106662441D02*
X84630668Y-106773327D01*
X85410847Y-106412764D02*
X84812303Y-106345257D01*
X84915269Y-106829673D01*
X102649646Y-100084189D02*
X103432164Y-99917860D01*
X103471766Y-100104174D01*
X103458265Y-100223882D01*
X103399580Y-100314249D01*
X103332975Y-100367353D01*
X103191844Y-100436297D01*
X103080056Y-100460058D01*
X102923085Y-100454477D01*
X102840639Y-100433056D01*
X102750272Y-100374371D01*
X102689248Y-100270503D01*
X102649646Y-100084189D01*
X102903100Y-101276598D02*
X102808055Y-100829445D01*
X102855577Y-101053021D02*
X103638096Y-100886692D01*
X103510466Y-100835928D01*
X103420100Y-100777243D01*
X103366996Y-100710638D01*
X103836107Y-101818261D02*
X103756902Y-101445633D01*
X103376354Y-101487575D01*
X103421537Y-101516917D01*
X103474641Y-101583522D01*
X103514243Y-101769836D01*
X103492821Y-101852282D01*
X103463479Y-101897465D01*
X103396874Y-101950569D01*
X103210560Y-101990171D01*
X103128114Y-101968749D01*
X103082931Y-101939407D01*
X103029827Y-101872802D01*
X102990225Y-101686488D01*
X103011647Y-101604042D01*
X103040989Y-101558859D01*
X121191646Y-95702689D02*
X121974164Y-95536360D01*
X122013766Y-95722674D01*
X122000265Y-95842382D01*
X121941580Y-95932749D01*
X121874975Y-95985853D01*
X121733844Y-96054797D01*
X121622056Y-96078558D01*
X121465085Y-96072977D01*
X121382639Y-96051556D01*
X121292272Y-95992871D01*
X121231248Y-95889003D01*
X121191646Y-95702689D01*
X121445100Y-96895098D02*
X121350055Y-96447945D01*
X121397577Y-96671521D02*
X122180096Y-96505192D01*
X122052466Y-96454428D01*
X121962100Y-96395743D01*
X121908996Y-96329138D01*
X122370186Y-97399498D02*
X122338504Y-97250447D01*
X122285401Y-97183842D01*
X122240218Y-97154500D01*
X122112588Y-97103735D01*
X121955617Y-97098154D01*
X121657515Y-97161518D01*
X121590910Y-97214622D01*
X121561567Y-97259805D01*
X121540145Y-97342251D01*
X121571827Y-97491302D01*
X121624931Y-97557907D01*
X121670114Y-97587249D01*
X121752560Y-97608671D01*
X121938874Y-97569069D01*
X122005479Y-97515965D01*
X122034821Y-97470782D01*
X122056243Y-97388336D01*
X122024561Y-97239285D01*
X121971458Y-97172680D01*
X121926275Y-97143338D01*
X121843829Y-97121916D01*
X139924146Y-92210189D02*
X140706664Y-92043860D01*
X140746266Y-92230174D01*
X140732765Y-92349882D01*
X140674080Y-92440249D01*
X140607475Y-92493353D01*
X140466344Y-92562297D01*
X140354556Y-92586058D01*
X140197585Y-92580477D01*
X140115139Y-92559056D01*
X140024772Y-92500371D01*
X139963748Y-92396503D01*
X139924146Y-92210189D01*
X140177600Y-93402598D02*
X140082555Y-92955445D01*
X140130077Y-93179021D02*
X140912596Y-93012692D01*
X140784966Y-92961928D01*
X140694600Y-92903243D01*
X140641496Y-92836638D01*
X141015561Y-93497108D02*
X141126448Y-94018786D01*
X140272645Y-93849751D01*
X162096404Y-91769428D02*
X161296404Y-91769428D01*
X161296404Y-91578952D01*
X161334500Y-91464666D01*
X161410690Y-91388476D01*
X161486880Y-91350380D01*
X161639261Y-91312285D01*
X161753547Y-91312285D01*
X161905928Y-91350380D01*
X161982119Y-91388476D01*
X162058309Y-91464666D01*
X162096404Y-91578952D01*
X162096404Y-91769428D01*
X162096404Y-90550380D02*
X162096404Y-91007523D01*
X162096404Y-90778952D02*
X161296404Y-90778952D01*
X161410690Y-90855142D01*
X161486880Y-90931333D01*
X161524976Y-91007523D01*
X161639261Y-90093238D02*
X161601166Y-90169428D01*
X161563071Y-90207523D01*
X161486880Y-90245619D01*
X161448785Y-90245619D01*
X161372595Y-90207523D01*
X161334500Y-90169428D01*
X161296404Y-90093238D01*
X161296404Y-89940857D01*
X161334500Y-89864666D01*
X161372595Y-89826571D01*
X161448785Y-89788476D01*
X161486880Y-89788476D01*
X161563071Y-89826571D01*
X161601166Y-89864666D01*
X161639261Y-89940857D01*
X161639261Y-90093238D01*
X161677357Y-90169428D01*
X161715452Y-90207523D01*
X161791642Y-90245619D01*
X161944023Y-90245619D01*
X162020214Y-90207523D01*
X162058309Y-90169428D01*
X162096404Y-90093238D01*
X162096404Y-89940857D01*
X162058309Y-89864666D01*
X162020214Y-89826571D01*
X161944023Y-89788476D01*
X161791642Y-89788476D01*
X161715452Y-89826571D01*
X161677357Y-89864666D01*
X161639261Y-89940857D01*
X181146404Y-91769428D02*
X180346404Y-91769428D01*
X180346404Y-91578952D01*
X180384500Y-91464666D01*
X180460690Y-91388476D01*
X180536880Y-91350380D01*
X180689261Y-91312285D01*
X180803547Y-91312285D01*
X180955928Y-91350380D01*
X181032119Y-91388476D01*
X181108309Y-91464666D01*
X181146404Y-91578952D01*
X181146404Y-91769428D01*
X181146404Y-90550380D02*
X181146404Y-91007523D01*
X181146404Y-90778952D02*
X180346404Y-90778952D01*
X180460690Y-90855142D01*
X180536880Y-90931333D01*
X180574976Y-91007523D01*
X181146404Y-90169428D02*
X181146404Y-90017047D01*
X181108309Y-89940857D01*
X181070214Y-89902761D01*
X180955928Y-89826571D01*
X180803547Y-89788476D01*
X180498785Y-89788476D01*
X180422595Y-89826571D01*
X180384500Y-89864666D01*
X180346404Y-89940857D01*
X180346404Y-90093238D01*
X180384500Y-90169428D01*
X180422595Y-90207523D01*
X180498785Y-90245619D01*
X180689261Y-90245619D01*
X180765452Y-90207523D01*
X180803547Y-90169428D01*
X180841642Y-90093238D01*
X180841642Y-89940857D01*
X180803547Y-89864666D01*
X180765452Y-89826571D01*
X180689261Y-89788476D01*
X191179404Y-72528928D02*
X190379404Y-72528928D01*
X190379404Y-72338452D01*
X190417500Y-72224166D01*
X190493690Y-72147976D01*
X190569880Y-72109880D01*
X190722261Y-72071785D01*
X190836547Y-72071785D01*
X190988928Y-72109880D01*
X191065119Y-72147976D01*
X191141309Y-72224166D01*
X191179404Y-72338452D01*
X191179404Y-72528928D01*
X190455595Y-71767023D02*
X190417500Y-71728928D01*
X190379404Y-71652738D01*
X190379404Y-71462261D01*
X190417500Y-71386071D01*
X190455595Y-71347976D01*
X190531785Y-71309880D01*
X190607976Y-71309880D01*
X190722261Y-71347976D01*
X191179404Y-71805119D01*
X191179404Y-71309880D01*
X190379404Y-70814642D02*
X190379404Y-70738452D01*
X190417500Y-70662261D01*
X190455595Y-70624166D01*
X190531785Y-70586071D01*
X190684166Y-70547976D01*
X190874642Y-70547976D01*
X191027023Y-70586071D01*
X191103214Y-70624166D01*
X191141309Y-70662261D01*
X191179404Y-70738452D01*
X191179404Y-70814642D01*
X191141309Y-70890833D01*
X191103214Y-70928928D01*
X191027023Y-70967023D01*
X190874642Y-71005119D01*
X190684166Y-71005119D01*
X190531785Y-70967023D01*
X190455595Y-70928928D01*
X190417500Y-70890833D01*
X190379404Y-70814642D01*
X77503646Y-119705689D02*
X78286164Y-119539360D01*
X78325766Y-119725674D01*
X78312265Y-119845382D01*
X78253580Y-119935749D01*
X78186975Y-119988853D01*
X78045844Y-120057797D01*
X77934056Y-120081558D01*
X77777085Y-120075977D01*
X77694639Y-120054556D01*
X77604272Y-119995871D01*
X77543248Y-119892003D01*
X77503646Y-119705689D01*
X78370047Y-120300456D02*
X78415231Y-120329798D01*
X78468334Y-120396403D01*
X78507936Y-120582717D01*
X78486515Y-120665163D01*
X78457172Y-120710346D01*
X78390567Y-120763450D01*
X78316042Y-120779291D01*
X78196333Y-120765790D01*
X77654134Y-120413682D01*
X77757100Y-120898098D01*
X77915509Y-121643353D02*
X77820464Y-121196200D01*
X77867986Y-121419776D02*
X78650504Y-121253447D01*
X78522875Y-121202683D01*
X78432509Y-121143998D01*
X78379405Y-121077393D01*
X97252146Y-120594689D02*
X98034664Y-120428360D01*
X98074266Y-120614674D01*
X98060765Y-120734382D01*
X98002080Y-120824749D01*
X97935475Y-120877853D01*
X97794344Y-120946797D01*
X97682556Y-120970558D01*
X97525585Y-120964977D01*
X97443139Y-120943556D01*
X97352772Y-120884871D01*
X97291748Y-120781003D01*
X97252146Y-120594689D01*
X98118547Y-121189456D02*
X98163731Y-121218798D01*
X98216834Y-121285403D01*
X98256436Y-121471717D01*
X98235015Y-121554163D01*
X98205672Y-121599346D01*
X98139067Y-121652450D01*
X98064542Y-121668291D01*
X97944833Y-121654790D01*
X97402634Y-121302682D01*
X97505600Y-121787098D01*
X98276956Y-121934711D02*
X98322139Y-121964054D01*
X98375243Y-122030659D01*
X98414845Y-122216973D01*
X98393423Y-122299419D01*
X98364081Y-122344602D01*
X98297476Y-122397705D01*
X98222951Y-122413546D01*
X98103242Y-122400045D01*
X97561043Y-122047937D01*
X97664009Y-122532353D01*
X115921146Y-116721189D02*
X116703664Y-116554860D01*
X116743266Y-116741174D01*
X116729765Y-116860882D01*
X116671080Y-116951249D01*
X116604475Y-117004353D01*
X116463344Y-117073297D01*
X116351556Y-117097058D01*
X116194585Y-117091477D01*
X116112139Y-117070056D01*
X116021772Y-117011371D01*
X115960748Y-116907503D01*
X115921146Y-116721189D01*
X116787547Y-117315956D02*
X116832731Y-117345298D01*
X116885834Y-117411903D01*
X116925436Y-117598217D01*
X116904015Y-117680663D01*
X116874672Y-117725846D01*
X116808067Y-117778950D01*
X116733542Y-117794791D01*
X116613833Y-117781290D01*
X116071634Y-117429182D01*
X116174600Y-117913598D01*
X117012561Y-118008108D02*
X117115527Y-118492524D01*
X116761982Y-118295048D01*
X116785743Y-118406836D01*
X116764321Y-118489282D01*
X116734979Y-118534465D01*
X116668374Y-118587569D01*
X116482060Y-118627171D01*
X116399614Y-118605749D01*
X116354431Y-118576407D01*
X116301327Y-118509802D01*
X116253805Y-118286225D01*
X116275226Y-118203779D01*
X116304569Y-118158596D01*
X134526646Y-112657189D02*
X135309164Y-112490860D01*
X135348766Y-112677174D01*
X135335265Y-112796882D01*
X135276580Y-112887249D01*
X135209975Y-112940353D01*
X135068844Y-113009297D01*
X134957056Y-113033058D01*
X134800085Y-113027477D01*
X134717639Y-113006056D01*
X134627272Y-112947371D01*
X134566248Y-112843503D01*
X134526646Y-112657189D01*
X135393047Y-113251956D02*
X135438231Y-113281298D01*
X135491334Y-113347903D01*
X135530936Y-113534217D01*
X135509515Y-113616663D01*
X135480172Y-113661846D01*
X135413567Y-113714950D01*
X135339042Y-113730791D01*
X135219333Y-113717290D01*
X134677134Y-113365182D01*
X134780100Y-113849598D01*
X135444347Y-114409441D02*
X134922668Y-114520327D01*
X135702847Y-114159764D02*
X135104303Y-114092257D01*
X135207269Y-114576673D01*
X156698904Y-110819428D02*
X155898904Y-110819428D01*
X155898904Y-110628952D01*
X155937000Y-110514666D01*
X156013190Y-110438476D01*
X156089380Y-110400380D01*
X156241761Y-110362285D01*
X156356047Y-110362285D01*
X156508428Y-110400380D01*
X156584619Y-110438476D01*
X156660809Y-110514666D01*
X156698904Y-110628952D01*
X156698904Y-110819428D01*
X155975095Y-110057523D02*
X155937000Y-110019428D01*
X155898904Y-109943238D01*
X155898904Y-109752761D01*
X155937000Y-109676571D01*
X155975095Y-109638476D01*
X156051285Y-109600380D01*
X156127476Y-109600380D01*
X156241761Y-109638476D01*
X156698904Y-110095619D01*
X156698904Y-109600380D01*
X155898904Y-108876571D02*
X155898904Y-109257523D01*
X156279857Y-109295619D01*
X156241761Y-109257523D01*
X156203666Y-109181333D01*
X156203666Y-108990857D01*
X156241761Y-108914666D01*
X156279857Y-108876571D01*
X156356047Y-108838476D01*
X156546523Y-108838476D01*
X156622714Y-108876571D01*
X156660809Y-108914666D01*
X156698904Y-108990857D01*
X156698904Y-109181333D01*
X156660809Y-109257523D01*
X156622714Y-109295619D01*
X175685404Y-110692428D02*
X174885404Y-110692428D01*
X174885404Y-110501952D01*
X174923500Y-110387666D01*
X174999690Y-110311476D01*
X175075880Y-110273380D01*
X175228261Y-110235285D01*
X175342547Y-110235285D01*
X175494928Y-110273380D01*
X175571119Y-110311476D01*
X175647309Y-110387666D01*
X175685404Y-110501952D01*
X175685404Y-110692428D01*
X174961595Y-109930523D02*
X174923500Y-109892428D01*
X174885404Y-109816238D01*
X174885404Y-109625761D01*
X174923500Y-109549571D01*
X174961595Y-109511476D01*
X175037785Y-109473380D01*
X175113976Y-109473380D01*
X175228261Y-109511476D01*
X175685404Y-109968619D01*
X175685404Y-109473380D01*
X174885404Y-108787666D02*
X174885404Y-108940047D01*
X174923500Y-109016238D01*
X174961595Y-109054333D01*
X175075880Y-109130523D01*
X175228261Y-109168619D01*
X175533023Y-109168619D01*
X175609214Y-109130523D01*
X175647309Y-109092428D01*
X175685404Y-109016238D01*
X175685404Y-108863857D01*
X175647309Y-108787666D01*
X175609214Y-108749571D01*
X175533023Y-108711476D01*
X175342547Y-108711476D01*
X175266357Y-108749571D01*
X175228261Y-108787666D01*
X175190166Y-108863857D01*
X175190166Y-109016238D01*
X175228261Y-109092428D01*
X175266357Y-109130523D01*
X175342547Y-109168619D01*
X213912404Y-72719428D02*
X213112404Y-72719428D01*
X213112404Y-72528952D01*
X213150500Y-72414666D01*
X213226690Y-72338476D01*
X213302880Y-72300380D01*
X213455261Y-72262285D01*
X213569547Y-72262285D01*
X213721928Y-72300380D01*
X213798119Y-72338476D01*
X213874309Y-72414666D01*
X213912404Y-72528952D01*
X213912404Y-72719428D01*
X213188595Y-71957523D02*
X213150500Y-71919428D01*
X213112404Y-71843238D01*
X213112404Y-71652761D01*
X213150500Y-71576571D01*
X213188595Y-71538476D01*
X213264785Y-71500380D01*
X213340976Y-71500380D01*
X213455261Y-71538476D01*
X213912404Y-71995619D01*
X213912404Y-71500380D01*
X213112404Y-71233714D02*
X213112404Y-70700380D01*
X213912404Y-71043238D01*
X87409646Y-142057689D02*
X88192164Y-141891360D01*
X88231766Y-142077674D01*
X88218265Y-142197382D01*
X88159580Y-142287749D01*
X88092975Y-142340853D01*
X87951844Y-142409797D01*
X87840056Y-142433558D01*
X87683085Y-142427977D01*
X87600639Y-142406556D01*
X87510272Y-142347871D01*
X87449248Y-142244003D01*
X87409646Y-142057689D01*
X88276047Y-142652456D02*
X88321231Y-142681798D01*
X88374334Y-142748403D01*
X88413936Y-142934717D01*
X88392515Y-143017163D01*
X88363172Y-143062346D01*
X88296567Y-143115450D01*
X88222042Y-143131291D01*
X88102333Y-143117790D01*
X87560134Y-142765682D01*
X87663100Y-143250098D01*
X88205299Y-143602206D02*
X88226721Y-143519760D01*
X88256063Y-143474576D01*
X88322668Y-143421473D01*
X88359931Y-143413552D01*
X88442377Y-143434974D01*
X88487560Y-143464316D01*
X88540664Y-143530922D01*
X88572345Y-143679973D01*
X88550923Y-143762419D01*
X88521581Y-143807602D01*
X88454976Y-143860705D01*
X88417713Y-143868626D01*
X88335267Y-143847204D01*
X88290084Y-143817862D01*
X88236980Y-143751257D01*
X88205299Y-143602206D01*
X88152195Y-143535600D01*
X88107012Y-143506258D01*
X88024566Y-143484836D01*
X87875515Y-143516518D01*
X87808910Y-143569622D01*
X87779567Y-143614805D01*
X87758145Y-143697251D01*
X87789827Y-143846302D01*
X87842931Y-143912907D01*
X87888114Y-143942249D01*
X87970560Y-143963671D01*
X88119611Y-143931989D01*
X88186216Y-143878886D01*
X88215559Y-143833703D01*
X88236980Y-143751257D01*
X137892146Y-132532689D02*
X138674664Y-132366360D01*
X138714266Y-132552674D01*
X138700765Y-132672382D01*
X138642080Y-132762749D01*
X138575475Y-132815853D01*
X138434344Y-132884797D01*
X138322556Y-132908558D01*
X138165585Y-132902977D01*
X138083139Y-132881556D01*
X137992772Y-132822871D01*
X137931748Y-132719003D01*
X137892146Y-132532689D01*
X138758547Y-133127456D02*
X138803731Y-133156798D01*
X138856834Y-133223403D01*
X138896436Y-133409717D01*
X138875015Y-133492163D01*
X138845672Y-133537346D01*
X138779067Y-133590450D01*
X138704542Y-133606291D01*
X138584833Y-133592790D01*
X138042634Y-133240682D01*
X138145600Y-133725098D01*
X138224805Y-134097725D02*
X138256486Y-134246776D01*
X138309590Y-134313382D01*
X138354773Y-134342724D01*
X138482402Y-134393488D01*
X138639374Y-134399069D01*
X138937476Y-134335705D01*
X139004081Y-134282602D01*
X139033423Y-134237419D01*
X139054845Y-134154973D01*
X139023164Y-134005922D01*
X138970060Y-133939316D01*
X138924877Y-133909974D01*
X138842431Y-133888552D01*
X138656117Y-133928154D01*
X138589512Y-133981258D01*
X138560169Y-134026441D01*
X138538748Y-134108887D01*
X138570429Y-134257938D01*
X138623533Y-134324543D01*
X138668716Y-134353886D01*
X138751162Y-134375308D01*
X217468404Y-129678928D02*
X216668404Y-129678928D01*
X216668404Y-129488452D01*
X216706500Y-129374166D01*
X216782690Y-129297976D01*
X216858880Y-129259880D01*
X217011261Y-129221785D01*
X217125547Y-129221785D01*
X217277928Y-129259880D01*
X217354119Y-129297976D01*
X217430309Y-129374166D01*
X217468404Y-129488452D01*
X217468404Y-129678928D01*
X216668404Y-128955119D02*
X216668404Y-128459880D01*
X216973166Y-128726547D01*
X216973166Y-128612261D01*
X217011261Y-128536071D01*
X217049357Y-128497976D01*
X217125547Y-128459880D01*
X217316023Y-128459880D01*
X217392214Y-128497976D01*
X217430309Y-128536071D01*
X217468404Y-128612261D01*
X217468404Y-128840833D01*
X217430309Y-128917023D01*
X217392214Y-128955119D01*
X216668404Y-127964642D02*
X216668404Y-127888452D01*
X216706500Y-127812261D01*
X216744595Y-127774166D01*
X216820785Y-127736071D01*
X216973166Y-127697976D01*
X217163642Y-127697976D01*
X217316023Y-127736071D01*
X217392214Y-127774166D01*
X217430309Y-127812261D01*
X217468404Y-127888452D01*
X217468404Y-127964642D01*
X217430309Y-128040833D01*
X217392214Y-128078928D01*
X217316023Y-128117023D01*
X217163642Y-128155119D01*
X216973166Y-128155119D01*
X216820785Y-128117023D01*
X216744595Y-128078928D01*
X216706500Y-128040833D01*
X216668404Y-127964642D01*
X199434404Y-110438428D02*
X198634404Y-110438428D01*
X198634404Y-110247952D01*
X198672500Y-110133666D01*
X198748690Y-110057476D01*
X198824880Y-110019380D01*
X198977261Y-109981285D01*
X199091547Y-109981285D01*
X199243928Y-110019380D01*
X199320119Y-110057476D01*
X199396309Y-110133666D01*
X199434404Y-110247952D01*
X199434404Y-110438428D01*
X198634404Y-109714619D02*
X198634404Y-109219380D01*
X198939166Y-109486047D01*
X198939166Y-109371761D01*
X198977261Y-109295571D01*
X199015357Y-109257476D01*
X199091547Y-109219380D01*
X199282023Y-109219380D01*
X199358214Y-109257476D01*
X199396309Y-109295571D01*
X199434404Y-109371761D01*
X199434404Y-109600333D01*
X199396309Y-109676523D01*
X199358214Y-109714619D01*
X199434404Y-108457476D02*
X199434404Y-108914619D01*
X199434404Y-108686047D02*
X198634404Y-108686047D01*
X198748690Y-108762238D01*
X198824880Y-108838428D01*
X198862976Y-108914619D01*
X226802904Y-110755928D02*
X226002904Y-110755928D01*
X226002904Y-110565452D01*
X226041000Y-110451166D01*
X226117190Y-110374976D01*
X226193380Y-110336880D01*
X226345761Y-110298785D01*
X226460047Y-110298785D01*
X226612428Y-110336880D01*
X226688619Y-110374976D01*
X226764809Y-110451166D01*
X226802904Y-110565452D01*
X226802904Y-110755928D01*
X226002904Y-110032119D02*
X226002904Y-109536880D01*
X226307666Y-109803547D01*
X226307666Y-109689261D01*
X226345761Y-109613071D01*
X226383857Y-109574976D01*
X226460047Y-109536880D01*
X226650523Y-109536880D01*
X226726714Y-109574976D01*
X226764809Y-109613071D01*
X226802904Y-109689261D01*
X226802904Y-109917833D01*
X226764809Y-109994023D01*
X226726714Y-110032119D01*
X226079095Y-109232119D02*
X226041000Y-109194023D01*
X226002904Y-109117833D01*
X226002904Y-108927357D01*
X226041000Y-108851166D01*
X226079095Y-108813071D01*
X226155285Y-108774976D01*
X226231476Y-108774976D01*
X226345761Y-108813071D01*
X226802904Y-109270214D01*
X226802904Y-108774976D01*
X203053904Y-91832928D02*
X202253904Y-91832928D01*
X202253904Y-91642452D01*
X202292000Y-91528166D01*
X202368190Y-91451976D01*
X202444380Y-91413880D01*
X202596761Y-91375785D01*
X202711047Y-91375785D01*
X202863428Y-91413880D01*
X202939619Y-91451976D01*
X203015809Y-91528166D01*
X203053904Y-91642452D01*
X203053904Y-91832928D01*
X202253904Y-91109119D02*
X202253904Y-90613880D01*
X202558666Y-90880547D01*
X202558666Y-90766261D01*
X202596761Y-90690071D01*
X202634857Y-90651976D01*
X202711047Y-90613880D01*
X202901523Y-90613880D01*
X202977714Y-90651976D01*
X203015809Y-90690071D01*
X203053904Y-90766261D01*
X203053904Y-90994833D01*
X203015809Y-91071023D01*
X202977714Y-91109119D01*
X202253904Y-90347214D02*
X202253904Y-89851976D01*
X202558666Y-90118642D01*
X202558666Y-90004357D01*
X202596761Y-89928166D01*
X202634857Y-89890071D01*
X202711047Y-89851976D01*
X202901523Y-89851976D01*
X202977714Y-89890071D01*
X203015809Y-89928166D01*
X203053904Y-90004357D01*
X203053904Y-90232928D01*
X203015809Y-90309119D01*
X202977714Y-90347214D01*
X72878904Y-119723428D02*
X72078904Y-119723428D01*
X72078904Y-119532952D01*
X72117000Y-119418666D01*
X72193190Y-119342476D01*
X72269380Y-119304380D01*
X72421761Y-119266285D01*
X72536047Y-119266285D01*
X72688428Y-119304380D01*
X72764619Y-119342476D01*
X72840809Y-119418666D01*
X72878904Y-119532952D01*
X72878904Y-119723428D01*
X72078904Y-118999619D02*
X72078904Y-118504380D01*
X72383666Y-118771047D01*
X72383666Y-118656761D01*
X72421761Y-118580571D01*
X72459857Y-118542476D01*
X72536047Y-118504380D01*
X72726523Y-118504380D01*
X72802714Y-118542476D01*
X72840809Y-118580571D01*
X72878904Y-118656761D01*
X72878904Y-118885333D01*
X72840809Y-118961523D01*
X72802714Y-118999619D01*
X72345571Y-117818666D02*
X72878904Y-117818666D01*
X72040809Y-118009142D02*
X72612238Y-118199619D01*
X72612238Y-117704380D01*
M02*
