M48
; DRILL file {KiCad (5.1.6)-1} date 08/09/20 18:55:42
; FORMAT={-:-/ absolute / inch / decimal}
; #@! TF.CreationDate,2020-08-09T18:55:42-07:00
; #@! TF.GenerationSoftware,Kicad,Pcbnew,(5.1.6)-1
; #@! TF.FileFunction,Plated,1,2,PTH
FMAT,2
INCH
T1C0.0118
T2C0.0315
T3C0.0320
T4C0.0394
T5C0.0433
T6C0.0591
T7C0.0866
%
G90
G05
T1
X2.0225Y-1.7925
X2.1325Y-4.765
X2.145Y-2.44
X2.16Y-2.24
X2.225Y-2.16
X2.2325Y-2.34
X2.2375Y-2.47
X2.2425Y-2.995
X2.2625Y-2.1625
X2.2725Y-2.6125
X2.29Y-2.6825
X2.29Y-2.9175
X2.295Y-2.1625
X2.32Y-2.7875
X2.3225Y-2.1625
X2.3575Y-2.1625
X2.395Y-2.55
X2.405Y-2.975
X2.4125Y-2.1625
X2.44Y-2.1625
X2.47Y-2.0625
X2.49Y-2.7875
X2.515Y-2.6825
X2.5175Y-2.41
X2.5175Y-2.115
X2.5263Y-2.9987
X2.535Y-2.6125
X2.6675Y-3.135
X2.7479Y-2.4575
X2.7479Y-2.6725
X2.7715Y-2.596
X2.8125Y-3.0275
X2.8477Y-4.0775
X2.8477Y-4.1084
X2.94Y-3.4025
X7.16Y-4.1025
X8.0025Y-4.6625
X9.61Y-2.2575
T2
X7.72Y-2.155
X7.72Y-2.355
X3.953Y-2.5555
X3.9946Y-2.7511
X4.6055Y-4.723
X4.6471Y-4.9186
X6.9025Y-4.415
X6.9025Y-4.615
X3.218Y-2.7155
X3.2596Y-2.9111
X3.8705Y-4.8755
X3.9121Y-5.0711
X4.083Y-4.068
X4.1246Y-4.2636
X8.5475Y-5.1625
X8.5475Y-5.3625
X7.5125Y-2.9125
X7.5125Y-3.1125
X7.1175Y-3.67
X7.1175Y-3.87
X6.78Y-2.915
X6.78Y-3.115
X7.98Y-3.6725
X7.98Y-3.8725
X5.418Y-2.2455
X5.4596Y-2.4411
X3.737Y-3.3699
X3.7854Y-3.564
X5.5505Y-3.758
X5.5921Y-3.9536
X6.3675Y-3.67
X6.3675Y-3.87
X6.155Y-4.42
X6.155Y-4.62
X8.4075Y-2.92
X8.4075Y-3.12
X7.8375Y-4.405
X7.8375Y-4.605
X3.483Y-5.7205
X3.5246Y-5.9161
X3.288Y-3.9305
X3.3296Y-4.1261
X5.208Y-3.053
X5.2496Y-3.2486
X3.358Y-4.258
X3.3996Y-4.4536
X9.225Y-2.175
X9.225Y-2.375
X5.4705Y-5.3455
X5.5121Y-5.5411
X6.24Y-2.0825
X6.24Y-2.2825
X4.813Y-3.8955
X4.8546Y-4.0911
X6.03Y-2.8725
X6.03Y-3.0725
X3.093Y-4.8405
X3.1346Y-5.0361
X2.855Y-4.38
X2.855Y-4.58
X6.9875Y-2.165
X6.9875Y-2.365
X8.915Y-4.4175
X8.915Y-4.6175
X4.6855Y-2.398
X4.7271Y-2.5936
X5.338Y-4.563
X5.3796Y-4.7586
X4.473Y-3.2055
X4.5146Y-3.4011
T3
X2.665Y-4.0125
X2.1912Y-3.2525
X2.2912Y-3.2525
X2.3912Y-3.2525
X2.4912Y-3.2525
X2.2925Y-3.4391
X2.4925Y-3.4391
X2.0156Y-1.9881
X2.0156Y-2.0881
X2.0156Y-2.1881
X2.0156Y-2.2881
X2.0156Y-2.3881
X2.0156Y-2.4881
X2.0156Y-2.5881
X2.0156Y-2.6881
X2.0156Y-2.7881
X2.0156Y-2.8881
X2.0156Y-2.9881
X2.0156Y-3.0881
X2.0667Y-1.941
X2.0667Y-2.041
X2.0667Y-2.141
X2.0667Y-2.241
X2.0667Y-2.341
X2.0667Y-2.441
X2.0667Y-2.541
X2.0667Y-2.641
X2.0667Y-2.741
X2.0667Y-2.841
X2.0667Y-2.941
X2.0667Y-3.041
X2.6156Y-1.9881
X2.6156Y-2.0881
X2.6156Y-2.1881
X2.6156Y-2.2881
X2.6156Y-2.3881
X2.6156Y-2.4881
X2.6156Y-2.5881
X2.6156Y-2.6881
X2.6156Y-2.7881
X2.6156Y-2.8881
X2.6156Y-2.9881
X2.6156Y-3.0881
X2.6667Y-1.941
X2.6667Y-2.041
X2.6667Y-2.141
X2.6667Y-2.241
X2.6667Y-2.341
X2.6667Y-2.441
X2.6667Y-2.541
X2.6667Y-2.641
X2.6667Y-2.741
X2.6667Y-2.841
X2.6667Y-2.941
X2.6667Y-3.041
X2.665Y-3.8975
X2.2925Y-3.5375
X2.4925Y-3.5375
T4
X2.6575Y-3.2391
X2.6575Y-3.3375
X2.6575Y-3.4399
X2.1347Y-4.3841
X2.1347Y-4.4825
X2.1347Y-4.5809
X2.7056Y-4.3841
X2.7056Y-4.5809
T5
X2.005Y-3.3666
X2.005Y-3.6225
X2.1822Y-3.3666
X2.1822Y-3.6225
T6
X4.155Y-5.5834
X4.3787Y-5.4336
X7.13Y-4.42
X7.38Y-4.32
X3.5688Y-4.1698
X3.7925Y-4.02
X5.7463Y-5.2998
X5.97Y-5.15
X8.675Y-2.92
X8.925Y-2.82
X5.5575Y-4.5134
X5.7812Y-4.3636
X6.9875Y-2.92
X7.2375Y-2.82
X9.1925Y-4.42
X9.4425Y-4.32
X3.4375Y-2.6634
X3.6612Y-2.5136
X4.1725Y-2.5073
X4.3962Y-2.3575
X6.38Y-4.42
X6.63Y-4.32
X4.825Y-4.6709
X5.0487Y-4.5211
X8.16Y-4.42
X8.41Y-4.32
X7.1975Y-2.17
X7.4475Y-2.07
X4.6938Y-3.1623
X4.9175Y-3.0125
X7.9475Y-2.1675
X8.1975Y-2.0675
X4.09Y-4.8259
X4.3137Y-4.6761
X3.3563Y-4.9823
X3.58Y-4.8325
X8.3225Y-2.1675
X8.5725Y-2.0675
X6.465Y-2.085
X6.715Y-1.985
X3.96Y-3.3198
X4.1837Y-3.17
X7.7375Y-2.92
X7.9875Y-2.82
X7.3425Y-3.67
X7.5925Y-3.57
X8.8625Y-5.1725
X9.1125Y-5.0725
X3.2288Y-3.4748
X3.4525Y-3.325
X4.905Y-2.3509
X5.1287Y-2.2011
X6.255Y-2.875
X6.505Y-2.775
X4.3013Y-4.0148
X4.525Y-3.865
X5.0338Y-3.8573
X5.2575Y-3.7075
X8.6975Y-2.1675
X8.9475Y-2.0675
X5.4288Y-3.0073
X5.6525Y-2.8575
X6.5925Y-3.67
X6.8425Y-3.57
X5.7688Y-3.7023
X5.9925Y-3.5525
X8.5625Y-3.67
X8.8125Y-3.57
X5.6388Y-2.1948
X5.8625Y-2.045
T7
X3.18Y-1.975
X3.18Y-5.2525
X5.1Y-5.96
X4.02Y-3.0075
X9.475Y-4.075
X7.5125Y-2.6825
X7.8875Y-5.085
T4
G00X2.1123Y-3.7309
M15
G01X2.0926Y-3.7309
M16
G05
G00X2.1123Y-3.9652
M15
G01X2.0926Y-3.9652
M16
G05
G00X2.2304Y-3.7309
M15
G01X2.2107Y-3.7309
M16
G05
G00X2.2304Y-3.9652
M15
G01X2.2107Y-3.9652
M16
G05
G00X2.3879Y-3.7309
M15
G01X2.3682Y-3.7309
M16
G05
G00X2.3879Y-3.9652
M15
G01X2.3682Y-3.9652
M16
G05
G00X2.4469Y-3.7998
M15
G01X2.4272Y-3.7998
M16
G05
G00X2.4469Y-3.8963
M15
G01X2.4272Y-3.8963
M16
G05
T6
G00X2.4044Y-4.262
M15
G01X2.4556Y-4.262
M16
G05
G00X2.4044Y-4.703
M15
G01X2.4556Y-4.703
M16
G05
T0
M30
